<?xml version="1.0" standalone="no"?>
<!DOCTYPE svg PUBLIC "-//W3C//DTD SVG 1.1//EN" "http://www.w3.org/Graphics/SVG/1.1/DTD/svg11.dtd" >
<svg xmlns="http://www.w3.org/2000/svg" xmlns:xlink="http://www.w3.org/1999/xlink" version="1.1">
<metadata>
Created by FontForge 20191125 at Fri Jan 11 09:11:40 2019
 By convertio
Typeface (c) Creative Stranger 2019. All Rights Reserved
</metadata>
<defs>
<font id="LemonJuice" horiz-adv-x="20" >
  <font-face 
    font-family="Lemon Juice"
    font-weight="400"
    font-stretch="normal"
    units-per-em="2048"
    panose-1="2 0 5 0 0 0 0 0 0 0"
    ascent="1638"
    descent="-410"
    x-height="949"
    cap-height="1247"
    bbox="-177 -377 1525 1774"
    underline-thickness="150"
    underline-position="-292"
    unicode-range="U+001D-E270"
  />
<missing-glyph horiz-adv-x="844" 
d="M0 0v1434h824v-1434h-824zM50 50q353 159 724 0v1334q-384 -118 -724 0v-1334zM319 334l57 58q11 10 20 10q10 0 22 -11l56 -60q9 -11 9 -20q0 -11 -10 -22l-56 -62q-14 -14 -21 -14q-11 0 -20 10l-61 71q-7 9 -7 18q0 10 11 22zM313 1191q53 30 112 30q92 0 148 -47.5
t56 -127.5q0 -49 -23 -98.5t-87 -129.5q-63 -80 -99 -132t-36 -99q0 -38 24 -133h-32q-35 97 -35 148q0 76 81.5 218t81.5 217q0 57 -33 90t-91 33q-8 0 -16 -1l32 -51q7 -12 5 -21q-2 -11 -14 -20l-66 -50q-17 -11 -24 -10q-10 2 -17 14l-47 81q-5 10 -3 19q1 10 28.5 32.5
t54.5 37.5z" />
    <glyph glyph-name="a.swsh" unicode="a__" 
 />
    <glyph glyph-name="b.swsh" unicode="b__" 
 />
    <glyph glyph-name="c.swsh" unicode="c__" 
 />
    <glyph glyph-name="d.swsh" unicode="d__" 
 />
    <glyph glyph-name="e.swsh" unicode="e__" 
 />
    <glyph glyph-name="f.swsh" unicode="f__" 
 />
    <glyph glyph-name="g.swsh" unicode="g__" 
 />
    <glyph glyph-name="h.swsh" unicode="h__" 
 />
    <glyph glyph-name="i.swsh" unicode="i__" 
 />
    <glyph glyph-name="j.swsh" unicode="j__" 
 />
    <glyph glyph-name="k.swsh" unicode="k__" 
 />
    <glyph glyph-name="l.swsh" unicode="l__" 
 />
    <glyph glyph-name="m.swsh" unicode="m__" 
 />
    <glyph glyph-name="n.swsh" unicode="n__" 
 />
    <glyph glyph-name="o.swsh" unicode="o__" 
 />
    <glyph glyph-name="p.swsh" unicode="p__" 
 />
    <glyph glyph-name="q.swsh" unicode="q__" 
 />
    <glyph glyph-name="r.swsh" unicode="r__" 
 />
    <glyph glyph-name="s.swsh" unicode="s__" 
 />
    <glyph glyph-name="u.swsh" unicode="u__" 
 />
    <glyph glyph-name="v.swsh" unicode="v__" 
 />
    <glyph glyph-name="w.swsh" unicode="w__" 
 />
    <glyph glyph-name="x.swsh" unicode="x__" 
 />
    <glyph glyph-name="y.swsh" unicode="y__" 
 />
    <glyph glyph-name="z.swsh" unicode="z__" 
 />
    <glyph glyph-name="a.titl" unicode="__a" 
 />
    <glyph glyph-name="b.titl" unicode="__b" 
 />
    <glyph glyph-name="c.titl" unicode="__c" 
 />
    <glyph glyph-name="d.titl" unicode="__d" 
 />
    <glyph glyph-name="e.titl" unicode="__e" 
 />
    <glyph glyph-name="f.titl" unicode="__f" 
 />
    <glyph glyph-name="g.titl" unicode="__g" 
 />
    <glyph glyph-name="h.titl" unicode="__h" 
 />
    <glyph glyph-name="i.titl" unicode="__i" 
 />
    <glyph glyph-name="j.titl" unicode="__j" 
 />
    <glyph glyph-name="k.titl" unicode="__k" 
 />
    <glyph glyph-name="l.titl" unicode="__l" 
 />
    <glyph glyph-name="m.titl" unicode="__m" 
 />
    <glyph glyph-name="n.titl" unicode="__n" 
 />
    <glyph glyph-name="o.titl" unicode="__o" 
 />
    <glyph glyph-name="p.titl" unicode="__p" 
 />
    <glyph glyph-name="q.titl" unicode="__q" 
 />
    <glyph glyph-name="r.titl" unicode="__r" 
 />
    <glyph glyph-name="s.titl" unicode="__s" 
 />
    <glyph glyph-name="u.titl" unicode="__u" 
 />
    <glyph glyph-name="v.titl" unicode="__v" 
 />
    <glyph glyph-name="w.titl" unicode="__w" 
 />
    <glyph glyph-name="x.titl" unicode="__x" 
 />
    <glyph glyph-name="y.titl" unicode="__y" 
 />
    <glyph glyph-name="z.titl" unicode="__z" 
 />
    <glyph glyph-name=".notdef" horiz-adv-x="844" 
d="M0 0v1434h824v-1434h-824zM50 50q353 159 724 0v1334q-384 -118 -724 0v-1334zM319 334l57 58q11 10 20 10q10 0 22 -11l56 -60q9 -11 9 -20q0 -11 -10 -22l-56 -62q-14 -14 -21 -14q-11 0 -20 10l-61 71q-7 9 -7 18q0 10 11 22zM313 1191q53 30 112 30q92 0 148 -47.5
t56 -127.5q0 -49 -23 -98.5t-87 -129.5q-63 -80 -99 -132t-36 -99q0 -38 24 -133h-32q-35 97 -35 148q0 76 81.5 218t81.5 217q0 57 -33 90t-91 33q-8 0 -16 -1l32 -51q7 -12 5 -21q-2 -11 -14 -20l-66 -50q-17 -11 -24 -10q-10 2 -17 14l-47 81q-5 10 -3 19q1 10 28.5 32.5
t54.5 37.5z" />
    <glyph glyph-name=".null" 
 />
    <glyph glyph-name=".null" 
 />
    <glyph glyph-name="nonmarkingreturn" 
 />
    <glyph glyph-name="space" unicode=" " horiz-adv-x="339" 
 />
    <glyph glyph-name="space" unicode="&#xa0;" horiz-adv-x="339" 
 />
    <glyph glyph-name="exclam" unicode="!" horiz-adv-x="247" 
d="M111 444q-18 0 -48.5 16.5t-41 95t-14.5 214.5l-3 75q0 36 -3 139q0 41 -1 61v57q0 76 6 123q9 30 53 44q26 8 50 8q69 0 69 -49v-79q1 -15 1 -47l1 -98l2 -85q0 -35 2 -70l1 -29q2 -45 9 -151q0 -26 3 -51.5t4 -51.5q-4 -75 -44 -105q-23 -17 -46 -17zM102 91
q-36 0 -60 32q-8 20 -9 41q0 44 4 76q7 51 18 81q16 7 44 7q39 0 70 -13t37 -39l-4 -47q0 -8 -1 -16t-1 -18q0 -40 -9 -67q-27 -28 -74 -36z" />
    <glyph glyph-name="quotedbl" unicode="&#x22;" horiz-adv-x="424" 
d="M28 1083q-20 96 -27.5 147.5t-6 87.5t7.5 84q2 10 3 21q10 14 25 24t27 10q25 0 55.5 -29t45.5 -65q16 -78 11.5 -170t-32.5 -152q-22 -15 -55 -2t-54 44zM251 1083q-20 96 -27.5 147.5t-6 87.5t8.5 84q1 10 2 21q11 14 26 24t26 10q25 0 56 -29t45 -65q16 -78 11.5 -170
t-32.5 -152q-22 -15 -54.5 -2t-54.5 44z" />
    <glyph glyph-name="numbersign" unicode="#" horiz-adv-x="884" 
d="M679 158q-41 0 -78 31q-44 37 -44 107l1 18l-16 129q-21 0 -36 -1q-27 -2 -82 -2q3 -27 3 -54q0 -60 -49 -85q-24 -12 -49 -12q-17 0 -47 9t-48 57q-10 37 -13 75h-63l-14 1q-83 13 -83 77q0 26 19.5 48.5t56.5 22.5q17 0 38 -5l31 5l-14 128q0 8 -1 11l-41 3
q-49 4 -66 8q-84 17 -84 65q0 57 97 67l76 12h4v9q-1 2 -1 5q-4 50 -4 102v21q5 49 49 69q27 12 53 12q17 0 47 -9t34 -62q3 -16 5 -33l3 -20q5 -30 9 -61q0 -10 3 -25h32l30 1q31 0 49 2h10q-5 58 -5 83l-2 25v11q0 18 2 34q16 53 64 71q21 7 40 7q92 0 93 -101
q14 -70 18 -114l2 -14h8q100 0 100 -54q0 -4 -4 -32t-52 -85q-6 -6 -25 -9l-6 -2q1 -2 1 -6t10 -82q4 2 20 2q17 0 34 -4q40 -20 59 -64q11 -24 11 -45q0 -58 -58 -58q-11 0 -24 2h-20l1 -12l8 -61q9 -64 9 -105v-13q-19 -100 -101 -100zM407 602q6 3 39 3q27 1 54 4
q15 0 21 1l-1 13q-6 39 -9 86h-46q-10 0 -19 -1h-50z" />
    <glyph glyph-name="dollar" unicode="$" horiz-adv-x="514" 
d="M269 24q-74 0 -96 52q1 11 1.5 22t1.5 17v34q2 10 2 24q0 8 1 15q2 14 2 27q0 3 1 5v2h-1q-32 11 -52 23l-6 3l-30 21q-6 6 -14 12.5t-39 38.5q-23 25 -23 47q0 28 23 53q32 35 83 35q39 0 67 -32l17 -14q21 -19 44 -19q19 0 38 21q15 24 15 45q0 49 -84 101l-2 1l-23 16
q-9 8 -19 14t-13.5 9t-7 5t-8 5t-10.5 6l-29 18l-15 10l-28 23q-21 21 -29 37l-5 8q-7 11 -12 26l-5 12l-1 4q-6 16 -9 41q-3 12 -3 33l-1 18q0 8 1 14.5t2 12.5q3 22 10 43v1q3 10 7 19l3 10q18 34 38 53q8 10 38 34q9 6 50 28q6 1 12 4l-1 4q-3 17 -4 33q0 9 -1 18
t-1.5 19.5t-0.5 22.5v24l1 21q2 32 15.5 56.5t52.5 24.5q29 0 59 -16q36 -21 36 -61q1 -5 1 -20q2 -11 2 -22q3 -16 3 -34l2 -19q5 -23 5 -42q0 -10 -2 -19q2 -1 3.5 -1.5t2 -1.5t1.5 -1.5t2 -1.5q7 -2 12 -5.5t9.5 -5.5t9 -5.5t9.5 -6.5q10 -6 19 -13l7 -6q10 -6 22 -20
l8 -8l9 -10q5 -10 11 -16q3 -3 5 -7q9 -12 11.5 -18t5.5 -11t4 -9.5t3.5 -7.5t5.5 -14q2 -6 4 -12.5t2 -13.5q0 -16 -16 -31q-20 -18 -53 -18q-22 0 -43 14q-42 57 -89 89q-46 20 -66 20q-19 0 -53 -25l-7 -7q-16 -32 -16 -57q0 -19 14 -43.5t76 -55.5q5 -2 9 -5l17 -9
q17 -6 36 -19l5 -4l21 -14q9 -6 17.5 -13t19.5 -14.5t18.5 -14t13.5 -13.5q15 -11 22 -21l7 -9q21 -24 26 -35l7 -14q17 -30 23 -65l1 -8q3 -18 3 -42q0 -30 -15 -75l-11 -22q-20 -35 -35 -50q-9 -12 -23 -23l-8 -7q-12 -10 -23 -17l-25 -15h-1v-6q2 -4 2 -20v-53
q0 -20 -1 -28q0 -22 -1 -29l1 -26q-6 -48 -78 -48z" />
    <glyph glyph-name="percent" unicode="%" horiz-adv-x="819" 
d="M173 96h-7q-73 0 -103 84v11q0 33 29 109l49 134l29 72q3 9 45 106q30 66 80 196q22 62 27.5 75t9.5 25q11 30 48 123q11 24 28 69l52 122q6 19 22 49q3 4 5 9q7 15 16 28q0 6 18 26q17 4 41 4q15 0 47 -3t62 -24q20 -14 20 -38q0 -19 -13 -55l-3 -10q-5 -17 -40 -107
q-12 -28 -25 -65q-8 -24 -27 -69q-9 -22 -17 -45q-40 -104 -46 -122q-9 -26 -19 -51l-38 -107q-19 -46 -36 -96q-35 -100 -51 -138l-29 -79q-8 -26 -11 -32q-11 -29 -20.5 -59t-20.5 -60q-43 -77 -122 -82zM169 891q-41 0 -70 16l-9 4q-13 8 -25 19q0 1 -1 1q-12 12 -21 24
q-38 42 -43 125q0 37 14 71l5 14q2 11 8 20q4 5 7 11q9 17 26 31l14 13q23 22 60 30l10 1q13 11 28 18q13 4 30 4q49 0 85 -28q20 -10 44 -42q24 -36 31 -80l4 -27v-28q-3 -11 -4 -23l-1 -4q-2 -10 -8 -31q-9 -18 -14 -30t-13 -23q0 -6 -17.5 -24.5t-29.5 -24.5
q-23 -20 -45 -26l-8 -3q-12 -4 -25 -7zM188 1023q25 0 42 20.5t17 49.5q0 30 -17 50.5t-42 20.5q-24 0 -41 -20.5t-17 -50.5q0 -29 17 -49.5t41 -20.5zM597 72q-38 0 -71 13q-47 16 -66 50q-26 33 -33 69q-6 16 -7 34q0 55 20 95q8 19 20 34q2 5 7 10q17 24 42 43
q11 11 22 17t25 9l1 1l13 3l4 -1l11 -21l5 2q19 4 39 4q47 0 76 -19q2 -2 5 -3q11 -7 22 -16q20 -20 21 -22t2 -3q9 -10 15 -22l6 -11l12 -28q10 -35 10 -48l1 -12q0 -4 -0.5 -8.5t-0.5 -12t-2 -15.5q-7 -37 -36 -71q-3 -3 -6.5 -7t-9.5 -7.5t-10 -8.5l-9 -6
q-25 -17 -51 -26q-8 -2 -15 -6h-1q-22 -10 -61 -10zM606 195q27 0 46.5 19.5t19.5 47.5t-19.5 47.5t-46.5 19.5q-28 0 -47 -19.5t-19 -47.5t19 -47.5t47 -19.5z" />
    <glyph glyph-name="ampersand" unicode="&#x26;" horiz-adv-x="1021" 
d="M295 -40q-113 0 -182.5 73t-70.5 189q0 59 19 111q20 59 58 109l3 4q17 21 36 40l14 12q-47 36 -85 88q-57 82 -77 185q-10 50 -10 104q0 103 38 196q33 76 70 121q56 69 133 108l40 16q40 17 107 17q36 0 65 -6q36 -7 79 -26q78 -42 131 -98q4 -4 26 -32q54 -75 69 -158
q5 -29 5 -59l-1 -29l-1 -3q-7 -70 -37 -122q-35 -61 -85 -95q-78 -59 -172 -59q-99 0 -157 54q-29 29 -44 78q-8 30 -8 62q0 33 11 64q20 71 102 109h1q33 13 66 13q19 0 39 -4h1q12 -2 23.5 -8t18.5 -9q7 -9 7 -19q0 -45 -62 -69q-18 -7 -35 -18q-24 -17 -28 -50
q6 -54 55 -54q12 0 29 5q25 7 41 15l6 5q8 5 15 11q20 18 31 34q0 1 1 1l10 22q14 37 14 68q0 32 -11 61q-6 21 -22 45l-4 7q-7 11 -16 21q-29 32 -66 57q-24 16 -48.5 23t-25.5 8q-8 1 -17 1h7q0 1 -12 1q-16 0 -29 -1h20q-24 0 -43 -7h-1l-24 -11q-40 -23 -70 -56
q-26 -31 -36 -50.5t-16 -32.5q-14 -33 -20 -71q-6 -28 -6 -63q0 -28 3 -47v-5q9 -58 34 -108q27 -58 79 -100q11 -9 23 -15t23 -12q24 -10 62 -16l11 -2l2 -1q11 -2 20 -8q13 -19 13 -40q0 -49 -45 -86q-25 -21 -56 -21l-12 1q-43 -21 -76 -62q-44 -55 -45 -124
q0 -72 46 -106q22 -13 38 -13h-5l12 -1h18l2 1q14 0 36.5 8.5t30.5 16.5q53 36 98 110q11 12 17 17.5t6 7.5q-1 1 -8 1l-8 1q-15 0 -33 -9t-43 -29q-6 -6 -16 -12l-4 -3l-17 -1q-23 0 -43.5 6.5t-20.5 34.5q0 13 7 33l1 1q11 38 52 74l4 5q39 27 71 33l1 1q23 4 46 4
q30 0 71 -8q4 -2 9 -3q12 -2 25 -6l32 -9q26 -10 52 -15l11 -2q37 -10 73 -10q35 0 67 27q19 22 27 60l2 7l3 48q0 8 1 15q15 71 69 71q36 0 61 -54q10 -32 10 -66q0 -59 -22 -115q-1 0 -1 -1q-16 -39 -45.5 -70.5t-71.5 -48.5q-47 -20 -108 -20q-53 0 -115 14q-3 1 -5.5 2
t-4.5 1q2 -3 2 -10q0 -13 -3 -22q-13 -50 -50 -97q-56 -75 -128 -112q-51 -29 -115 -38zM394 1179h-14l11 1zM309 122h-12l-13 1z" />
    <glyph glyph-name="quotesingle" unicode="'" horiz-adv-x="241" 
d="M37 1445q-18 -106 -24 -163t-3 -96.5t12 -93.5q2 -11 4 -23q11 -15 28 -25.5t30 -10.5q27 0 60 31.5t48 71.5q15 85 6 187t-42 168q-25 17 -60.5 3t-58.5 -49z" />
    <glyph glyph-name="parenleft" unicode="(" horiz-adv-x="431" 
d="M290 130q-18 0 -32 9q-3 3 -8 6.5t-10 8.5l-11 11l-10 10q-10 10 -12 14q-1 0 -1 1q-5 6 -11.5 12t-10.5 12.5t-16 18.5q-5 5 -8 9.5t-6 8.5q-8 8 -18 26l-14 19q-5 6 -9 13l-18 27q-4 6 -7 13t-13 25l-17 34q-17 39 -25 72q-1 0 -1 1l-7 28q-4 13 -13 61l-5 37l-2 28
q-5 40 -5 83l1 28q0 28 5 78q4 39 14 82q2 5 3 11q3 17 22 70q15 44 36 79q32 61 87 122q8 8 20 22q15 17 37 36q8 4 24 20q20 40 62 40h23q23 0 56 -26q21 -17 21 -39q0 -15 -15 -40q-7 -10 -11 -21q-6 -8 -10 -17l-2 -6t-13 -25q-20 -40 -26 -55l-31 -67l-11 -26
q-12 -30 -12 -32q-11 -25 -23 -75q-2 -4 -10 -45l-5 -31l-3 -23q0 -20 -3 -40l1 -57q0 -18 4 -42.5t8 -50.5q2 -16 5 -23q6 -31 7.5 -37.5t4 -15t3 -9.5t8.5 -30l13 -43l7 -17l1 -2q3 -11 8 -21l11 -23l9 -13q8 -12 10 -14.5t5.5 -8.5t8.5 -12.5t10 -13.5q2 -4 20 -22
q4 -5 9 -9q19 -19 19 -40q0 -15 -16 -42t-57 -49q-25 -13 -45 -13z" />
    <glyph glyph-name="parenright" unicode=")" horiz-adv-x="430" 
d="M121 130q-20 0 -53 17.5t-56 54.5q-10 17 -10 32q0 27 20 40q6 6 8 8.5t4 4.5t4.5 4t3.5 4q5 4 8.5 10t8.5 11l1 2q8 10 9.5 13.5t11.5 16.5l13 19l11 23q1 4 3.5 9t4.5 12l4 12q8 15 12 33q2 5 3 9.5t2 7.5q9 29 9 31t0.5 4.5t5 19t5.5 23.5l9 49q6 26 6 40q4 24 4 33
l1 8l1 43q0 18 -1.5 27.5t-1.5 18.5l-3 31l-1 2q-6 47 -14 74q-8 35 -23 75q-1 1 -2 4t-2 7q-4 11 -9.5 22.5t-10.5 24.5l-26 58q-4 8 -9 20q-9 21 -18 37q-5 9 -15 29q0 2 -1 3q-3 10 -13 23q-3 11 -10 21q-15 20 -15 40q0 22 26.5 43.5t73.5 21.5q43 0 62 -40
q14 -14 23 -20q26 -22 50 -50q20 -20 50 -60q32 -45 45 -70l5 -10q16 -28 26 -57l5 -12q13 -35 22 -70l2 -11q14 -58 17 -122q3 -25 3 -75q0 -30 -3 -57l-1 -17q-2 -29 -4 -33q-2 -32 -16 -93l-3 -10l-13 -46q-3 -13 -18 -45q-2 -6 -8 -16q-6 -16 -9 -18q-12 -27 -24 -45
l-9 -14l-27 -37v-1q-20 -31 -33 -44q-2 -4 -12 -14q-3 -7 -15 -17l-11 -12v-1l-4 -4q-5 -8 -16 -17q-1 -2 -3 -3.5t-4 -4.5l-17 -16l-8 -5q-9 -9 -31 -9z" />
    <glyph glyph-name="asterisk" unicode="*" 
 />
    <glyph glyph-name="plus" unicode="+" horiz-adv-x="788" 
d="M364 1107q7 1 15.5 0.5t13.5 -2.5q12 -6 23.5 -20.5t15.5 -30.5q1 -7 2.5 -34t2.5 -61q2 -69 7 -150q59 2 126 3h126l23 -11q45 -19 49 -52q0 -7 -0.5 -15t-2.5 -13q-5 -13 -20 -24.5t-30 -14.5q-7 -2 -34.5 -3.5t-61.5 -2.5q-74 -2 -164 -7q1 -18 2 -34q2 -23 5 -56
q5 -60 7.5 -105t2.5 -53q-7 -51 -44 -70q-22 -11 -43 0v0q-28 12 -41.5 53t-22.5 142q-6 60 -10 111q-16 -1 -29 -2q-18 -1 -43 -3q-60 -5 -104.5 -8t-53.5 -2q-50 6 -70 43q-11 22 1 43v1q11 27 52.5 40.5t141.5 23.5q52 5 98 8q-2 51 -2 109v125l10 24q19 45 52 48z" />
    <glyph glyph-name="comma" unicode="," horiz-adv-x="370" 
d="M128 -106q-24 -21 -54 -24.5t-52 5t-21.5 23t37.5 28.5q28 16 29.5 42.5t-10.5 79.5q-5 25 -11 58q-9 46 3.5 77t59.5 57q69 17 98.5 -49.5t11.5 -156t-91 -140.5z" />
    <glyph glyph-name="hyphen" unicode="-" horiz-adv-x="840" 
d="M38 576q-21 -12 -29.5 -34.5t1.5 -40.5q14 -24 47.5 -37.5t104.5 -23.5q59 -7 191.5 -13t255 -8t149.5 2q24 7 43 26.5t19 37.5q0 9 -6.5 21t-15.5 21t-24 14t-52 8t-113 6q-72 4 -166 10t-167 12q-75 6 -118 9t-65 3t-33 -3t-22 -10z" />
    <glyph glyph-name="hyphen" unicode="&#xad;" horiz-adv-x="840" 
d="M38 576q-21 -12 -29.5 -34.5t1.5 -40.5q14 -24 47.5 -37.5t104.5 -23.5q59 -7 191.5 -13t255 -8t149.5 2q24 7 43 26.5t19 37.5q0 9 -6.5 21t-15.5 21t-24 14t-52 8t-113 6q-72 4 -166 10t-167 12q-75 6 -118 9t-65 3t-33 -3t-22 -10z" />
    <glyph glyph-name="period" unicode="." horiz-adv-x="191" 
d="M171 169q0 39 -26 65.5t-65 26.5q-40 0 -54.5 -31.5t-14.5 -71.5q-11 -86 69 -86q39 0 65 28.5t26 68.5z" />
    <glyph glyph-name="slash" unicode="/" horiz-adv-x="439" 
d="M107 73h-8q-70 0 -99 92v12q0 27 7 53l21 68l14 42q27 88 33.5 106.5t12.5 36.5q16 45 18 51l27 74q47 122 80 223l11 31q10 33 22 67q5 21 13 43l18 56q8 24 17 46l11 35q26 69 38 105l40 106q6 20 20 54q3 5 5 10q7 16 16 31q0 7 17 28q20 5 51 5q49 -1 86 -24
q27 -16 27 -49q0 -13 -5 -28q-5 -29 -24 -85q-21 -61 -40 -118l-22 -68q-24 -68 -39 -117q-27 -80 -35 -107l-32 -99q-54 -172 -57 -183l-33 -102q-4 -15 -16 -51q-8 -22 -14 -43q-12 -37 -23 -72.5t-20.5 -70.5t-20.5 -68q-41 -85 -117 -90z" />
    <glyph glyph-name="zero" unicode="0" horiz-adv-x="946" 
d="M437 144q-115 0 -217 78q-56 43 -97 106q-64 100 -98 236q-19 68 -19 157q0 60 6 108q7 73 38 177q24 73 63 142q37 63 80 99q67 55 144 56q45 0 76 -29q0 -1 1 -1v-1h10q31 0 62 -5q84 -13 156 -54q66 -36 123 -93q59 -59 88 -116q33 -63 48 -132q14 -51 14 -104
q0 -100 -38 -213l-2 -7q-19 -57 -48 -108q-27 -57 -65 -108q-81 -113 -188 -159q-68 -29 -137 -29zM257 603l8 14q56 100 153 245q50 74 113 141q-66 36 -126 36q-59 0 -132 -56l-6 -22q-7 -19 -17 -77q-10 -76 -10 -124q0 -54 7 -98zM437 338q36 0 89 33q46 33 91 102
q60 99 76 182q7 37 7 73v13q0 47 -15 86q-3 9 -18 39q0 1 -1 1l-3 -4q-13 -15 -25 -31q-67 -90 -89 -124l-8 -13q-27 -41 -53 -84l-54 -85q-52 -85 -91 -130q1 -2 3 -4l6 -6q41 -48 85 -48z" />
    <glyph glyph-name="one" unicode="1" horiz-adv-x="615" 
d="M242 1396q30 0 59 -8q34 -11 61 -35q25 -23 41 -53q16 -29 26 -60q8 -25 13 -51l4 -16q5 -32 9 -64q0 -5 1 -9q3 -38 4 -77v-3q2 -30 3 -59q0 -13 1 -25q2 -35 2 -70q1 -8 1 -17q1 -43 1 -87q0 -22 1 -45v-41t1 -42v-41q1 -34 0 -68v-11v-12q-1 -31 -2 -63q-1 -35 -3 -69
q-2 -27 -8 -52q23 0 46 -1q92 -9 81 -62t-60 -114q-2 -2 -5 -3q-2 -1 -3 -1q-17 -8 -36 -9q-8 1 -15 1q-10 0 -19 -1h-19q-19 0 -38 -2q-13 -1 -27 -2q-5 -1 -10 -1q-3 -1 -5 -1q-15 -1 -29 -3l-30 -2q-11 0 -22 1q-6 6 -15 12q-25 20 -50.5 44.5t-30.5 48.5t29 42
q15 8 31 13q17 6 34 11l-2 8q-2 5 -4 9q-9 31 -11 63q-3 35 -4 70q-1 24 -1 48q-1 13 -1 26v16q-1 31 -1 62v38q0 23 -1 45v28q0 29 -1 58l-2 86v25v60q-1 21 -1 43q-1 19 -1 38q-2 35 -5 71q-2 29 -7 59q-1 4 -2 9q-4 28 -14 55q-2 -1 -5 -2q-5 -1 -10 -4q-8 -4 -16 -9
q-7 -4 -15 -8q-13 -8 -27 -17q-10 -8 -21 -14l-1 -1q-23 -12 -50.5 -11.5t-44 15.5t-6.5 47q5 18 14 33q9 16 20 30l2 4q10 14 22 27q2 3 5 6q14 17 31 32t36 28q21 13 43 22q28 12 59 12zM480 128h1h2v0h2.5t2.5 -0.5l1 -0.5v0h-23.5h-22h-12.5q-1 0 0 0h8h10h26q1 0 3 1h2
z" />
    <glyph glyph-name="two" unicode="2" horiz-adv-x="773" 
d="M342 85q-30 0 -61 4q-69 7 -109 58q-34 45 -34 100q0 41 16 87q21 53 54 113l35 60q104 168 138 246l2 3q14 29 25 59q20 49 20 60q15 49 15 92q0 62 -27 95q-36 36 -81 36q-6 0 -35 -2.5t-76 -39.5q-23 -20 -36 -49l-9 -31q-4 -20 -4 -41q0 -17 1 -28l5 -25
q-42 -98 -84 -98q-28 0 -57 42q-23 32 -31.5 69.5t-8.5 79.5q0 34 7 68v1q19 89 82 158q38 40 102 74q71 37 155 37q71 0 111 -14q74 -22 121 -68q54 -51 78.5 -117.5t24.5 -145.5q-3 -110 -50 -223q-32 -74 -66 -124l-10 -17q-22 -33 -88 -126q-1 0 -1 -1q-22 -29 -42 -59
q-50 -72 -76 -127v-2l20 3q17 0 75 14q42 9 85 17t87 8q94 0 126 -62q12 -23 12 -45q0 -24 -21 -57.5t-107 -36.5l-129 -26q-38 -8 -47 -8q-66 -11 -107 -11z" />
    <glyph glyph-name="three" unicode="3" horiz-adv-x="710" 
d="M349 89q-52 0 -105 12l-6 1q-97 27 -149 79q-16 13 -30 29q-59 72 -59 138q0 76 38 112q22 11 42 11q27 0 59.5 -27t46.5 -76q-3 -9 -3.5 -10t-0.5 -3q1 -5 3 -10l1 -2q5 -13 23 -28q23 -21 39 -28q3 -1 5 -3q39 -19 85 -19q35 0 75 13l20 7l2 2q26 13 40 45q18 45 18 88
q0 57 -22 114q-20 42 -38 60l-2 4q-69 69 -142 77q-16 2 -30 2q-18 0 -33 -3l-22 -5q-81 6 -114 43q-10 10 -10 23q0 22 30 52q24 22 46 33l2 3q6 9 32 33q81 72 122 131q2 1 3 3q16 26 18 43q2 5 2 10q0 1 -1 4.5t-3.5 6.5t-4.5 5.5t-6 5.5q-46 28 -74 28q-1 0 -16 -1
t-44 -24q-25 -20 -37 -41q-17 -23 -44 -35q-17 -8 -33 -8q-9 0 -24.5 4.5t-22.5 41.5v8q0 12 2 24q21 102 105 158q51 32 113 42q19 1 40 1q78 0 139 -28q58 -24 96 -83q31 -52 31 -120q0 -34 -13 -72l-2 -9q-32 -78 -98 -133q36 -16 78 -45q48 -34 81 -76q51 -63 77 -155
q16 -56 16 -116q0 -26 -4 -52q0 -19 -10 -56q-31 -105 -104 -164q-39 -29 -88 -44.5t-87 -17.5q-6 -3 -48 -3z" />
    <glyph glyph-name="four" unicode="4" horiz-adv-x="701" 
d="M491 62q-21 0 -52 13t-45 71q-5 39 -5 90l1 42q0 69 3 93q2 59 7 119q2 17 3 35q-17 -12 -36 -21q-63 -33 -121 -33q-54 0 -95 18q-104 46 -138 179q-13 48 -13 102q0 72 27 160v2q13 48 46 123q18 41 38 74q30 57 59 93q18 18 45 18q43 0 83 -33q27 -23 27 -49
q0 -9 -3.5 -17.5t-8.5 -18.5q-13 -19 -23 -39l-42 -89l-21 -52q0 -2 -1 -3q-18 -50 -28 -104l-4 -50q0 -21 2 -42q17 -86 51 -86q33 0 92 49q12 10 29 27l29 29q14 16 31 28l6 4l7 45q6 59 17 118q8 60 21 121q2 5 3 11q0 11 13 52q30 91 97 91q54 0 89 -78q-2 -38 -6 -80
q-2 -7 -4 -42l-5 -54l-5 -42q-3 -38 -8 -77l-1 -10q-8 -76 -14 -161q-5 -44 -7 -89q-7 -69 -9 -139l-2 -33q-4 -104 -8 -154.5t-4 -69.5q-3 -32 -9 -63q-19 -50 -63 -68q-23 -10 -45 -10z" />
    <glyph glyph-name="five" unicode="5" horiz-adv-x="825" 
d="M396 65q-65 0 -118 18q-63 19 -100 53q-47 39 -68 99q-14 39 -14 81q0 56 22 100q56 62 102 62q60 0 105 -105q-1 -12 -13 -32l-4 -7q-5 -4 -5 -15q0 -16 5.5 -22.5t10.5 -11.5q34 -20 91 -20q8 0 40 2t85 65q20 30 24 64q0 4 1 11t1 15q0 40 -5 45q-4 18 -12 34
q-16 30 -26 37q-22 29 -59 50q-38 25 -80 33q-31 6 -84 6l-41 -1h60q-26 0 -38 -2q-24 -2 -49 -2h-54q-91 0 -139 70q-32 47 -34 113q0 61 10 122l3 19q11 66 24 113l18 55q2 3 3 7q15 34 35 66l-11 16q4 7 11 12q10 7 21 11q14 7 28 12.5t27 9.5q44 15 63 19q51 14 122 23
q53 5 128 5q24 -1 63 -1q30 -3 61 -3l13 -2q39 -3 98 -12q88 -21 88 -76q0 -34 -34.5 -70t-94.5 -46q-23 1 -47 5t-46 5l-21 2q-16 2 -31 2q-40 6 -106 6h54l-54 1q-54 -2 -67 -3.5t-68 -8.5l-44 -7q-24 -120 -24 -127l-9 -56q-1 -15 -2.5 -31t-2.5 -48q0 -10 6 -11t38 -1
l27 1q81 0 137 -13q49 -10 112 -39l7 -4q58 -30 107 -75q55 -48 84 -105q44 -82 44 -174q0 -77 -38 -152q-33 -64 -88 -107q-49 -40 -119 -62q-63 -18 -129 -18z" />
    <glyph glyph-name="six" unicode="6" horiz-adv-x="868" 
d="M464 126q-35 0 -71 7q-113 23 -205 111q-95 90 -141.5 216.5t-46.5 263.5q0 80 14 160q2 5 3 11q11 60 38 121q62 129 147 184q20 16 43 28q48 25 97 31l23 1h30q44 0 95 -22l5 -3q49 -23 87 -74l3 -4q38 -52 40 -110q0 -21 -3 -42q-5 -36 -28 -72l-3 -4q-8 -12 -19 -23
q-48 -48 -99 -64q-21 3 -43 25q-31 32 -31 62q0 19 16 33q15 17 27 42q5 10 5 22q0 3 -2 7v1q-4 4 -6 8q-30 31 -63 31q-43 0 -92 -53q-27 -32 -46 -72q-23 -51 -32 -95q-11 -51 -11 -114q0 -28 3 -57q0 -20 7 -59q11 -51 25 -84l1 1q19 37 30 51q51 56 128 85q70 27 147 27
q75 0 160 -31q1 -1 3 -1q26 -10 48 -25q49 -31 74 -70t27 -97q0 -69 -29 -133q-10 -21 -22 -40l-2 -3q-62 -89 -139 -127q-39 -21 -93 -37q-49 -13 -99 -13zM461 313q44 0 104 27q23 11 44 35t32 43q9 15 11 34l2 6q0 15 -7 22.5t-29 15.5q-10 2 -19 5q-51 10 -70 10
q-22 0 -75 -18q-16 -5 -49 -21l-42 -17l-1 -1q-25 -3 -40 -3q-8 0 -20.5 1t-37.5 14q21 -37 51 -70q33 -37 63 -55q39 -28 83 -28z" />
    <glyph glyph-name="seven" unicode="7" horiz-adv-x="609" 
d="M331 164q-70 0 -70 109q0 22 11 99q5 30 10 62.5t20 119.5l21 126q8 41 32 219q3 16 9 61l18 125l8 59q2 11 2 22l-8 -1q-29 -6 -52 -13q-40 -10 -79 -24q-38 -10 -72 -31q-1 0 -4 -2l-6 -4t-5.5 -4t-5 -3t-2.5 -5l-3 -13q0 -10 -1 -18t-3 -16.5t-5 -15.5
q-38 -43 -79 -43q-32 0 -50 43l-2 3l-6 18q-8 25 -9 50q0 12 2 25q16 81 100 138q61 43 181 74q68 15 79 19q60 14 70 14q20 2 41 2q36 0 69 -23q44 -38 47 -109v-47q-2 -43 -4 -53l-4 -42q-2 -10 -3 -21q0 -7 -10 -73t-12 -83l-13 -91q-19 -116 -30 -192q-16 -96 -17 -100
t-19 -92q-24 -119 -39 -171q-41 -98 -107 -98z" />
    <glyph glyph-name="eight" unicode="8" horiz-adv-x="782" 
d="M369 82q-69 0 -137 25l-3 1q-66 24 -121.5 73.5t-84.5 120.5q-23 58 -23 120q0 43 15 94q43 130 138 197q-57 70 -73 164q-5 30 -5 69q0 26 4 51q11 69 47 124.5t91.5 93.5t114.5 49q30 8 62 8q86 0 174 -67q52 -48 76 -103q21 -57 21 -118q0 -41 -10 -82
q-15 -55 -54 -124q-36 -60 -80 -92q0 -1 1 -1.5t2 -0.5l48 -27q50 -26 96 -64q50 -43 72 -90.5t22 -97.5q0 -36 -15 -80q-45 -118 -171 -188q-44 -22 -65 -29q-69 -26 -142 -26zM369 781q12 25 55 88q20 29 34 73q9 32 9 50q0 26 -9 45l-2 2q-8 21 -31 38q-22 12 -47 12
q-28 0 -62 -27q-55 -46 -55 -121q0 -18 4 -35q9 -39 27 -61.5t54 -47.5zM369 274q41 0 81 17.5t71 44.5q40 37 40 73q0 13 -6 21q-1 0 -1 1q-15 25 -70 55q-14 6 -43 24q-36 21 -48 27q-68 41 -89 60q-14 11 -19 11q-6 0 -19 -18q-4 -6 -11 -14q-28 -28 -43 -64
q-14 -28 -14 -39q-6 -21 -6 -47q0 -66 62 -114l5 -4q48 -34 110 -34z" />
    <glyph glyph-name="nine" unicode="9" horiz-adv-x="675" 
d="M478 78h-5q-60 0 -76 101q-2 26 -2 51q0 41 3 81v12q4 69 6 82q2 41 3 43q-29 -6 -60 -6q-18 0 -36 2q-66 4 -134 41q-48 27 -63 47q-49 44 -79 103q-35 72 -35 144q2 82 28.5 152.5t82.5 136.5q55 62 118 94q30 18 63 29q60 21 123 22q30 0 60 -5l11 -1q19 0 41.5 8.5
t50.5 8.5q32 0 70 -36q3 0 5 -3t2 -21l-2 -80l-13 -170q-3 -26 -5 -53l-11 -115q-3 -52 -7 -89q-2 -14 -2 -31q6 -7 6 -11l-2 -8l-7 -20q-1 -4 -4 -51l-8 -102l-5 -70q-9 -135 -22 -194q-31 -88 -95 -92zM336 639q35 0 87 17q0 29 9 103q3 47 17 171q6 40 10 76q2 6 2 12
q-31 6 -52 6q-31 -1 -50.5 -11t-38.5 -25q-68 -45 -100 -119q-18 -40 -18 -80q0 -57 45 -106q46 -44 89 -44z" />
    <glyph glyph-name="colon" unicode=":" horiz-adv-x="183" 
d="M70 827q-70 0 -70 104q0 79 70 88q40 0 66.5 -29.5t26.5 -69.5q0 -39 -26.5 -66t-66.5 -27zM70 367q-70 0 -70 104q0 80 70 88q40 0 66.5 -29.5t26.5 -68.5q0 -40 -26.5 -67t-66.5 -27z" />
    <glyph glyph-name="semicolon" unicode=";" horiz-adv-x="235" 
d="M109 804q-70 0 -70 104q0 80 70 88q40 0 66.5 -29t26.5 -69t-26.5 -67t-66.5 -27zM55 213q-19 0 -37 7.5t-18 20.5q0 14 35 28q29 16 29 44q0 25 -10 72q-14 66 -14 89q0 22 9 45.5t54 48.5q13 4 24 4q55 -3 76 -67q12 -34 12 -73q0 -33 -14 -91t-79 -103
q-27 -25 -67 -25z" />
    <glyph glyph-name="semicolon" unicode="&#x37e;" horiz-adv-x="235" 
d="M109 804q-70 0 -70 104q0 80 70 88q40 0 66.5 -29t26.5 -69t-26.5 -67t-66.5 -27zM55 213q-19 0 -37 7.5t-18 20.5q0 14 35 28q29 16 29 44q0 25 -10 72q-14 66 -14 89q0 22 9 45.5t54 48.5q13 4 24 4q55 -3 76 -67q12 -34 12 -73q0 -33 -14 -91t-79 -103
q-27 -25 -67 -25z" />
    <glyph glyph-name="less" unicode="&#x3c;" horiz-adv-x="599" 
d="M501 178q-40 0 -92 46q-30 30 -75 90q-140 187 -243 291q-71 76 -78 90q-13 25 -13 52q0 39 27 81q19 29 96 108t120.5 131.5t89.5 119.5q52 76 63.5 85t31.5 9q60 0 111 -50q31 -30 31 -54q0 -11 -21 -51q-46 -89 -105 -171q-35 -47 -105 -113q-76 -73 -127 -106
q112 -112 217 -244q150 -187 150 -238q0 -20 -28 -51q-22 -25 -50 -25z" />
    <glyph glyph-name="equal" unicode="=" horiz-adv-x="847" 
d="M90 759q-32 0 -56 13q-34 20 -34 56q0 11 5 20q15 25 49 38.5t106 23.5q68 9 225.5 15.5t281.5 7.5q79 0 97 -4q24 -6 43.5 -26t19.5 -38q0 -9 -6 -21q-15 -27 -40 -35.5t-168 -14.5q-205 -11 -338 -22q-164 -13 -185 -13zM90 447q-35 0 -56 13q-34 19 -34 56q0 11 5 20
q15 25 49 38.5t106 23.5q68 8 226 15q186 7 310 7q54 0 68 -3q24 -7 43.5 -27t19.5 -38q0 -8 -6 -20q-14 -27 -40 -36q-22 -7 -168 -15q-135 -6 -338 -22q-152 -12 -185 -12z" />
    <glyph glyph-name="greater" unicode="&#x3e;" horiz-adv-x="600" 
d="M79 178q-29 0 -50 25q-29 31 -29 53l1 10q5 45 150 226q105 132 217 244q-51 33 -127 106q-70 66 -105 113q-59 82 -105 171q-22 42 -22 51q0 23 32 54q21 21 47 34q33 16 63 16q20 0 31.5 -9t64.5 -85q45 -67 89 -119.5t119 -130.5q76 -76 98 -109q27 -42 27 -81
q0 -27 -13 -52q-7 -14 -78 -90q-103 -104 -243 -291q-21 -28 -42 -53q-69 -83 -125 -83z" />
    <glyph glyph-name="question" unicode="?" horiz-adv-x="643" 
d="M240 327h-4q-57 0 -84 54q-4 17 -4 35q0 21 6 60q0 5 8 57q21 104 73 174l4 5q18 26 41 52l55 62q7 7 13 15l21 23q8 11 18 23q8 8 15 19q15 24 23 41v1q8 16 8 20q3 7 3 13v17q-2 30 -17.5 53.5t-32.5 36.5q-48 43 -81 43q-5 0 -24.5 -5t-48.5 -44q-20 -19 -31 -46
l-1 -2q-13 -31 -13 -64v-13q0 -28 14 -55q4 -9 12 -21q5 -14 5 -29q0 -24 -18 -59.5t-52 -46.5q-14 0 -26 5q-30 13 -53 35q-44 48 -59 109q-10 40 -10 73q1 64 21 121q11 29 22 46q0 1 1 1q23 42 56 77v1q33 38 78 64q50 28 102 28l36 -1q35 0 69 -16q67 -30 134 -111
q24 -29 43 -62q19 -37 26 -71q6 -30 6 -54l-1 -19q-8 -65 -49 -135q-22 -35 -35 -48l-6 -7q-11 -14 -22 -27q-7 -7 -12.5 -13.5t-11.5 -12.5q-19 -19 -38 -40l-8 -10t-9 -11t-11 -12q-37 -42 -44 -106q-7 -34 -9 -76q-1 -65 -10 -97q-28 -49 -88 -50zM261 76q-47 0 -75 39
q-7 19 -7 59q2 39 34.5 59t67.5 20h6q67 -4 67 -62l-1 -8l2 -22q1 -4 1 -14q0 -11 -2 -22q-29 -49 -93 -49z" />
    <glyph glyph-name="at" unicode="@" horiz-adv-x="1114" 
d="M505 230q-37 0 -75 6l-11 2q-26 5 -51 13q-126 42 -217 141q-49 54 -82 116q-28 54 -52 136q-17 77 -17 147q0 75 20 147q20 76 48.5 134.5t76.5 117.5q46 54 98.5 91t113.5 63q111 42 202 42q64 0 106 -6q54 -9 117.5 -34t107.5 -58q40 -29 89 -85q6 -3 35 -45.5
t49 -99.5q4 -4 16 -51q13 -59 15 -109q0 -39 -13 -104l-3 -12q-20 -91 -72 -163q-26 -41 -62 -69l-3 -3q-70 -57 -137 -57l-22 -1q-97 0 -166 91q-17 20 -29 45l-3 6q-4 -7 -9 -12q-25 -29 -58 -45q-36 -20 -79 -20q-65 0 -107 36q-65 53 -65 158q0 35 12 87q28 116 102 194
q77 86 185 86q80 0 122 -46q19 -21 23 -47q0 -13 -2 -21l-29 -6q-44 -6 -86 -23.5t-86 -72.5q-15 -19 -33 -60l-1 -4q-7 -17 -11 -36l-6 -35q0 -29 12 -29q16 0 36 37q4 6 8 18l8 15q4 7 5 12.5t3 9.5q4 8 6 20q17 49 64 49q6 0 24 -3q32 -7 61 -65l5 -8l9 -22
q15 -39 27 -63l11 -21q25 -49 56 -49q18 0 39 21q11 10 19 21q17 21 17 25q15 26 26 52l2 7q18 51 18 106q0 33 -12 70.5t-31 70.5q-10 16 -22 31q-32 39 -59.5 61t-66.5 39q-4 1 -7 3q-59 25 -119 28q-63 0 -126 -18l-4 -1q-22 -7 -43 -16q-36 -17 -79 -51q-38 -30 -66 -70
q-59 -83 -69 -187q-3 -18 -3 -51q0 -66 14.5 -121t39.5 -98.5t61.5 -76.5t72.5 -52q40 -21 100 -30l20 -1l17 1h-21l17 1q7 0 9 -1q24 3 45 3q74 0 113 -59q19 -28 19 -56q0 -15 -10 -42.5t-91 -35.5q-43 -8 -106 -8zM501 428h-4h4zM592 1200q-1 1 -3.5 1h-21.5h-17z" />
    <glyph glyph-name="A" unicode="A" horiz-adv-x="748" 
d="M112 0q-47 0 -64 28q-7 12 -7 29q-4 42 -4 61q0 53 2 77q5 96 16 164q16 111 17.5 115t1.5 7l-4 -1q-14 -5 -60 -18q-2 0 -4 -1q-9 -2 -17 -2q-5 1 -76 46q2 22 25 39q5 8 36 23q37 22 117 51l8 2l31 146q10 54 15 70.5t9 31.5q16 70 48 163q17 51 20 56l19 52
q34 77 65 123q21 34 46 59q36 34 68 36l26 -1q9 -1 18 -1q19 -10 33 -27q20 -23 46 -107q6 -15 10 -32l5 -16q24 -70 38 -165l1 -2q14 -82 30 -217q8 -66 8 -83v-3l20 -1l13 -1q44 -13 44 -53q0 -15 -9 -34.5t-31 -26.5q-2 -2 -4 -2.5t-4 -1.5q-10 -4 -20 -6v-11
q4 -50 8 -154l1 -40l5 -79q3 -30 3 -75q0 -54 -26 -75q-15 -11 -31 -11q-13 0 -34.5 11t-30.5 68l-2 13q-3 27 -7 89l-7 91q-5 65 -8 129q-2 19 -2 38q-19 0 -78 -9q-12 0 -59 -8q-61 -10 -109 -21l-25 -132l-4 -29q-6 -33 -11 -68q-7 -47 -9 -64l-11 -87q-3 -29 -9 -60v-4
l-2 -12l-5 -26q-1 -9 -5 -16q-20 -35 -74 -35zM294 672l45 8q47 8 94 13l71 8q-6 66 -13 132l-2 21l-10 71l-5 44l-17 136l-3 17q-5 29 -9 43l-2 4l-39 -102q-15 -40 -29 -81q-18 -53 -42 -142l-35 -151z" />
    <glyph glyph-name="B" unicode="B" horiz-adv-x="729" 
d="M410 45q-68 0 -124 29q-50 24 -76 56l-3 -20v-5q-6 -30 -29 -43q-17 -9 -35 -9q-5 0 -19.5 2.5t-27.5 27.5l-6 13q-30 66 -53 307q0 7 -1 13q-4 50 -6 100l-1 10l-2 96q0 160 13 268l6 53q12 87 17 92l-8 -3q-43 -24 -51 -30l-5 -3l-34 -23q-16 -12 -19 -12
q-16 -10 -38 -10q-9 0 -22.5 2.5t-31.5 21.5l-2 10l2 10q6 26 31 51t32 30.5t12 9.5q18 15 62 42q8 4 15 9q85 49 172 71q60 15 120 17q69 0 121 -11q136 -29 218 -139q35 -50 55 -118q17 -54 17 -110q0 -122 -82 -208q-54 -58 -125 -89l9 -4q53 -24 91 -67t58 -102
q12 -43 12 -89q0 -38 -11 -75q-37 -119 -156 -157q-47 -14 -95 -14zM195 629l44 15q34 11 55 16l58 21l6 3l46 22q77 32 110 101q10 23 10 53q0 61 -19 103q-30 81 -108 114q-48 20 -101 20h35l-19 2h-18q-43 -2 -64 -7l-4 -1l-2 -25l-1 -11q-2 -23 -2 -33l-5 -41
q-7 -60 -12 -120l-5 -75q-2 -33 -3 -67q0 -40 -1 -64v-26zM405 204q35 0 64 17q31 21 31 74q0 54 -33 95q-23 26 -52 44l-4 3q-32 18 -34 18q-48 22 -123 43q-29 9 -59 12q0 -87 4 -147l1 -34l5 -82q12 4 26 4q26 0 75 -20q17 -8 36 -14q37 -13 63 -13z" />
    <glyph glyph-name="C" unicode="C" horiz-adv-x="706" 
d="M399 30q-158 0 -272 159q-47 66 -81 153q-2 9 -5 17q-27 78 -36 160l-2 31q-3 31 -3 61l1 20q4 140 42 244q24 79 71 146q37 56 98 106q48 39 108 64q42 17 107 22q91 0 144 -42q29 -21 56 -60q24 -39 35 -65q13 -30 13 -57q0 -13 -3 -23v-1q-12 -32 -51 -32
q-30 0 -59.5 16t-44.5 46q-39 65 -74 65q-4 0 -16.5 -1.5t-47.5 -24.5q-19 -11 -36 -24q-49 -41 -91 -125q-12 -30 -22 -60q-30 -98 -30 -214q0 -63 21 -145q15 -62 52 -126q75 -126 147 -126q38 0 65 21q32 24 43 35l6 5q21 19 48 57q14 18 15.5 20.5t4.5 4.5q20 19 40 19
q5 0 19.5 -3.5t23.5 -36.5l1 -8l-1 -3q0 -23 -5 -46l-4 -15q-14 -63 -49 -114q-41 -58 -104 -90q-56 -30 -124 -30z" />
    <glyph glyph-name="D" unicode="D" horiz-adv-x="893" 
d="M241 -4q-37 0 -73 42q-39 57 -77 191q-20 77 -31 148q-8 53 -16 163q-3 42 -3 84v50q0 33 1 60.5t3 54.5l1 10q3 52 11 105q3 14 5 27.5t4 24.5q-26 -26 -58 -26q-39 0 -39 29v12q0 8 8 26l7 12q12 24 30 47l6 7q42 44 87 72q39 24 60 31q30 15 61 25q3 0 5 1
q74 24 161 24h26q77 -4 141 -27q131 -48 216 -163q73 -102 91 -255q5 -41 5 -89q0 -54 -7 -110q-13 -70 -29 -123q-26 -69 -50.5 -109.5t-73.5 -91.5q-41 -39 -81 -60l-1 -2q-17 -9 -34 -16q-34 -17 -90 -25q-27 -3 -68 -3q-23 0 -50 6q-45 11 -65 20h-1q-16 7 -30 15l-11 9
l5 -18l9 -30q18 -45 18 -69q0 -55 -45 -73q-14 -6 -28 -6zM462 274l23 3q32 8 49 16.5t34 18.5q34 21 59 53q30 36 47 76l1 2q10 21 16 43q28 86 28 195q0 102 -28 181q-32 100 -118 157q-2 1 -3 3q-89 58 -195 58h34q0 1 -5 1l-43 -1q-30 -2 -58.5 -7.5t-55.5 -15.5l-16 -6
h5q3 -8 3 -16q0 -20 -14 -160q0 -12 -1 -23q-1 -2 -1 -5q-7 -71 -7 -142l1 -78q4 -139 19 -230q10 -68 12 -68q0 -7 3 -14l3 2q16 5 31 13h4q9 0 17 -3q12 -5 16 -9l17 -11q3 -1 5 -3q18 -12 44 -17q11 -4 21 -6q18 -5 34 -7h19zM443 274zM453 273l5 1h-8z" />
    <glyph glyph-name="E" unicode="E" horiz-adv-x="679" 
d="M254 38q-135 0 -201 110q-52 83 -53 199q0 45 9 91q12 66 39 130q41 105 127 199q-53 16 -93 49q-44 40 -62 92q-13 36 -13 75q0 74 45 135q36 47 86 79q49 34 104 50q40 13 82 13q33 0 55 -5q88 -17 132 -78q29 -39 32 -82q-9 -35 -44 -35q-17 0 -39.5 9t-38.5 28
q-4 5 -9 9t-14 9l-6 3q-26 14 -71.5 8t-76.5 -31h-1q-71 -54 -75 -99q0 -48 39 -70q73 -32 156 -34l21 7l40 9q16 4 33 4q43 -2 67 -33q16 -22 16 -46q0 -10 -6.5 -33t-63.5 -38q-38 -13 -69 -29q-44 -27 -72 -50q-34 -30 -66 -73q-45 -71 -68 -148q-14 -50 -16 -97
q0 -22 2 -44q3 -31 18 -70q20 -43 60 -43q37 0 88 34q84 55 126 130q12 21 23 53q24 68 90 68t73 -73q-8 -107 -97 -214q-96 -104 -195 -145q-54 -23 -113 -23z" />
    <glyph glyph-name="F" unicode="F" horiz-adv-x="445" 
d="M233 25q-51 0 -83 89q-32 95 -65 344q-3 26 -7 51q-19 143 -23 190q-7 53 -17 166l-16 206l-35 -7q-19 -4 -38 -10t-50 -6q-76 0 -76 38q0 36 88 86q63 32 184 60l6 1q126 27 270 36q110 5 172 5q85 0 169 -4q90 -1 124 -35q21 -21 21 -42q0 -14 -16 -38
q-22 -36 -182 -36l-115 2h-26l33 1h-19q-160 0 -283 -14l-71 -10q3 -7 8 -42l5 -26q11 -70 11 -74l18 -139q26 6 69 12q81 9 101 9q26 -2 33 -33l1 -12q0 -81 -116 -104l-50 -5l-21 -2l6 -41q6 -57 21 -163l17 -114q23 -167 23 -229q-5 -110 -71 -110z" />
    <glyph glyph-name="G" unicode="G" horiz-adv-x="860" 
d="M416 58q-55 0 -107 13q-69 20 -126.5 69.5t-97.5 123.5q-44 81 -64 160q-21 95 -21 187q3 151 41 282q54 178 163 283q52 50 103.5 75.5t106.5 31.5l32 1q29 0 55 -9q74 -28 113 -106l12 -29q21 -49 21 -80q-2 -31 -21 -44q-14 -9 -28 -9q-7 0 -22 4.5t-27 31.5
q-5 8 -8.5 18t-8.5 20l-5 10l-5 13q-5 12 -14 20q-30 22 -57 22q-39 0 -79 -33q-19 -14 -34 -33h-1q-58 -67 -90 -157l-1 -2q-13 -34 -22 -70q-19 -82 -23 -145l-1 -13q-2 -31 -2 -61q0 -96 21 -170q15 -59 48 -121q35 -57 65 -83q45 -42 113 -42q22 0 44 5q18 7 34 16
q39 23 62 46l2 1q25 26 46 56q13 17 22 34l5 10q29 52 39 111q7 28 7 53q0 31 -7 53l-1 3q-16 44 -56 57q-12 6 -25 8q-13 4 -30 4l-18 -1h9q-46 -2 -80 -16q-18 -6 -42 -18l-11 -6q-43 -20 -72 -20q-60 0 -72 37q-2 5 -2 10q0 22 30 52q21 16 44 28q112 58 207 58
q110 0 178 -56q33 -29 52 -65.5t27 -76.5q3 -20 3 -48q-3 -53 -8.5 -77.5t-11.5 -46.5q-22 -74 -59 -136v-1q-13 -21 -27 -41l-2 -3q-64 -89 -150 -141l-4 -3q-72 -44 -162 -44zM601 672h-22l9 1zM578 672z" />
    <glyph glyph-name="H" unicode="H" horiz-adv-x="779" 
d="M152 190q-66 0 -97 134q-24 129 -36 261q-8 73 -15 179l-1 18q-3 49 -3 98q0 102 11 204l11 64q20 94 78 112q8 2 15 2q32 0 52 -52l2 -49q0 -19 -2 -30l-1 -56q0 -94 3 -139l3 -79l4 -60l21 1l117 9q26 0 49.5 2t44.5 2q60 3 74 3q0 4 1 6v7q9 76 13 98q19 124 62 285
l23 68q13 33 42.5 52t62.5 19q29 0 50 -17t23 -56q-5 -35 -18 -85q-25 -106 -44 -212l-8 -53l-5 -34q-13 -78 -16 -114q-7 -49 -17 -149q-4 -28 -9 -103q-6 -88 -6.5 -115t-2.5 -54q-20 -114 -83 -114q-74 0 -79 190l-1 6l-3 91q0 96 2 126l1 13l-83 -3l-78 -1h-65l-56 1
q4 -23 7 -66q8 -68 20 -151q5 -40 10 -79q4 -22 4 -48q0 -132 -77 -132z" />
    <glyph glyph-name="I" unicode="I" horiz-adv-x="340" 
d="M109 157q-35 0 -67 17q-42 22 -42 51q0 31 58 48l10 3q-4 36 -4 53q-2 32 -3 64.5t-2 67.5q-3 63 -3 150l1 77q0 107 3 149q0 15 3 72q1 35 3 69l2 29q5 78 13 137q-54 15 -54 43q0 20 37 42q30 14 81 17q17 1 69 1q15 -2 29.5 -2t27.5 -6q22 -15 22 -38q0 -6 -5 -24.5
t-47 -30.5v-55l-2 -119q0 -34 -2 -68q-1 -20 -1 -70t-2 -74v-23q-1 -25 -1 -101q0 -45 1 -65q0 -58 1 -81q0 -75 3 -129v-34l1 -32q55 -9 55 -47q0 -27 -31 -61q-29 -29 -99 -29z" />
    <glyph glyph-name="J" unicode="J" horiz-adv-x="711" 
d="M286 61q-47 0 -87 20v1q-21 9 -42 26q-18 14 -36 37q-5 9 -10.5 16.5t-6.5 11.5l-10 16l-10 25q-9 20 -17 56q-4 17 -4 31l-2 31v35q4 64 8 81q3 23 7 39l1 8q18 70 22 70q13 39 41 57q89 0 94 -62q-4 -20 -17 -59l-7 -30q-5 -18 -8 -43q-3 -19 -4 -39l-1 -12v-43
q0 -22 4 -34q0 -9 4 -23l1 -4q2 -8 6 -16q36 -63 72 -63q28 0 68 27l14 11l4 4q10 6 10 11q16 17 34 60l8 30q12 49 12 97l-1 57l-3 51l-14 110l-18 123q-7 32 -11 65t-9 66l-5 30l-11 82q-2 7 -8 55l-2 17q-3 32 -4.5 45t-1.5 26q-1 4 -5 4q-33 -6 -67 -10q-11 -1 -22 -3
t-23 -3l-13 -2q-16 -2 -31 -5q-34 -4 -83 -11l-34 -3q-26 2 -45 21q-23 23 -23 48q0 16 15 26q19 9 57 11q24 2 93 16q17 5 104 20l152 23l96 16q29 6 56.5 8.5t62.5 8.5l55 8l15 -1q26 -18 43 -46q10 -17 10 -31q0 -10 -6.5 -24.5t-57.5 -16.5q-10 -2 -34 -4
q-42 -7 -90 -13l-48 -7l15 -48l5 -22q10 -35 16 -70q15 -76 28 -159l5 -25q6 -30 10 -61l1 -6q9 -63 17 -129q5 -77 5 -122q0 -29 -2 -57q-2 -40 -5 -53q-17 -112 -47 -175l-2 -5q-15 -35 -36 -68q-12 -20 -28 -36q-15 -19 -39 -37l-25 -16q-26 -16 -52 -24q-4 -4 -49 -12
q-29 -5 -54 -5z" />
    <glyph glyph-name="K" unicode="K" horiz-adv-x="879" 
d="M698 78q-56 0 -94 27q-34 24 -68 76q-50 75 -79 199l-16 69q-5 31 -12 62q-6 21 -13 63q-10 48 -13 62l-2 11q-13 60 -15 80q-8 46 -15 75q-3 17 -8 41l-7 27l-29 -29q-36 -34 -90 -52q-8 -2 -17 -3l-10 -2l-2 -24v-10q-3 -82 -3 -86q0 -72 -1 -86v-127q0 -83 -3 -123
q-22 -107 -89 -107q-55 0 -79 100q-13 84 -20 254l-4 87q-4 88 -4 120q-3 78 -4 136t-1 116l1 27l3 65q1 42 12 108q22 101 97 101q23 0 57 -18t52 -67q-2 -34 -2 -118q-2 -9 -2 -37l1 -24q0 -39 -1 -65q-1 -8 -1 -23q-1 -4 -1 -9q10 9 54 55l143 151q25 25 48 51l47 47
l45 42q33 34 74 63h1q31 21 49 21q36 0 64 -22t28 -56l-1 -15l-15 -24h-1q-22 -27 -63 -68q-63 -65 -130 -139l-98 -104h-1q-1 -2 -3 -3q10 -7 19 -15q43 -43 77 -160l20 -69q15 -53 27 -110q1 -7 3 -13q5 -21 9 -43q8 -41 19 -81l13 -59l14 -52q10 -41 25 -79q2 -3 3 -7
q6 -16 14 -32l2 -5q8 -16 17 -16q7 0 18 8q12 12 25 22l5 5l8 3q14 9 36 9q21 0 33 -14q15 -17 15 -44q0 -7 -3 -29t-32 -50q-15 -18 -34 -31q-25 -19 -45 -26q-13 -7 -47 -7z" />
    <glyph glyph-name="L" unicode="L" horiz-adv-x="460" 
d="M363 87q-22 0 -50 6l-37 2q-28 2 -63 11l-10 3q-27 7 -50 20l-3 1q-64 37 -92 117q-10 35 -13 53q-10 41 -15 84q-15 85 -24 203q0 14 -1 27q-5 48 -5 146q2 46 2 91q6 138 20 250l3 22q4 34 17 95q4 12 4 17q6 22 13 43q29 58 73 58q46 0 118 -51q3 -9 3 -18
q0 -19 -3 -49q-4 -22 -11 -94q-6 -57 -9 -115l-3 -65q-3 -21 -3 -68q-4 -60 -4 -118v-84q0 -15 -1 -29l1 -170q0 -36 1 -53q0 -45 2 -72q0 -33 5 -68l1 -3q3 -24 12 -30l9 -4q17 -10 55 -13q7 0 57 -9t70 -49q8 -15 8 -29q0 -21 -18.5 -39.5t-58.5 -18.5z" />
    <glyph glyph-name="M" unicode="M" horiz-adv-x="1014" 
d="M123 78q-14 0 -40.5 7t-26.5 53l-15 62l-3 18q-8 34 -11 60q-9 49 -13 98q-6 44 -8 87q-6 79 -6 158l2 71l1 12q0 49 9 166q1 6 1 13q3 48 13 133q0 13 11 73l1 8q24 133 71 201q23 33 63 57q36 18 70 18q28 0 47 -6q62 -16 116 -109l9 -18q35 -64 53.5 -118t31.5 -132
q9 -58 9 -83q11 35 27 74l7 17l22 50q16 40 36 70q23 39 38 59l3 5q24 32 48 49q0 1 1 1q25 18 50 18h9l25 1q52 -6 88 -50.5t56 -120.5l2 -11q10 -40 18 -106q3 -13 8 -102q3 -39 3 -54l6 -99l5 -129q0 -45 1 -66l1 -134q0 -101 -3 -134q-23 -92 -91 -92q-58 0 -89 82
q-10 51 -18 136l-8 93l-5 87l-1 22q-3 101 -5 129q0 62 -2 100q-1 12 -1 25q0 30 -2 59q-2 34 -3 58t-3 50q-2 37 -12 87q-3 16 -6 16t-18 -23q-24 -42 -37 -67q-20 -48 -38 -94q-6 -15 -28 -87l-15 -54q-4 -15 -7 -29.5t-7 -28.5q-16 -59 -24 -107q-7 -32 -13 -64
q-2 -7 -10 -55q-7 -41 -7 -48l-3 -23q-23 -118 -84 -118q-52 0 -80 114q-7 36 -10 83q-6 70 -6 111q-1 28 -1 57q0 55 1 80q0 41 -1 81q0 90 -3 150q0 27 -10 114q-4 22 -8 43.5t-10 40.5q-20 55 -35 55q-21 0 -42 -118q-5 -21 -8 -43q-10 -66 -16 -132q-5 -43 -11 -155
l-1 -27q-4 -54 -4 -133q0 -99 4 -147q0 -41 11 -131q0 -17 7 -59l16 -146q-5 -33 -44 -49q-24 -10 -48 -10z" />
    <glyph glyph-name="N" unicode="N" horiz-adv-x="915" 
d="M701 -30h-18q-48 12 -91 55q-37 40 -66 84q-37 59 -66 115l-4 7q-25 49 -63 141q-31 74 -61 167l-29 83l-93 270q-1 1 -1 3q-1 -7 -2 -13.5t-1 -12.5l-2 -21q-12 -92 -12 -144q-3 -29 -6 -128q-1 -15 -1 -49l1 -105l3 -88q2 -26 5 -100l-1 -45q-5 -50 -40 -73
q-23 -15 -46 -15q-13 0 -37.5 8.5t-32.5 64.5q-26 96 -34 241q-3 108 -3 163q0 41 2 82l1 38q2 47 8 117q7 85 21 169l3 20l9 48l9 41q0 7 8 37q13 51 41 80q23 23 41 28q12 3 28 3l18 -1h27q28 -9 49 -28q30 -28 55 -76q20 -45 38 -94l3 -6q12 -36 22 -61l24 -67
q25 -64 54 -153q47 -135 58 -164q35 -98 59 -162l17 -42q13 -36 41 -97q24 -55 40 -80l-3 48q-3 47 -10 110q-2 10 -3 21t-11 87q-14 115 -16 139l-1 4q-12 139 -12 240q0 20 1 39q0 56 6 95l2 25q6 44 16 89q10 39 25 78q38 80 81 114q32 27 69 33l32 1q48 0 88 -37
q26 -28 26 -61q0 -30 -19.5 -51t-42.5 -21q-13 0 -27 8q-19 8 -24 8q-12 0 -23 -23l-1 -1q-13 -21 -21.5 -45t-15.5 -68q-2 -4 -6 -40q-9 -66 -9 -142l1 -52q3 -45 3 -56l10 -120l3 -23l4 -39q4 -26 8 -61l2 -13q6 -44 13 -86.5t12 -83.5q9 -61 13 -108q1 -24 1 -60
q0 -81 -25 -123q-33 -56 -78 -62q-18 -3 -43 -3z" />
    <glyph glyph-name="O" unicode="O" horiz-adv-x="953" 
d="M465 60q-58 0 -115 17q-133 42 -227 181q-43 60 -73 141q-50 137 -50 290q0 57 10 125q12 83 39 156q47 117 113 183q45 43 99 70q80 33 165 33q125 0 240 -49q79 -38 150 -131q39 -50 69 -119q24 -58 37 -134q11 -64 11 -144q-3 -107 -37 -212q-43 -138 -131 -247
q-3 -3 -5 -7q-76 -84 -147.5 -118.5t-147.5 -34.5zM461 251q73 0 140 76q31 34 58 83q29 55 41 92l5 15q20 62 27 113q4 36 4 74q0 49 -9 93q-6 44 -26 90l-4 9q-43 95 -115 142q-72 41 -152 41q-92 0 -169 -118q-24 -42 -40 -100q-9 -36 -16 -72q-7 -46 -7 -102
q0 -83 21 -170q17 -62 48 -117q89 -149 194 -149z" />
    <glyph glyph-name="P" unicode="P" horiz-adv-x="684" 
d="M174 -176q-25 0 -51.5 18.5t-33.5 63.5q-12 45 -17 84q-6 24 -9 47t-7 47l-10 74q-5 41 -9 84t-10 88l-9 107q-8 99 -12 207l-4 108q0 53 -2 106q0 195 4 277l1 22q1 25 4 50q5 68 14 99q8 23 32 34.5t52 11.5q28 -1 48.5 -14.5t22.5 -40.5q2 -21 2 -111q71 47 168 47
q54 0 106 -19q57 -18 102 -63q85 -85 103 -231q5 -44 5 -88q0 -83 -22 -167q-18 -62 -44 -104q-26 -48 -68 -83t-97 -52q-48 -12 -97 -12q-78 0 -139 29q0 -25 7 -100l8 -88l15 -136l9 -84l3 -35q6 -66 6 -83q0 -21 -4 -41q-20 -52 -67 -52zM335 587q24 0 55.5 14.5
t57.5 67.5q18 40 23 80q10 50 10 101q-2 58 -11 98q-26 95 -73 120q-26 16 -59 20l-2 1h-14l29 1l19 -1l-10 2l-26 1q-8 -1 -17 -1q-17 -2 -33 -6l-2 -1q-30 -9 -53 -26q-1 -1 -3 -1q-35 -27 -47 -39q0 -124 3 -226l1 -36q1 -75 5 -149l1 -17h2l21 12h5q1 1 9 1q12 0 43 -6
q41 -10 66 -10z" />
    <glyph glyph-name="Q" unicode="Q" horiz-adv-x="983" 
d="M445 210q-109 0 -209 59q-76 45 -131 119.5t-80 177.5q-19 80 -19 166q0 70 11 141q17 105 55 192q36 81 96 154q50 58 112 95q58 37 131 37l18 1q26 0 52 -14q37 -20 39 -50q0 -11 -6 -21q-34 -29 -84 -43h-2q-27 -7 -27 -17q28 7 80 7q105 0 192 -39q84 -34 158 -102
q70 -68 99 -151q26 -73 26 -146q0 -53 -13 -117q-47 -185 -179 -309q-64 -60 -143 -98q-89 -42 -176 -42zM446 396q79 0 175 74q56 43 90 100q39 60 55 125q12 45 12 83q0 20 -3 40q-7 54 -43 105q-39 47 -97 79q-78 44 -143 44h-7h6h-6q-116 -3 -238 -73l-13 -8l-12 -36
q-21 -74 -23 -162q0 -44 4 -87q17 -163 117 -234q60 -50 126 -50zM202 -1q-18 0 -33 8l-1 1q-19 15 -19 31q0 6 2 13q18 62 87 101q33 19 78 30q24 5 79 5q21 0 53 -5q12 0 67 -11q38 -6 47 -6q13 0 36 5q62 14 81 14q60 0 60 -58q0 -48 -59 -93q-57 -25 -117 -25
q-26 0 -70 7q-39 6 -62 13q-41 10 -65 10q-29 0 -46 -6q-4 0 -45 -14q-49 -20 -73 -20z" />
    <glyph glyph-name="R" unicode="R" horiz-adv-x="779" 
d="M668 48q-12 0 -25 2q-89 32 -167 154q-54 88 -78 167q-6 12 -16 57q-19 73 -19 120q-34 2 -64 12q-38 11 -67 28l-9 5l-4 3l2 -17q11 -79 24 -158l23 -124q19 -100 19 -144q-9 -82 -81 -82q-34 0 -66 22q-43 31 -43 92v5l-19 76l-8 41q-17 85 -24 127q-24 138 -35 276
l-6 91q0 19 -4 89l-1 85q5 119 8 150l1 12q10 89 25 152q25 69 80 69q39 0 74 -39q6 -14 6 -29q59 33 133 33q107 0 212 -59q35 -19 49 -34q96 -75 135 -185q18 -56 18 -112l-1 -52q-3 -25 -9 -49q-9 -42 -23 -72l-6 -15q-20 -41 -47 -74q-54 -58 -120 -93q-2 0 -1.5 -4
t12.5 -49l9 -28q6 -22 14 -44q21 -56 31 -76l3 -7q21 -41 47 -79q17 -24 55 -67l27 -28q28 -33 28 -65q0 -21 -13 -42q-25 -41 -79 -41zM382 729q5 0 20.5 1t44.5 24l17 14q28 24 35 39q11 14 16 30q3 5 10 31q6 44 6 52q0 21 -3 37t-8 31v1q-5 14 -12 27l-1 3
q-16 28 -39 53q-44 41 -79 55l-22 9q-27 9 -52 9q-46 0 -93 -19q-9 -4 -16 -11.5t-16 -15.5l-1 -2l-1 -48q0 -34 3 -154q3 -66 9 -132q1 -4 1 -9l10 4q9 -2 18 -2q11 0 23 3q15 -3 29 -3q10 -2 20 -6q4 0 21 -7h1q34 -14 59 -14z" />
    <glyph glyph-name="S" unicode="S" horiz-adv-x="618" 
d="M315 46q-72 0 -139 35q-108 62 -153 194q-10 35 -10 63q0 27 8 54t25 50t39 39q16 5 30 5q25 0 52.5 -18.5t37.5 -55.5q2 -8 2 -16q0 -27 -26 -51q-7 -7 -7 -24q0 -35 33 -79q23 -29 60 -42q23 -9 42 -9q20 0 33 5q36 17 37 61q-1 44 -33 91q-1 0 -1 1q-46 70 -121 130
q-35 31 -71 65q-57 60 -85 106q-68 111 -68 240q1 126 76 237q35 47 84 88q97 83 218 85q13 0 26 -2q78 -3 145 -41q34 -19 75 -63q33 -40 51 -73l5 -11q21 -36 29 -76q9 -34 9 -70l-1 -24q-4 -42 -21 -85l-4 -7q-7 -17 -18 -31l-3 -4q-25 -34 -59 -54q-45 -27 -101 -27
q-70 0 -118 39l-3 2q-28 22 -43 60l-1 1q-8 23 -8 43q0 12 3 24t10.5 22t16.5 13.5t15 3.5q9 0 18 -16t33 -35q21 -7 38 -7q35 0 53 31t18 69q0 21 -11.5 66t-78.5 77q-48 16 -78 16q-6 0 -25 -3t-65 -36q-33 -23 -56 -58q-23 -33 -37 -82q-8 -31 -8 -62q0 -95 54 -167
q30 -42 83 -89q101 -86 156 -168q71 -106 71 -197q0 -92 -52 -154q-65 -79 -181 -79zM320 190l-2 1h-29l20 -1h11z" />
    <glyph glyph-name="T" unicode="T" horiz-adv-x="420" 
d="M219 102q-33 0 -63 18q-44 25 -44 85v3q-16 81 -21 148l-1 4q-11 113 -16 224q-3 52 -3 186l1 28q3 102 10 152l1 16q4 50 9 71l-82 3q-26 2 -57 15.5t-49 36.5q-12 13 -12 30q0 10 5 21q61 40 139 45q21 3 42 4l8 1h144l12 -1q32 0 125 -8l47 -4q25 0 60 -7
q60 -27 60 -66q0 -8 -10 -38t-78 -55q-22 -5 -55 -5q-22 0 -47 3.5t-49 5.5l-16 1v-7q-2 -12 -2 -42q-3 -42 -3 -98q0 -130 2 -160q0 -16 5 -131q2 -20 3 -41l5 -83q5 -80 12 -123l7 -66q4 -37 4 -73v-25q-17 -68 -93 -68z" />
    <glyph glyph-name="U" unicode="U" horiz-adv-x="784" 
d="M417 170h-21q-31 0 -62 4q-111 22 -186 122q-37 44 -68 107q-45 93 -67 212q-13 85 -13 159q0 41 3 81v11q5 73 20 142q14 63 35 126l18 49q45 84 90 84q47 0 78 -50q21 -36 21 -74l-1 -16q-10 -31 -19 -89q-1 0 -7 -44l-10 -99q-2 -31 -2 -83q1 -104 13 -168
q10 -60 26 -111q6 -18 23 -55l4 -9q22 -47 38.5 -69.5t24.5 -30.5q25 -29 61 -29q3 0 23 1.5t56 40.5q12 13 22 28q0 1 1 1q44 60 63 131q2 5 3.5 11.5t4.5 14.5q11 46 18 94l1 8q4 38 4 63q0 35 1 69l-1 11v28l-1 34l-6 56q-3 18 -3 35l-3 30q-2 18 -2 36q0 9 2 19
q20 42 56 42q5 0 31.5 -4.5t40.5 -76.5l7 -26q3 -12 5 -25q3 -24 8 -50t8 -53q6 -31 7 -52l1 -20l1 -36q0 -46 -2 -92q-1 -35 -14 -93l-4 -17q-6 -30 -22 -76v-2q-25 -63 -40 -90q-9 -19 -26 -43q-31 -44 -60 -75q-67 -72 -159 -91z" />
    <glyph glyph-name="V" unicode="V" horiz-adv-x="587" 
d="M365 74q-25 0 -56 16q-34 30 -65 99q-4 10 -9 19q-26 54 -46 110q-2 6 -5 11l-18 51q-22 54 -42 121q-15 40 -29 100q-4 19 -9 37q-46 188 -58 264l-1 7q-8 42 -14 85l-3 30q-8 56 -10 133q0 112 14 159q0 11 11 31q14 17 44 17q48 0 91 -32q28 -20 28 -50q0 -7 -2 -15
q0 -29 2 -45q6 -84 12 -126l11 -79q13 -95 58 -274q11 -44 26 -99l5 -18l4 37q9 80 14 95q2 14 18 94q41 190 103 337q1 5 29 71q37 79 64 121q21 28 49.5 48t55.5 20h4q36 0 62 -46q14 -13 14 -18l-1 -6q-3 -14 -3 -17q-9 -33 -55 -130q-34 -67 -71 -170q-52 -140 -76 -261
q-13 -53 -29 -152q0 -3 -1 -5q-11 -70 -21 -171q-13 -135 -16 -215q0 -28 -2 -50l-1 -40q-2 -20 -7 -40q-24 -54 -69 -54z" />
    <glyph glyph-name="W" unicode="W" horiz-adv-x="1003" 
d="M857 103q-17 0 -39 3h-2q-43 13 -84 59q-46 57 -104 147q-75 123 -143 267l-1 -19q-3 -30 -7 -59q-2 -10 -3 -21q-8 -54 -26 -141q-13 -69 -33 -120q0 -2 -1 -3q-7 -19 -16 -37q-26 -58 -76 -75q-32 0 -65 3q-10 2 -24 13q-28 22 -49 59q-11 21 -35 87l-3 8
q-11 30 -20 61q-10 37 -22 70q-22 69 -47 174q-26 118 -36 199q-21 153 -21 317q0 125 15 224l1 4q4 26 10 52q12 43 40.5 64.5t59.5 21.5q56 0 78 -71q-12 -109 -13 -153q-3 -52 -3 -116q0 -90 8 -181l4 -47q3 -38 8 -76l2 -19q10 -75 30 -166.5t24 -107.5l19 -80
q16 -66 19 -73l1 -4l1 2l13 38l7 21q20 61 33 120l10 44q12 41 17 89q1 1 1 3q11 77 11 130t-13 107q-3 10 -3 21l-1 5q10 69 80 69q73 0 104 -71l11 -31q3 -10 7 -19l35 -103q52 -144 74 -196l23 -52l46 -96q0 -2 21 -42l11 -22q14 -28 29 -54l3 -4l2 31l1 21q2 39 2 77
q-1 156 -2 162q0 34 -3 133q0 45 -1.5 65.5t-1.5 40.5q0 37 -2 74q0 58 -1 71v77l1 32q8 86 61 107q11 4 21 4q41 0 72 -62q3 -25 3 -49v-166q1 -15 1 -61q2 -32 2 -64t2 -65q2 -68 2 -117l1 -19v-220l-1 -33q-3 -90 -14 -149q-13 -58 -47 -89q-30 -24 -64 -24z" />
    <glyph glyph-name="X" unicode="X" horiz-adv-x="776" 
d="M84 -26q-23 0 -39 13t-16 35q0 9 3 20q10 36 14 46l19 57l25 67q50 129 91 218l46 98q16 31 30 62q-24 30 -47 62l-15 22q-17 23 -33 47q-42 59 -44 67q-36 52 -39 63q-31 52 -49 89l-9 18q-21 42 -21 60q0 29 29 51.5t75 22.5q43 0 67 -30l5 -10q8 -11 14.5 -23.5
t15.5 -24.5l62 -98q12 -16 22.5 -33t61.5 -88q6 10 18 36l34 62l9 18l24 41l3 6q57 91 96 135q14 22 47 42l25 1q44 -2 66 -29q10 -12 10 -29q0 -20 -14.5 -48.5t-40.5 -71.5q-18 -33 -25 -43l-49 -85l-7 -14q-13 -23 -25 -47l-14 -27l-47 -94l71 -88q49 -58 102 -114
l98 -102q23 -38 23 -68q0 -31 -27 -52q-23 -17 -52 -17q-36 0 -81 28q-43 30 -116 101l-12 13q-45 45 -99 109q-16 -29 -85 -176q-27 -56 -54 -109q-11 -23 -32 -63q-14 -24 -29 -53q-11 -22 -23 -42q-24 -31 -62 -31z" />
    <glyph glyph-name="Y" unicode="Y" horiz-adv-x="675" 
d="M350 69q-27 0 -53 8q-34 9 -57 27q-26 17 -44 46l-2 3q-18 27 -26 65q-6 25 -6 56q0 34 7 56q27 55 74 55q38 0 61 -49q3 -12 3 -24q0 -77 31 -77q2 0 15.5 1t40.5 32l14 15l12 19q14 24 22 48q6 12 12 37l2 5q10 42 16 87q8 40 8 107q0 48 -3 84q0 39 -3 63q0 8 -1 12
l-3 -6q-22 -44 -55 -83q-76 -91 -167 -108h-38q-74 0 -127 55q-36 40 -57 109q-15 50 -15 68q-11 57 -11 136l1 77q1 6 1 13q2 32 5 63l11 84q11 64 27 117q47 126 111 126q75 0 75 -116v-10l-11 -38q-10 -41 -20 -112q-15 -90 -15 -204q2 -70 11 -117q10 -76 32 -76
q21 0 65 54q31 46 56 101q26 53 41 117q12 47 15 73q10 43 10 55l5 34q1 13 3 25q9 57 9 75l2 15q0 13 1 14l-1 7q0 12 2 22q0 48 41 64q17 7 34 7q73 0 82 -75q8 -32 8 -40q12 -59 21 -146q4 -52 7 -79l1 -16q5 -55 8.5 -108.5t5 -73t2.5 -38.5q4 -44 4 -69l4 -65
q0 -31 1 -61q0 -98 -4 -114q0 -21 -5 -54q-2 -19 -8 -50l-1 -1q-4 -23 -10 -44.5t-12 -43.5q-12 -36 -31 -74q-9 -17 -20 -32q-13 -22 -21 -30l-22 -25q-2 -1 -3 -3q-40 -36 -76 -53q-26 -12 -53 -17q-18 -5 -39 -5z" />
    <glyph glyph-name="Z" unicode="Z" horiz-adv-x="662" 
d="M477 73q-41 0 -85 4q-48 4 -88 4q-26 0 -48 -2t-44 -2q-46 0 -102 6q-38 8 -65 36q-32 38 -32 88q0 24 11 56v1q20 57 44 108q14 29 39 91q11 27 23 54q15 33 27 66q44 107 77 181q6 13 12 28q64 133 85 173l39 75q15 29 31 63l1 2q-23 -6 -48 -10l-53 -12
q-49 -10 -106 -27q-81 -24 -99 -24q-52 0 -83 46q-25 38 -25 76q0 73 80 73l21 -1q40 15 70 24l97 25l120 28l21 4q44 12 100 12q62 0 98 -36q41 -42 41 -103q0 -35 -13 -77l-1 -5q-18 -54 -53 -131q-38 -87 -57 -122q-26 -54 -51 -111q-7 -13 -31 -71l-16 -35l-1 -6
q-34 -76 -73 -173q-18 -46 -35 -80l-29 -66q38 0 74 -2l63 -3q43 -5 66 -5q98 -13 135 -62q23 -31 23 -61q0 -18 -16 -51t-102 -44z" />
    <glyph glyph-name="bracketleft" unicode="[" horiz-adv-x="456" 
d="M236 61q-51 0 -65 3q-41 9 -48.5 10t-16.5 5q-34 17 -45 29q-30 30 -39 69q-7 7 -14 73q0 10 -1.5 19.5t-1.5 42.5q-3 26 -5 355q1 31 1 100q0 89 3 135q1 80 3 109q3 63 3 103.5t4 116.5q0 112 15 179q26 81 111 81q61 -3 76 -8q8 -2 14 -2q54 -11 69.5 -13t31.5 -8
q7 -3 15 -5t14.5 -5t10.5 -4t22 -10q24 -7 33 -22q4 -3 10 -12l-54 -68q-15 -3 -31 -4l-18 1q-3 1 -10 1t-12.5 1t-11.5 1.5t-11.5 1.5t-9.5 1l-8 -1l-29 2q-19 0 -38 2l-20 -2v-58q1 -17 1 -49q0 -20 2 -38t3 -38q0 -61 4 -102q8 -131 8 -325v-46q0 -165 3 -273
q1 -72 3 -99q0 -85 -4 -93h12l-6 1h37q-7 -1 -30 -1q8 0 15 -1q1 1 3 1l3 -1q5 1 19 1q0 1 -8 1q8 0 18 2q26 0 38 -16q18 -23 37 -76q1 -5 1.5 -10t2.5 -11q4 -11 4 -20q0 -6 -4 -13q-13 -10 -109 -13zM163 1337zM148 1336q-4 1 -19 1q-13 0 -13 -1h32z" />
    <glyph glyph-name="backslash" unicode="\" horiz-adv-x="625" 
d="M498 73q-76 5 -117 90q-11 33 -20.5 68t-21 70.5t-22.5 72.5q-6 21 -14 43q-13 36 -16 51l-34 102q-2 11 -57 183l-31 99q-8 27 -36 107q-14 49 -38 117l-23 68q-18 57 -39 118q-19 56 -25 85q-4 15 -4 28q0 33 27 49q36 23 86 24q30 0 51 -5q17 -21 17 -28q8 -15 15 -31
q2 -5 5 -10q15 -34 21 -54l39 -106q12 -36 39 -105l11 -35q8 -22 16 -46l18 -56q8 -22 14 -43q12 -34 22 -67l10 -31q34 -101 80 -223l28 -74q1 -6 18 -51q5 -18 12 -36.5t34 -106.5l14 -42l20 -68q8 -26 8 -53l-1 -12q-29 -92 -98 -92h-8z" />
    <glyph glyph-name="bracketright" unicode="]" horiz-adv-x="456" 
d="M200 22q-96 3 -109 13q-4 7 -4 13q0 9 4 20q2 6 2.5 11t1.5 10q19 53 37 76q12 16 38 16q10 -2 18 -2q-8 0 -8 -1q14 0 19 -1l3 1q2 0 3 -1q7 1 15 1q-23 0 -30 1h37l-6 -1h12q-4 8 -4 93q2 27 3 99q3 108 3 273v46q0 194 8 325q4 41 4 102q1 20 3 38t2 38q0 32 1 49v58
l-20 2q-19 -2 -38 -2l-29 -2l-8 1q-4 0 -9.5 -1t-11.5 -1.5t-11.5 -1.5t-12.5 -1t-10 -1l-18 -1q-16 1 -31 4l-54 68q6 9 10 12q9 15 33 22q18 9 22 10t10.5 4t14.5 5t15 5q16 6 31.5 8t69.5 13q6 0 14 2q15 5 76 8q85 0 111 -81q15 -67 15 -179q4 -76 4 -116.5t3 -103.5
q2 -29 3 -109q3 -46 3 -135q0 -69 1 -100q-2 -329 -5 -355q0 -33 -1.5 -42.5t-1.5 -19.5q-7 -66 -14 -73q-9 -39 -39 -69q-11 -12 -45 -29q-9 -4 -16.5 -5t-48.5 -10q-13 -3 -65 -3z" />
    <glyph glyph-name="asciicircum" unicode="^" 
 />
    <glyph glyph-name="underscore" unicode="_" horiz-adv-x="913" 
d="M6 314q720 -10 814 -10q73 -174 -34 -203q-638 29 -685 29q-94 -20 -101 58z" />
    <glyph glyph-name="grave" unicode="`" horiz-adv-x="271" 
d="M0 1421l67 53q158 0 184 -198q-40 -158 -184 -158q-40 53 -67 303z" />
    <glyph glyph-name="a" unicode="a" horiz-adv-x="681" 
d="M583 -26q-8 0 -15 1t-22 16l-10 15q-19 26 -37 84q-1 6 -3 11q-20 76 -31 168q-2 17 -2 33l-3 -4q-58 -83 -127 -122h-1q-52 -30 -110 -30q-88 0 -148 66q-74 78 -74 233q8 154 89 283q42 68 90 109q0 5 50 38q70 42 159 43q64 0 109 -30q10 -5 25 -20q0 -1 1 -1
q24 -26 24 -52q0 -13 -2 -17t-6 -9q-18 -21 -97 -21h-13q-51 0 -93 -14q-55 -31 -99 -98q-63 -105 -67 -216q0 -46 14 -84q15 -43 46 -43q28 0 84 51q0 1 1 1q25 23 74 84l22 27q9 14 19 26t18 25l13 20q0 16 4 36q4 29 11 54l9 17q10 19 46 19q10 0 26 -2q36 -6 36 -25
l-1 -6q0 -1 1.5 -2t5.5 -5q4 -7 4 -23l-1 -28l-1 -101q0 -75 4 -119q0 -18 6 -80q8 -60 12 -75q11 -68 27 -122l3 -10q7 -17 8 -34q0 -38 -30 -55q-22 -12 -48 -12zM432 650q-1 1 -2.5 1h-2.5t-1 1l3 3q1 0 1.5 -0.5t1 -2t0.5 -2.5z" />
    <glyph glyph-name="b" unicode="b" horiz-adv-x="695" 
d="M157 44q-12 0 -36 5q-42 9 -64 103q-25 91 -38 218q-12 96 -15 167q0 24 -2 48q-2 40 -2 128q0 75 7 173l11 107q8 91 31 182q22 82 37 97q7 12 16 21q38 16 63 17q76 -2 76 -105q0 -26 -8 -53l-13 -68l-9 -66q-12 -80 -19 -224v-12q47 47 107 80t133 33l34 -1
q65 -9 111 -44t74 -96q24 -58 24 -126q0 -33 -6 -67q-11 -72 -39 -131q-64 -136 -181 -206q-31 -16 -64 -27q-42 -13 -89 -13q-32 0 -61 8l2 -13q4 -28 4 -57l-2 -24q-2 -13 -5 -20q-8 -15 -38 -26q-19 -8 -39 -8zM283 317q52 0 104 46q39 31 63 73q54 95 58 191
q0 79 -48 105q-13 7 -28 7l20 1l-10 1q-18 0 -26 -2h-2q-25 -3 -58 -22q-40 -22 -78.5 -57.5t-84.5 -96.5l1 -17q10 -142 21 -206v-3q34 -20 68 -20zM415 739z" />
    <glyph glyph-name="c" unicode="c" horiz-adv-x="664" 
d="M353 134q-116 0 -210 94q-45 47 -77 107q-66 117 -66 261v15q9 160 86 259q37 48 90 85t105 49q29 6 60 6q48 0 88 -20q45 -22 67 -65q19 -34 19 -75l-3 -38q-10 -57 -63 -99q-12 -10 -15 -14q-8 -8 -19 -8q-13 0 -29 6q-31 13 -31 36q0 7 3 15q6 12 6 17q6 20 7 31v15
q-9 34 -40 34q-46 0 -101 -63q-28 -34 -42 -75q0 -1 -1 -1q-7 -24 -11.5 -49.5t-4.5 -61.5q0 -43 14 -96q13 -47 41 -95q61 -100 128 -100q60 0 124 79q26 39 35 57l11 19q22 35 55 35q30 0 59 -26q2 -2 2.5 -7t1 -11t1.5 -9l1 -20q0 -77 -55 -156q-40 -56 -94 -88
q-66 -43 -142 -43z" />
    <glyph glyph-name="d" unicode="d" horiz-adv-x="618" 
d="M505 55h-5q-69 0 -85 198q-67 -37 -147 -37q-129 0 -204 92q-45 55 -57 126q-7 36 -7 85q0 95 36 190q29 66 67 110q84 92 206 92q20 0 40 -2l47 -11q0 43 1.5 70t1.5 52q2 66 11 162q6 68 19 131q9 39 16 50q2 13 11 21q19 17 47 17q27 0 45 -21q7 -11 9 -24l1 -6
q5 -22 7 -45q3 -36 3 -94l-1 -36q-2 -70 -2 -136q-1 -25 -1 -71v-245q0 -45 1 -74v-155l4 -207l2 -66q0 -159 -66 -166zM279 386q4 0 7 1q9 0 12 1h-5q25 2 63 18q6 3 13 5q28 13 32 17h1q-1 32 -3 63q-4 79 -4 215v19q-2 0 -4 2q-47 27 -85 27q-39 0 -69 -31
q-27 -27 -43 -66q-14 -33 -14 -46q-10 -40 -10 -82q0 -38 9 -66q22 -66 68 -75h46l-4 -1l-17 -1l-21 1q7 -1 21 -1h7z" />
    <glyph glyph-name="e" unicode="e" horiz-adv-x="668" 
d="M288 165q-58 0 -116 25q-63 28 -105 85q-67 97 -67 248q0 91 22 178q22 81 56.5 141t86 110.5t109 80.5t113.5 37h56q27 -1 54 -9q110 -41 141 -152q10 -34 10 -75q0 -69 -30 -133q-21 -49 -65 -102q-9 -14 -42 -45q-109 -95 -216 -132q-54 -18 -99 -20q1 -1 2 -4t2 -7
q8 -17 21 -32q34 -38 73 -38q38 0 74 21q21 11 40 23q31 20 36 25q30 27 62 44l7 4q16 3 31 3q21 0 45.5 -8.5t29.5 -54.5q-6 -25 -20.5 -47t-34.5 -40q-93 -84 -212 -119q-32 -7 -64 -7zM175 519q2 0 3 1q10 0 43 12q81 34 168 116q36 37 57 70q32 58 33 108q0 30 -18 63
q-9 14 -21 17h4h-19h14q-9 3 -25 3q-17 -2 -17 -3h28q-36 0 -85 -31q-88 -60 -129 -158q-36 -85 -36 -198z" />
    <glyph glyph-name="f" unicode="f" horiz-adv-x="328" 
d="M173 162q-78 0 -109 214l-1 9q-13 81 -13 105q-9 75 -9 155l1 68l1 6q-11 -2 -21 -2q-14 0 -25 5q-34 14 -41 32q-5 11 -5 22q0 19 10 29q17 16 93 41q11 76 32 137q24 72 69 136q72 98 175 123q30 6 53 6q49 -7 49 -47q0 -37 -41 -59l-7 -2q-28 -4 -50 -23
q-48 -44 -75 -113q-22 -53 -33 -120q100 -15 100 -74q0 -46 -92 -61l-22 -4q-1 -23 -1 -47q0 -78 21 -246q13 -91 17 -161q-6 -129 -76 -129z" />
    <glyph glyph-name="g" unicode="g" horiz-adv-x="666" 
d="M348 -377q-36 0 -55 8l-19 8q-13 4 -23 12l-28 20q-15 11 -34 36l-3 3q-16 22 -16 26q-12 20 -16 44l-2 7l-1 15q-1 14 2 25q0 22 7 44l1 1q3 14 9 27q27 59 70 59q34 0 34 -38q0 -13 -4 -31q-4 -7 -6.5 -15.5t-4.5 -16.5q0 -28 2 -33l4 -10q4 -14 8 -19l1 -3
q5 -10 14 -19q27 -27 52 -27q20 0 39 17q4 4 20 24l14 19q11 17 24 55q1 1 1 3q14 37 19 97q3 24 5 58l1 20q0 103 -1 130v53q-1 15 -1 107q0 -1 -1 -1q-28 -46 -69 -87.5t-90 -67.5q-45 -24 -96 -24q-111 0 -166 87q-16 30 -26 62q-13 52 -13 106q0 94 38 201q1 1 1 3
q15 39 33 77q74 145 196 219q53 31 108 39q25 3 60 3q39 0 71 -9q131 -44 140 -144q0 -12 -1 -23q0 -48 -3 -87l-1 -20l-1 -42q-1 -5 -1 -21q-3 -48 -3 -99q-3 -43 -3 -112l-1 -53q0 -26 1 -48l1 -145q0 -53 -2 -79q0 -26 -3 -53q-2 -44 -11 -88l-3 -13q-12 -47 -14 -52
q-13 -41 -32 -81q-30 -48 -41 -62q-3 -2 -5 -5q-12 -14 -26 -25q-28 -26 -48 -34q-2 -2 -5 -3q-43 -24 -97 -25zM239 321q39 0 74 32l8 7q24 19 58 59l35 49q20 34 22 40l31 56l1 17q1 29 4 58l3 34q2 43 12 94q-12 56 -52 56h-5q-37 -4 -61 -31q-19 -11 -35 -26
q-64 -64 -97 -145q-28 -59 -45 -131q-10 -49 -10 -81q0 -78 41 -86q8 -2 16 -2z" />
    <glyph glyph-name="h" unicode="h" horiz-adv-x="595" 
d="M105 82q-14 0 -39 11q-35 15 -46 140q-10 91 -10 113q-5 60 -7 120q-3 45 -3 117q0 60 6 183q4 81 11 158l5 50q13 134 31 206q14 65 28 98q31 62 83 62q36 0 59 -47q3 -17 4 -35q0 -37 -7 -100l-19 -177q-7 -79 -8 -102l-4 -54q3 3 7 9q36 42 90 77q18 9 38 17.5t50 8.5
l18 -1q55 0 95 -43q33 -35 51 -81q37 -81 38 -206q0 -74 -9 -179q-8 -95 -19 -142q-18 -47 -57 -63q-18 -8 -36 -8q-20 0 -48 15q-38 19 -38 103q0 45 7 110q5 35 8 70l7 67l1 16q2 22 2 44q2 14 2 52q0 22 -1 43q-2 30 -14 59q-9 15 -20 15q-19 0 -47 -28q-32 -28 -73 -86
l-30 -47l-18 -31l-11 -16v-163q0 -93 2 -133q0 -49 1 -72l1 -33q0 -78 -41 -104q-20 -13 -40 -13z" />
    <glyph glyph-name="i" unicode="i" horiz-adv-x="242" 
d="M71 1002q-2 0 -30 1t-41 58v59q0 18 1 26v7q10 86 77 86q26 0 46 -16q27 -23 27 -75q3 -21 3 -39q3 -22 3 -48q0 -11 -3 -22q-33 -37 -83 -37zM140 100q-48 0 -79 64q-25 83 -37 263l-3 32q-4 66 -5 68q-7 118 -6 168q0 64 2 99q6 56 33 81q24 21 53 21q37 0 61 -30
q19 -23 19 -60l-1 -14l1 -53l3 -62q1 -21 3 -41l4 -66q4 -38 6 -76l18 -185q10 -82 10 -126q-16 -83 -82 -83z" />
    <glyph glyph-name="j" unicode="j" horiz-adv-x="327" 
d="M145 1020q-33 0 -67 11q-18 17 -18 49l1 34l1 7q0 10 1 19q1 4 1 9q4 29 34 41q24 10 58 10q26 0 47 -10.5t25 -33.5q1 -6 1.5 -19.5t0.5 -51.5q0 -37 -19 -54q-32 -11 -66 -11zM70 -333q-51 0 -93 19q-22 11 -51 36.5t-52 67.5l-2 3q-13 29 -19 58l-2 11q-4 12 -4 21
q-2 13 -2 26q0 17 1 25l1 4q19 41 56 41q5 0 29.5 -3.5t44.5 -42.5q0 -3 1 -7.5t1 -10t2 -19.5l1 -6q2 -17 8 -30q14 -24 18 -29t10 -11q33 -26 51 -26q17 0 41 27q8 13 8 20q8 32 8 60q0 43 -2 86q-3 26 -6.5 53.5t-6.5 57t-7 58.5v5l-13 93l-10 93l-5 39l-9 99l-14 216
l-1 27q-2 25 -2 60q0 33 1.5 44.5t1.5 21.5q5 28 31.5 42.5t60.5 15.5q82 0 102 -49l6 -30q8 -37 15 -89l3 -24q17 -144 17 -169q3 -27 4 -53q5 -49 5 -99q7 -133 7.5 -154t0.5 -72l2 -67q0 -23 -4 -103l-8 -71q-16 -100 -54 -169q-17 -31 -42 -51l-5 -4q-48 -41 -124 -41z
" />
    <glyph glyph-name="k" unicode="k" horiz-adv-x="587" 
d="M158 52q-28 0 -55.5 21.5t-28.5 69.5q-5 35 -12.5 112.5t-9.5 129.5l-3 36l-7 109q-8 107 -11 153t-3 78q-7 92 -10 156q-6 105 -7 149l-4 67q-3 75 -6 110l-1 38q0 12 2 25l1 2q1 7 5 13q46 36 84 36q53 0 67 -100q6 -38 11 -97q4 -34 5 -68l2 -18q2 -57 5 -87.5
t5 -61.5q3 -57 5 -77l5 -72q0 -18 2 -35v-1l51 45l32 30q24 22 30 30q18 18 26 28q11 15 24 27q25 15 52 15q63 0 87 -50q5 -10 5 -21q0 -29 -35 -64q-22 -30 -57 -63v-1l-43 -40l-26 -21l1 -2q20 -20 45 -65q0 -2 27 -56q32 -76 46 -107t34 -70q30 -50 82 -66
q20 -6 30.5 -15.5t10.5 -30.5v-8q-17 -27 -46 -42l-4 -1q-9 -6 -60 -6q-49 5 -98 54q-25 30 -47 63l-22 38t-21 40l-39 84l-21 49q-12 32 -25 51q-2 4 -5 7l-4 -2q-7 -7 -18 -11q0 -23 2 -46.5t4 -48.5l8 -137q3 -31 3 -62q3 -25 3 -64q2 -24 2 -48q-1 -25 -5 -49
q-20 -52 -70 -52z" />
    <glyph glyph-name="l" unicode="l" horiz-adv-x="278" 
d="M140 118h-24q-22 0 -48 76q-8 38 -15 77t-14 79t-12 81q-15 131 -18 178q-9 120 -9 236q0 62 2 105v29l6 150l4 59q0 20 4.5 48.5t32.5 46.5q31 19 70 19q30 0 54 -14.5t24 -50.5q4 -47 4.5 -49.5t3.5 -59.5l1 -92v-21v-67v-195q0 -57 2 -113l1 -59l2 -53q0 -34 2 -68
l4 -96q0 -32 8 -136l1 -31q0 -33 -2 -41q-41 -38 -84 -38z" />
    <glyph glyph-name="m" unicode="m" horiz-adv-x="918" 
d="M110 56q-13 0 -33 8q-32 11 -57 160q-10 64 -16 140q-4 53 -4 107q0 70 5 138q7 91 17 151q10 66 32 127q47 130 139 167q32 11 59 11q71 0 130 -66q56 -63 93 -202l1 -3q16 44 44 91q52 83 129 124q42 20 81 20q29 0 57 -12q42 -21 65 -58t33 -82q7 -28 12 -93l1 -52
v-56q0 -28 -3 -121q-1 -7 -1 -15l-5 -112l-1 -50q0 -98 -11 -137q-21 -61 -65 -61q-42 0 -62 60q-8 30 -9 61l-1 76l1 54q0 37 2 65l2 64q3 30 3 116q-1 176 -34 176q-20 0 -53 -77q-18 -35 -31 -71l-5 -14q-16 -54 -29 -107q-5 -19 -18 -90q-7 -35 -13 -71q-3 -22 -7 -43
q-2 -8 -6 -36q-2 -13 -7 -26q-6 -23 -28 -33l-58 -9q-35 3 -49 63q-23 182 -80 366l-4 15q-16 57 -29 93q-23 46 -40 46q-25 0 -42 -102q-21 -104 -25 -234l-1 -20q0 -28 1 -55q4 -131 8 -153q8 -89 15 -141l5 -28q-2 -11 -23.5 -30.5t-52.5 -31.5q-17 -7 -32 -7z" />
    <glyph glyph-name="n" unicode="n" horiz-adv-x="721" 
d="M96 120q-25 0 -54.5 18.5t-34.5 70.5q-7 66 -7 196l1 22q1 76 6 157q0 18 2 37q3 81 21 166l12 45q13 46 37 79q37 55 101 55q18 0 37 -5q38 -14 72 -50q21 -23 47 -64q30 -45 56 -99l12 -25q8 -16 15 -33q21 -47 26 -63q20 -45 27 -66l48 -116l4 58q3 48 3 85l1 36
l-1 19q0 39 -1 52q0 57 3 96v43l-1 14q0 14 3 28q18 56 59 56q33 0 55 -48q7 -19 10 -42t11 -61q14 -66 18 -131l6 -56q10 -71 11 -138q0 -20 -5 -79l-1 -3q-7 -88 -45 -141q-40 -52 -103 -52q-62 0 -108 51q-31 29 -63 91q-35 70 -79 184q-2 7 -5.5 15.5t-43.5 112.5
q0 2 -1 3q-17 50 -40 94l-3 6l-16 -128q0 -6 -1 -11q-4 -51 -6 -99q0 -14 -4 -98q-3 -101 -5 -136l-4 -62q-1 -15 -3 -29q-13 -55 -69 -55z" />
    <glyph glyph-name="o" unicode="o" horiz-adv-x="591" 
d="M292 161q-80 0 -149 50q-52 40 -81 102q-62 117 -62 257q0 82 23 163q2 4 3 9q8 29 20 57q79 150 218 150q57 0 112 -27t96 -79q74 -94 94 -217q5 -32 5 -74q0 -24 -3 -49q-6 -65 -25 -119q-25 -63 -50 -102q-31 -48 -77 -82q-60 -39 -124 -39zM288 328q5 0 22 7t48 63
q10 16 17 34v2q18 47 23 83l1 3q3 17 3 33q0 31 -4 54q-6 41 -26.5 82.5t-42.5 64.5q-44 38 -69 38q-27 0 -48.5 -49t-29.5 -105q-6 -35 -6 -71q0 -98 49 -188q37 -51 63 -51z" />
    <glyph glyph-name="p" unicode="p" horiz-adv-x="628" 
d="M150 -74q-52 0 -84 84q-7 26 -12 52l-3 17q-20 105 -29 195q-10 68 -20 244q-2 54 -2 123q0 128 14 216q8 64 26 117q32 78 79 78q34 0 56 -29.5t22 -69.5l-1 -14l-7 -43q0 -8 -2 -16q73 42 155 42q87 0 146 -44q45 -31 77 -86q30 -51 40 -116q3 -30 3 -70
q0 -50 -12 -100q-8 -48 -29 -92l-5 -10l-17 -32q-26 -39 -61 -63q-63 -47 -138 -47q-54 0 -112 26l-39 21l17 -136q2 -17 5 -35t5 -36l4 -27q4 -20 6 -39q-7 -110 -82 -110zM340 427q28 0 50 25q2 3 5 5q13 18 20 43q13 45 16 74q3 17 4 34q0 49 -10.5 79t-34.5 53
q-35 29 -69 29q-35 0 -75 -19q-31 -13 -65 -47q-2 -5 -7 -7v-42q0 -46 1 -61v-10q16 -38 46 -73q20 -24 25.5 -28.5t9.5 -8.5q47 -46 84 -46z" />
    <glyph glyph-name="q" unicode="q" horiz-adv-x="618" 
d="M517 -244q-52 0 -81 91q-17 65 -27 187q-10 85 -15 167q-5 60 -5 77q-57 -37 -133 -37l-23 1q-74 9 -126 48t-82 108q-25 59 -25 131q0 44 8 87q15 72 56 145q37 68 89 114q46 44 105 69q54 22 104 22q21 0 42 -4l5 -1q0 7 2 10q19 48 62 48q28 0 55.5 -18t38.5 -49
l-1 -12q0 -33 -2 -66l-1 -18q-5 -187 -5 -214v-60q1 -35 1 -70.5t1 -71.5q2 -28 4 -102l7 -118l7 -106l7 -90q13 -109 13 -159q-12 -109 -81 -109zM252 409q4 0 28.5 4t59.5 58q13 21 26 56q5 15 13 30l2 4l1 146q1 9 1 19q2 72 7 104l-1 -1q-41 -5 -80 -26.5t-72 -60.5
q-73 -85 -73 -205q2 -52 20 -84q30 -44 68 -44z" />
    <glyph glyph-name="r" unicode="r" horiz-adv-x="634" 
d="M190 180q-11 0 -36 6q-41 12 -66 124l-16 76l-15 77q-6 30 -18 102q-12 68 -20 137q-3 39 -7 77q-9 108 -12 189v43q4 32 32 47.5t64 15.5q37 0 64.5 -15.5t30.5 -45.5q0 -11 1 -20t1.5 -19t1.5 -20l3 -29l4 -53l3 4q45 58 87 80q30 16 70 16q58 0 109 -30
q49 -36 69 -62.5t39 -73.5l17 -52l13 -58q5 -27 5 -59q0 -22 -8 -42q-4 -16 -18.5 -23t-20.5 -12l-14 -11l-51 -6q-8 6 -15 9l-26 8q-6 1 -9.5 3t-12.5 14q-22 32 -30 92q-3 30 -10 59l-4 17q-15 64 -49 64t-77 -62q-21 -33 -25 -49q-14 -27 -17 -39l-2 -3q2 -8 2 -15
l15 -118l5 -35l5 -42l5 -34q0 -3 1 -5q15 -105 15 -144q-5 -48 -37 -69q-22 -14 -46 -14z" />
    <glyph glyph-name="s" unicode="s" horiz-adv-x="594" 
d="M312 80q-114 0 -201 61q-46 32 -74 71q-31 47 -33 93q13 60 53 60q2 0 24.5 -1.5t67.5 -38.5q19 -26 40 -44l6 -5q13 -11 27 -18q45 -26 88 -26q41 0 73 29l5 19q1 5 1 11q0 19 -20 47q-15 21 -51 49l-10 9l-28 21l-38 27l-15 9q-14 9 -30 18q-12 6 -47 30l-5 4
q-22 15 -43 33q-47 41 -74.5 95t-27.5 117q0 65 35 128q34 59 86.5 92.5t124.5 33.5q71 0 126 -39q37 -30 55 -72q15 -32 15 -64q0 -44 -29 -79q-31 -27 -53 -27q-1 0 -13 1t-43 39q-4 5 -4 11v14v14q0 9 -1 10q-3 6 -4 7.5t-2 2.5l-2 2q-20 21 -37 21q-35 0 -55 -39
q-12 -26 -12 -48q0 -13 6 -27q10 -29 55 -63q7 -7 40 -27q8 -4 15 -9l47 -28q61 -40 78 -54q51 -40 83 -79q63 -80 63 -172q0 -25 -6 -50q-27 -112 -145 -153q-53 -16 -111 -16z" />
    <glyph glyph-name="t" unicode="t" horiz-adv-x="454" 
d="M276 201q-60 0 -107 35q-58 43 -90 145q-16 45 -24 101q-1 10 -3 19l-5 39q0 12 -2 24q-5 43 -5 139l2 34q1 34 5 69t6 41q-14 0 -56 -13l-21 -5l-13 -1q-10 6 -22 11q-46 16 -46 39q0 15 34 39l2 1q43 26 107 44q32 8 39 8l1 6l6 21q7 41 23 74q27 53 64 53
q49 -1 86 -68l-5 -24l-7 -33l-3 -12q0 -2 -1 -3l10 -1q32 0 53 -1t41 -4q42 -2 70 -11q19 -14 19 -35q0 -4 -3 -20.5t-25 -39.5t-50 -27l-30 3q-49 6 -71 7l-32 1l-1 -5q-2 -24 -5 -47q0 -14 -2 -24q-5 -65 -5 -88l-2 -24q0 -88 3 -117q0 -12 4 -52q4 -22 7.5 -43t8.5 -40
q7 -31 22 -58.5t36 -27.5q18 0 39 36q10 16 12 22q20 50 42 50q25 0 31 -90q-1 -2 -1 -5v-6q0 -33 -25 -77q-20 -30 -47 -44.5t-64 -14.5zM241 856q-8 0 -15 1h-3v-1h18z" />
    <glyph glyph-name="u" unicode="u" horiz-adv-x="713" 
d="M327 151q-95 0 -173 56q-48 40 -82 96l-9 17q-39 68 -57 172q-4 37 -6 73q0 79 13 144q15 84 60 182q38 76 67 103q7 5 19 5q37 0 82.5 -33.5t45.5 -66.5q0 -17 -15 -34q-19 -43 -32 -96q-15 -62 -18 -122l-1 -34q0 -54 9 -94q7 -44 12 -49q17 -50 33 -79q35 -56 78 -56
q38 0 95 52q28 30 44 61q20 34 30 73q16 52 16 105q0 46 -7 95l-1 3q-7 42 -22 88q-17 54 -29 79l-10 21q-10 18 -10 30q0 32 27 53.5t66 21.5q70 0 78 -72l17 -48l15 -51q24 -100 28 -153l3 -70q0 -65 -20 -138l-16 -49l-5 -12q-25 -64 -69 -122q-71 -94 -157 -130
q-48 -21 -99 -21z" />
    <glyph glyph-name="v" unicode="v" horiz-adv-x="575" 
d="M270 128q-18 0 -34 3q-37 7 -71 66q-19 35 -25 55q-17 39 -30 82l-6 16q-2 13 -29 96q-43 152 -56 231q-17 92 -19 184l1 40q12 135 66 135q41 0 83 -92l2 -29q0 -20 7 -69l2 -15q23 -151 62 -283q12 -44 25 -86q9 -24 10 -32l5 17q16 70 40 138q5 19 30 83
q41 102 98 202l15 27q29 50 59 96l1 2q38 59 74 87q35 20 65 20q49 0 67 -43q6 -13 6 -28q0 -31 -25 -69l-61 -97q-6 -11 -13 -21q-54 -89 -88 -162q-25 -53 -57 -135q-9 -27 -35 -117q-7 -21 -22 -81q-25 -104 -48 -153q-14 -30 -39 -51l-3 -2q-19 -13 -25 -14t-32 -1z" />
    <glyph glyph-name="w" unicode="w" horiz-adv-x="879" 
d="M246 142h-17t-30 9q-27 15 -46 38q-22 28 -53 89q-62 130 -83 275l-2 8q-12 80 -14 164l-1 10v24q0 80 13 177q27 107 80 107q49 0 83 -43q24 -31 24 -65q0 -11 -3 -23l-5 -42l-1 -7l-3 -62q0 -120 16 -225q19 -114 45 -194l1 -4q19 62 22.5 73t12.5 44q13 43 14 53
q3 14 7 27q8 26 12 45.5t8 34.5q4 27 17 49q19 28 40 32q10 2 23 2q16 0 36 -3q10 -2 24.5 -16.5t27.5 -40.5q0 -1 1 -1q32 -71 34 -81q4 -8 7 -17l39 -91q39 -77 56 -105v-1q12 -20 25 -39l5 -5l10 48q8 50 12 95l8 82l4 63q3 32 3 67q2 32 2 65q0 62 6 108l1 8
q26 92 83 92q52 0 66 -96v-4q3 -19 3 -38l-2 -49q0 -29 -2 -57l-1 -34q-3 -54 -3 -69q-6 -110 -26 -255q-1 -2 -1 -5q-13 -86 -47 -140q-38 -55 -100 -55q-64 0 -124 63q-33 35 -65 92l-6 11q-13 22 -25 45l-3 7q-25 50 -30 65q-1 -2 -1 -5l-15 -69l-10 -48
q-25 -119 -83 -165l-3 -2q-19 -13 -26.5 -13.5t-13.5 -1.5z" />
    <glyph glyph-name="x" unicode="x" horiz-adv-x="598" 
d="M-20 29q-33 0 -33 46q0 31 39 117q50 113 103 211l45 85q0 1 -3 4q-32 48 -81 140l-32 67q-3 9 -7 17l-18 45q-23 57 -23 84q0 25 16.5 54.5t51.5 37.5l11 1q30 0 56 -35l14 -25q10 -15 33 -61l2 -2q30 -58 63 -114l20 -33l20 33q0 2 24.5 41.5t66.5 103.5q60 96 96 135
v1q5 5 9 11q13 15 27 29q34 28 71 28t56 -25q8 -11 8 -26q0 -30 -28 -72q-12 -18 -16 -26l-25 -38q-7 -9 -13 -19q-52 -70 -118 -179l-41 -69q-9 -13 -17 -27q-11 -20 -22 -38q3 -3 7 -9q23 -28 50 -54q45 -49 80 -79q85 -79 85 -141q0 -49 -61 -49q-23 0 -54 7
q-100 41 -206 154q-4 -8 -9 -15l-18 -34l-64 -109q-38 -60 -72 -111q-21 -29 -53 -48q-22 -14 -40 -14z" />
    <glyph glyph-name="y" unicode="y" horiz-adv-x="708" 
d="M435 -365q-64 0 -132 32q-31 16 -57 40q-2 3 -5 5q-13 14 -24 30q-41 61 -41 115q0 29 10 57q29 44 72 44q3 0 28 -2t53 -54q2 -8 3 -17v-14q27 -81 84 -81q3 0 35.5 2.5t43.5 102.5l1 25q0 64 -5 108q0 8 -4 56l-14 123l-3 20q-24 -38 -62 -64q-51 -36 -110 -36
q-79 0 -141 42q-49 35 -82 88l-3 4q-41 70 -66 174q-16 72 -16 146l1 72q4 67 16 130q39 149 127 149q28 0 51 -22q27 -25 27 -71q0 -21 -6 -46q-8 -24 -17 -90q-5 -64 -5 -99q0 -28 5 -81q2 -28 8 -56q8 -41 30 -95l3 -5q34 -77 76 -77q31 0 81 60l18 22q14 16 26 32l14 19
v1q-4 46 -18 148q-7 51 -14 135l-5 60l-2 15l-3 68q0 7 -1 13q2 44 29 66.5t67 22.5q30 0 55.5 -19.5t26.5 -60.5q2 -12 3 -22.5t2 -19.5l4 -33l1 -18l13 -121q5 -34 8.5 -69.5t8.5 -71.5l1 -13q20 -155 26 -207l22 -199l5 -58q4 -43 4 -104q0 -84 -18 -138q-14 -46 -37 -78
q-35 -47 -107 -71q-24 -9 -64 -13z" />
    <glyph glyph-name="z" unicode="z" horiz-adv-x="588" 
d="M119 192q-21 0 -41 6q-58 26 -61 90q1 37 29 77l5 8l17 24l25 39q27 37 33 49l31 48q43 70 61 100q8 18 18 34l46 88q10 25 19 43l8 23l-59 3q-22 0 -44 -2l-12 -1l-29 -3h-9q-32 0 -80.5 21t-69.5 54q-6 9 -6 17q0 40 128 73q62 14 104 19q31 3 75 3q51 0 90 -7
q70 -14 106 -72q23 -39 23 -87q0 -23 -4 -45q-9 -54 -39 -107q-30 -59 -73 -126q-20 -32 -40 -61l-40 -57l-36 -49q7 0 13 1q65 5 92 5q169 0 169 -99q0 -23 -19.5 -53t-83.5 -30q-31 -3 -63 -4l-30 -1l-113 -7q-18 -2 -30.5 -2t-25.5 -2h-9l-16 -1l-18 -3q-21 -6 -41 -6z
" />
    <glyph glyph-name="braceleft" unicode="{" horiz-adv-x="470" 
d="M277 19q-30 0 -67 10q-16 11 -29 26q-57 66 -59 164l2 32q5 58 11 77q11 57 11 90l-1 22q-1 3 -1 10q-9 53 -31 83l-3 5q-9 17 -23 34l-17 21q-10 13 -22 26l-15 17q-10 10 -19 21q-14 31 -14 48q0 53 34 89q11 13 32 23l29 15l69 34q7 2 11 4.5t8 3.5q8 3 12.5 6.5t7 4
t3.5 0.5q2 0 3 -2l1 -2v0l1 -2q0 9 -1 13v6l-1 4q0 7 -4 13q-13 27 -16 35q-9 16 -12 25t-7 16t-7 15t-7.5 16.5t-7.5 17t-6 15.5l-12 39q-5 31 -6 60q0 45 20 94v2q10 29 34 65l2 4q30 42 51 61q44 44 87 57q12 7 24 7q46 -2 73 -48q20 -33 20 -61q0 -11 -3 -21
q-8 -12 -25 -28t-28 -32l-5 -6q-17 -21 -29 -42q-14 -27 -14 -35q-2 -7 -3 -13.5t-1 -10.5q0 -9 4 -17q5 -18 11 -32q4 -5 5 -11q10 -21 13 -28t7 -14q8 -16 8 -18q7 -14 12 -26q11 -25 12 -33t5 -17.5t11 -51.5l-1 -38q-4 -37 -21 -64l-5 -11q-21 -32 -49 -49l-23 -15
q-4 -4 -9.5 -6.5t-12.5 -7.5q-12 -7 -39 -19q-2 0 -3 -1v-1q18 -18 49 -71l21 -43l19 -47q17 -51 17 -105q0 -25 -2 -49q-2 -31 -5 -44.5t-4 -26.5q0 -8 -1.5 -17t-3.5 -20l-2 -13q-2 -13 -2 -27q0 -24 4 -33l4 -7q9 -9 11 -10q7 -4 13 -11q16 -31 16 -57q0 -35 -30 -61
t-79 -26z" />
    <glyph glyph-name="bar" unicode="|" horiz-adv-x="339" 
d="M48 1541l184 -9q87 -57 -20 -1498q-29 -116 -164 19q-48 116 0 1488z" />
    <glyph glyph-name="braceright" unicode="}" horiz-adv-x="464" 
d="M158 13q-50 0 -79.5 26t-29.5 60q0 26 17 58q8 10 16 14q3 2 4 5q11 11 11 32v19q0 9 -1.5 16.5t-2.5 14.5q-1 11 -3 21l-12 87q-1 24 -1 61q2 36 15 87l2 6q13 40 31 70q13 31 34 58q11 19 24 33l1 1l-4 1q-26 11 -39 19l-46 29q-11 6 -20 17q-33 33 -44 68
q-11 26 -11 58q0 17 3 31q0 13 3 24l10 34l12 32l11 26l16 32q2 7 6.5 14.5t15.5 37.5q4 10 7.5 18t3.5 15q0 22 -5 31q-3 22 -27 52q-6 9 -15 21l-4 6q-14 16 -28 30q-21 22 -27 30q-2 9 -2 19q0 29 24 69t68 42q20 0 53 -19q29 -15 53 -40l6 -5q14 -13 27 -29
q22 -28 26 -36q26 -44 33 -65l1 -2q19 -47 19 -89q0 -30 -6 -65l-12 -39q-7 -24 -13.5 -35.5t-20.5 -43.5l-12 -26q-10 -23 -15 -33.5t-5 -18.5l-2 -13l-1 -2q0 -2 1 -4v2l2 -2v2q0 4 2 4q1 0 2.5 -0.5t22.5 -10.5l54 -25l23 -13q13 -6 18 -8l22 -11q20 -10 31 -23
q34 -38 34 -84l-1 -11q-6 -38 -27 -59l-43 -47q-21 -26 -26 -34q-15 -22 -16 -26q-18 -25 -23 -52q-7 -20 -8 -31l-1 -5l-1 -27q0 -14 5 -50l2 -17l8 -38l9 -82q0 -80 -32 -137q-26 -43 -57 -65q-36 -10 -66 -10z" />
    <glyph glyph-name="asciitilde" unicode="~" horiz-adv-x="691" 
d="M430 578q-74 0 -133 48q-32 24 -42 36l-35 34q-14 17 -27 17t-35 -27l-12 -12l-10 -15q-4 -7 -6 -11.5t-4 -6.5q-5 -10 -7.5 -13t-4.5 -7q-18 -20 -59 -20q-29 0 -49 17q-6 14 -6 36q0 11 3 22v1q6 25 16 50l1 2q15 32 49 73q60 60 135 60q40 0 68.5 -14t54.5 -38
q29 -27 39 -38l21 -18q4 -4 9 -7q13 -11 24 -14q8 -6 16 -6q14 0 44 24l5 4q21 21 33 41l4 7q30 28 73 28q33 0 57 -19q19 -15 19 -43q0 -11 -3 -24q-15 -32 -34 -57q-79 -110 -204 -110z" />
    <glyph glyph-name="exclamdown" unicode="&#xa1;" horiz-adv-x="240" 
d="M114 1102q-3 0 -23 0.5t-52 14t-39 40.5l3 24q4 52 4 63q2 17 2.5 35t6.5 35q17 19 45 30q23 10 48 10q42 0 67 -34q9 -25 9 -64l-2 -27q-2 -32 -8 -67q-4 -15 -6.5 -28t-7.5 -24q-16 -8 -47 -8zM105 91q-75 0 -75 52l1 9q-1 16 -1 33v113q0 46 -2 92v11q-1 36 -1.5 72.5
t-2.5 73.5l-1 32q-4 79 -7 122q-2 19 -2.5 38t-2.5 38q-4 35 -5 71q2 61 28 94q29 35 70 35q31 0 58.5 -26.5t35.5 -89.5q4 -35 8 -107l3 -44l3 -79q2 -28 5 -155q2 -50 2 -100.5t1 -64.5q0 -46 -2 -86q0 -27 -4 -78q-10 -32 -57 -47q-27 -9 -52 -9z" />
    <glyph glyph-name="cent" unicode="&#xa2;" horiz-adv-x="563" 
d="M287 108q-67 0 -78 51q6 26 6 38q3 29 7 44l5 27q4 16 4 25l1 5q-21 3 -39 12l-5 2q-19 7 -36 18q-40 22 -71.5 59t-52.5 83.5t-25 98.5q-3 26 -3 60q0 94 47 188l7 13q8 15 17 29l3 4q53 80 136 113l2 1q-7 8 -10.5 19.5t-3.5 53.5l-1 34q0 25 2 39v6q0 65 80 65
q37 0 59 -18q8 -13 8 -22q4 -13 4 -27q5 -35 5 -61q3 -14 3 -44l-1 -19l-3 -9q42 -4 86 -26q10 -4 19 -9q2 -2 5 -3q25 -16 43 -34q4 -2 19 -20q17 -21 17 -46q0 -27 -26 -49q-35 -30 -98 -30q-28 0 -50 9q-2 1 -4 2.5t-6 2.5q-33 11 -53 11q-23 -1 -55 -41q-25 -34 -38 -78
l-6 -31l-1 -21q0 -33 7.5 -62t26.5 -46q52 -49 84 -49q28 0 65 18q38 15 46 15q39 0 65 -40q11 -16 11 -38q0 -31 -51 -79q0 -1 -1 -1q-14 -15 -31 -26l-3 -2q-19 -11 -40 -19q-2 0 -3.5 -0.5t-3.5 -1.5v-9q-2 -6 -2 -13l-1 -5q-2 -8 -2 -15.5t-1.5 -17t-2 -17.5t-1.5 -17
l-1 -11q-5 -35 -5 -52q-17 -37 -75 -37z" />
    <glyph glyph-name="sterling" unicode="&#xa3;" horiz-adv-x="884" 
d="M611 113h-23q-22 0 -43.5 2t-44.5 6.5t-71 21.5l-2 1l-30 13q-2 1 -5 1.5t-33 14.5q-32 9 -55 9q-24 0 -56 -6q-29 -8 -80 -8q-26 0 -57 2q-9 2 -16 9l-2 1q-41 30 -41 80q0 21 5 35t13 62l22 77q20 61 26 94l18 63h-11q-17 0 -27 1q-37 19 -67.5 50.5t-30.5 58.5
q0 1 0.5 16t60.5 22q53 11 85 12h27l17 75q18 66 46 135q5 14 22 47l4 7q20 40 48 68q18 20 46 42q5 3 9 7q33 25 61.5 38.5t68.5 20.5q11 0 21 1h27q23 0 46 -9q36 -13 60 -37l31 -36q4 -7 9 -13q10 -14 13 -27l3 -8q7 -16 11 -32q4 -11 5 -22q0 -7 1.5 -14.5t1.5 -15.5
v-40l-1 -20q-14 -70 -51 -95q-21 -14 -41 -14q-15 0 -41 16t-27 112l-1 4q0 10 -4 19q-15 42 -33 42t-48 -36l-16 -18l-3 -6q-6 -7 -11 -16q-20 -36 -34 -82q-7 -20 -27 -100q4 0 6 -1l28 -2q18 0 61 -5l41 -4q44 -15 44 -53q0 -1 -0.5 -22.5t-32.5 -56.5t-78 -35
q-18 3 -85 8q-11 0 -22 2l-8 -32l-3 -9q-2 -10 -14 -52q-7 -18 -12 -36l-5 -15q-5 -12 -8 -25l-12 -34l33 -1q13 0 78 -15q20 -6 38 -13q82 -42 137 -56q39 -11 85 -11q38 0 51 8l10 3q11 5 20 13q39 23 78 23q48 0 48 -34q0 -36 -40 -76q-25 -23 -47 -37v-1
q-14 -11 -31 -20q-46 -22 -69 -30q-31 -11 -38 -11z" />
    <glyph glyph-name="currency" unicode="&#xa4;" horiz-adv-x="841" 
d="M681 236q-10 0 -19 2q-14 6 -36 36q-24 29 -46 62l-14 23l-54 -14q-43 -9 -92 -9q-44 0 -85 7q-10 2 -15 2q-6 0 -22 -12q-21 -19 -38 -30q-71 -63 -140 -63q-2 0 -36.5 0.5t-55.5 95.5q6 12 49 47q9 6 17 14l21 17l42 32l-17 20q-34 40 -56 94q-13 39 -16 54
q-7 35 -7 71q0 46 14 90l1 4q15 46 39 78l-34 37q-15 9 -44 38q-8 5 -22 21h-1q-8 9 -14 20q10 35 51 71t86 45q12 -3 22 -10q22 -13 27 -18q43 -29 55 -48l2 -3q55 25 123 25q47 0 75 -7q76 -17 114 -36l2 -1l2 3q21 21 26.5 25.5t10.5 9.5l20 16q7 8 27 24q25 19 44 19
q47 0 88 -51q21 -25 21 -49l-1 -10q-4 -3 -7.5 -6t-7.5 -6t-8 -7q-17 -17 -45 -37q-12 -12 -27 -24q43 -41 65 -85q36 -67 36 -136q0 -55 -15 -104.5t-61 -104.5q22 -26 25 -27l34 -43q17 -19 34 -40q3 -10 3 -20q0 -24 -21.5 -49.5t-62.5 -40.5q-30 -12 -56 -12zM414 524
q60 0 124 36q15 9 37 34q5 2 12 17l8 17q8 17 8 36q0 21 -5 33q0 5 -7.5 21.5t-21.5 30.5q-20 23 -46 38l-9 5q-26 15 -42 20q-17 8 -36 15l-27 2q-24 2 -42 2q-24 -1 -47.5 -16t-54.5 -56q-13 -28 -13 -65q0 -27 7 -47q4 -13 11.5 -26.5t14.5 -26.5q61 -70 129 -70z" />
    <glyph glyph-name="yen" unicode="&#xa5;" horiz-adv-x="720" 
d="M340 196q-15 0 -43 7q-44 11 -55 97l-5 58h-64q-27 0 -52 13q-29 16 -29 39q0 18 31 36q10 9 30 19q27 14 58 22l16 5l-3 57q-2 19 -2 39h-12q-23 0 -37 2l-12 1q-10 1 -19 4q-46 22 -46 55q0 4 4 25.5t58 28.5q9 2 18 5.5t20 5.5t21 5v19q-1 1 -3 1q-29 4 -66 27
q-43 24 -76 71q-29 39 -44 93l-5 16q-19 71 -21 121l-2 26v26l2 24l8 54q23 14 73 14q34 0 62.5 -14.5t28.5 -49.5l7 -51q5 -39 9 -49q5 -17 9 -35q2 -10 10 -34q32 -67 61 -67q1 0 17.5 1.5t65.5 45.5l24 19q33 37 57 79l6 11l27 60q1 4 3 8.5t3 9.5q10 29 35 44q7 5 46 5
q28 0 67 -7t49 -62q0 -19 -7 -37l-2 -7q-7 -20 -16 -39l-1 -4q-16 -40 -44 -88q-24 -46 -61 -85q-17 -21 -37 -39l-43 -34q-21 -15 -57 -33v-3l32 5q17 3 33 4q28 3 39 5q30 5 62 7q9 2 21 2q19 0 38 -5q50 -19 67 -62q6 -18 6 -34q0 -23 -12 -42q-17 -25 -60 -25
q-12 0 -27 2q-49 0 -70 -5l-30 -3q-39 -1 -70 -5q-5 -1 -11 -1q2 -10 4 -48l2 -24q9 1 18 2.5t18.5 2.5t18.5 3q17 3 32 3q61 0 92 -38q23 -29 23 -56q0 -60 -78 -60l-24 1q-6 0 -43 -5l-46 -5q1 -3 1 -12q4 -56 4 -73v-23q-13 -43 -52 -61q-25 -11 -50 -11z" />
    <glyph glyph-name="brokenbar" unicode="&#xa6;" 
 />
    <glyph glyph-name="section" unicode="&#xa7;" 
 />
    <glyph glyph-name="dieresis" unicode="&#xa8;" 
 />
    <glyph glyph-name="copyright" unicode="&#xa9;" 
 />
    <glyph glyph-name="ordfeminine" unicode="&#xaa;" 
 />
    <glyph glyph-name="guillemotleft" unicode="&#xab;" horiz-adv-x="923" 
d="M828 192q-11 0 -23 4q-45 13 -121 115q-133 178 -226 271q-44 44 -52 56q-16 26 -16 55q0 52 59 116l50 53q72 74 110 119.5t83 113.5q29 44 42.5 57.5t29.5 13.5q46 0 88 -31.5t42 -59.5q0 -10 -8 -25q-73 -153 -173 -253q-31 -31 -89 -79q-20 -17 -46 -34
q97 -97 184 -205q141 -175 141 -220q0 -13 -14 -33q-25 -34 -50 -34h-11zM438 192q-55 0 -144 119q-133 178 -226 271q-44 44 -52 56q-16 26 -16 55q0 52 59 116l50 53q72 74 110.5 119.5t82.5 113.5q29 44 43 57.5t29 13.5q45 0 87.5 -31.5t42.5 -59.5q0 -10 -8 -25
q-73 -153 -172 -253q-81 -77 -136 -113q97 -97 184 -205q141 -175 141 -220q0 -13 -14 -33q-25 -34 -50 -34h-11z" />
    <glyph glyph-name="logicalnot" unicode="&#xac;" 
 />
    <glyph glyph-name="registered" unicode="&#xae;" 
 />
    <glyph glyph-name="macron" unicode="&#xaf;" 
 />
    <glyph glyph-name="degree" unicode="&#xb0;" 
 />
    <glyph glyph-name="plusminus" unicode="&#xb1;" horiz-adv-x="717" 
d="M331 389q-10 0 -20 5q-33 17 -39 64l-1 6q0 44 14 190l2 30q-82 6 -150 7.5t-88 4.5q-14 4 -27.5 14.5t-18.5 21.5q-3 13 -3 20q0 34 45 54l22 9q176 0 230 -2q5 74 6 137q2 68 5 88q4 13 14 27q16 22 41 22q35 0 55 -45l9 -22q0 -167 -1 -214q165 -12 218.5 -29
t53.5 -57q0 -10 -5 -20q-18 -34 -64 -40h-7q-37 0 -138 9l-65 5q-16 -188 -31 -231q-18 -54 -57 -54zM629 163h-7q-11 0 -138 9q-213 19 -347 23q-80 2 -88 5q-14 3 -27.5 13.5t-18.5 21.5q-3 13 -3 20q0 36 45 54l22 10h115q163 0 333 -18q92 -8 129 -20q54 -18 54 -58
q0 -10 -5 -20q-18 -34 -64 -40z" />
    <glyph glyph-name="uni00B2" unicode="&#xb2;" 
 />
    <glyph glyph-name="uni00B3" unicode="&#xb3;" 
 />
    <glyph glyph-name="acute" unicode="&#xb4;" 
 />
    <glyph glyph-name="mu" unicode="&#xb5;" horiz-adv-x="713" 
d="M113 49q-1 0 -26.5 1t-54.5 38q-3 7 -4.5 13t-3.5 10q-9 35 -12 67l-2 28q-2 13 -3 27l-1 11q-3 58 -3 140l-1 28q-1 22 -2 149q0 44 2 77q0 44 1 68l1 47q0 44 2 87l3 63l15 105l1 1v10q3 27 3 38q12 115 77 115q35 0 68 -28q20 -18 22 -31l13 -34q10 -25 13 -83
q0 -32 1 -49l1 -53l-4 -115l-2 -62v-5l2 -6q3 -14 8 -29l4 -15q33 -102 88 -102q45 0 80 80q1 2 1 5q15 38 24 128q1 10 3 19q-9 79 -11 110q-1 4 -6 76l-10 176l-1 42q5 69 71 69q43 0 80.5 -26.5t47.5 -66.5q5 -29 13 -73l16 -102l19 -132q1 -25 7 -64q6 -52 8 -62
q2 -30 6 -60q0 -2 7 -58l3 -29q3 -38 11 -108q2 -6 2.5 -19.5t2.5 -26.5v-8q0 -15 -5 -29q-7 -21 -19 -33q-8 -13 -13 -15q-10 -5 -18 -7.5t-13 -5t-12 -6.5l-47 -4q-14 4 -25.5 5.5t-22.5 4.5q-2 1 -8 7l-11 11q-30 27 -33 62l-2 23l-2 -1q-18 -16 -40 -28
q-42 -24 -110 -24q-56 0 -98 21q0 -34 -2 -69q0 -57 -4 -97q0 -17 -3 -34q-1 -12 -1.5 -24t-10.5 -74l-7 -26q-26 -38 -73 -38z" />
    <glyph glyph-name="paragraph" unicode="&#xb6;" 
 />
    <glyph glyph-name="periodcentered" unicode="&#xb7;" 
 />
    <glyph glyph-name="periodcentered" unicode="&#x2219;" 
 />
    <glyph glyph-name="cedilla" unicode="&#xb8;" 
 />
    <glyph glyph-name="uni00B9" unicode="&#xb9;" 
 />
    <glyph glyph-name="ordmasculine" unicode="&#xba;" 
 />
    <glyph glyph-name="guillemotright" unicode="&#xbb;" horiz-adv-x="923" 
d="M75 192h-11q-25 0 -49 34q-15 20 -15 33q0 45 141 220q87 108 184 205q-26 17 -45 34q-59 48 -90 79q-100 100 -173 253q-7 15 -7 25q0 28 42 59.5t87 31.5q16 0 29.5 -13.5t42.5 -57.5q45 -68 83 -113.5t110 -119.5l51 -53q58 -64 58 -116q0 -29 -16 -55q-8 -12 -52 -56
q-93 -93 -226 -271q-76 -102 -121 -115q-12 -4 -23 -4zM465 192h-11q-25 0 -49 34q-15 20 -15 33q0 45 141 220q87 108 184 205q-55 36 -136 113q-99 100 -172 253q-7 15 -7 25q0 28 42 59.5t87 31.5q15 0 29 -13.5t43 -57.5q44 -68 82.5 -113.5t110.5 -119.5l51 -53
q58 -64 58 -116q0 -29 -16 -55q-8 -12 -52 -56q-93 -93 -226 -271q-89 -119 -144 -119z" />
    <glyph glyph-name="onequarter" unicode="&#xbc;" 
 />
    <glyph glyph-name="onehalf" unicode="&#xbd;" 
 />
    <glyph glyph-name="threequarters" unicode="&#xbe;" 
 />
    <glyph glyph-name="questiondown" unicode="&#xbf;" horiz-adv-x="642" 
d="M328 1205q-76 0 -76 66l1 7q-3 16 -4 40l2 20q31 52 98 52q49 0 79 -41q7 -28 7 -61q-4 -49 -50 -70q-30 -13 -57 -13zM329 103h-37l-22 1q-72 14 -132 71q-24 21 -59 61q-58 66 -72 140q-7 26 -7 56l1 20q6 61 51 141q35 54 68 86q17 21 37 41l26 28l30 35
q17 22 29.5 48.5t16.5 62.5q6 35 9 79q2 10 2 32q0 38 9 69q29 53 94 53q61 0 89 -56q5 -21 5 -43q0 -19 -6 -57q0 -13 -9 -59q-14 -61 -31 -103q-22 -48 -45 -80l-4 -5q-40 -54 -68 -82q-13 -16 -33 -37q-38 -44 -43.5 -51.5t-26.5 -32.5q-13 -18 -24 -43v-1q-8 -14 -8 -21
q-4 -9 -4 -27l1 -4q0 -21 8 -37l10 -19q56 -80 111 -80q52 0 104 73q8 11 13 24l1 1q9 18 9 28q5 16 5 43v9l-4 27q-4 20 -11 32q-19 28 -19 52q0 25 19.5 62.5t54.5 48.5q25 -2 54 -20.5t53 -52.5q23 -30 37 -83q11 -40 11 -77q0 -38 -7 -76q-11 -52 -33 -89l-5 -11
q-32 -51 -59 -80q0 -1 -1 -1q-35 -40 -80 -67q-56 -29 -108 -29z" />
    <glyph glyph-name="Agrave" unicode="&#xc0;" horiz-adv-x="875" 
d="M675 1404q-16 0 -33 5q-31 18 -65 32l-51 21q-43 20 -87 34l-43 16l-53 20l-27 11q-37 14 -58 24q-41 15 -41 46q0 7 5 26t29.5 46t53.5 29q23 0 77 -15l85 -26q15 -6 30 -10.5t53 -18.5l79 -30q42 -14 100 -43v-1q17 -8 32 -17q29 -19 29 -51q0 -52 -63 -85
q-26 -13 -52 -13zM213 -76q-50 0 -69 30q-5 11 -6 24q0 4 -1 7q-4 34 -4 90q2 28 2 57q2 33 11 129l7 47q4 43 13 86l4 30q1 2 1.5 6t1.5 8l-5 -1q-14 -5 -63 -19q-3 0 -5 -1q-9 -2 -18 -2q-5 1 -82 49q1 12 9 22q24 33 96 64q12 8 64 26l21 8l10 3l33 156q7 47 17 76l8 33
q11 45 51 174l25 71q16 45 39 90l1 4q35 63 47 82q22 36 49 63q39 36 73 38l47 -2q36 -20 53 -58q12 -28 22 -60q10 -23 12 -35q32 -104 42 -153q12 -57 12 -67q13 -66 29 -197l12 -122v-5q11 0 19.5 -1t16.5 -1q47 -14 47 -56q0 -16 -10 -37t-33 -29q-2 -2 -4.5 -2.5
t-3.5 -1.5q-11 -4 -23 -6l3 -40q6 -123 6 -137q9 -159 9 -175v-36q0 -55 -27 -76q-16 -13 -33 -13q-14 0 -36.5 12.5t-32.5 73.5l-2 13q-5 33 -7 67q0 14 -2 29q-4 54 -6 97q-6 69 -10 138q0 30 -2 40q-3 -1 -7 -1q-21 0 -75 -8q-14 0 -63 -9q-57 -9 -118 -22l-30 -172
q-6 -36 -11 -73l-8 -51l-23 -175l-1 -4l-6 -36l-1 -4q-1 -10 -5 -18q-22 -37 -80 -37zM407 642l26 5l22 3q51 9 102 15l75 8q-6 70 -14 141l-18 144q-6 58 -14 116l-7 49q-5 31 -10 46l-2 4l-41 -109q-17 -43 -32 -86q-19 -57 -44 -152q-9 -32 -16 -64q-5 -26 -11 -50.5
t-11 -47.5z" />
    <glyph glyph-name="Aacute" unicode="&#xc1;" horiz-adv-x="874" 
d="M343 1407q-20 0 -54.5 15t-57.5 44q-10 13 -10 25q0 18 38 46q5 5 40 30l42 28q8 4 15 9q11 8 43 27l29 18q17 11 47 28q6 5 38 23l38 22q25 18 47 18q33 0 60 -21t40 -49q7 -16 7 -30q0 -10 -4 -18q-10 -14 -36 -27l-64 -38q-14 -7 -28 -16q-5 -4 -11 -7l-33 -19
q-33 -22 -54 -34l-28 -17q-40 -25 -44.5 -28t-10 -6t-10.5 -7l-18 -12q-9 -4 -21 -4zM212 -76q-50 0 -69 30q-5 11 -6 24q0 4 -1 7q-3 31 -3 65q-1 30 1 62l5 85q6 64 8 72l10 77l15 92l-4 -1q-15 -5 -64 -19q-3 0 -5 -1q-9 -2 -18 -2q-5 1 -81 49q2 23 27 41q5 9 38 25
q40 23 125 54l9 3l33 156q11 57 16 74.5t9 34.5q18 74 52 174l20 60q4 7 21 55q37 82 70 132q22 36 49 63q39 36 73 38l28 -1q9 -1 19 -1q20 -11 35 -29q19 -22 49 -113l4 -11q5 -21 12 -42q19 -63 29 -111q18 -87 35 -216q14 -111 18 -170v-5q11 0 20 -1t16 -1
q47 -14 47 -56q0 -16 -10 -37t-33 -29q-2 -2 -4 -2.5t-4 -1.5q-11 -4 -23 -6l3 -40q3 -41 4 -81q0 -5 1 -9l3 -89l5 -85q3 -32 3 -80q0 -58 -28 -80q-16 -13 -33 -13q-13 0 -36 12.5t-33 73.5q-5 31 -8 80l-6 85q-1 21 -3 41q-10 118 -11 178l-8 -1q-21 0 -75 -8
q-14 0 -63 -9q-57 -9 -118 -22l-1 -10q-5 -21 -24 -131q-2 -16 -5 -31q-6 -36 -11 -73l-8 -51l-17 -133q-4 -40 -7 -46q-5 -36 -7 -40q-1 -10 -5 -18q-22 -37 -80 -37zM407 642l25 5l22 3q51 9 102 15l75 8q-6 70 -14 141l-2 22l-16 125q-6 56 -14 113l-7 49q-5 31 -10 46
l-1 5l-42 -110q-17 -43 -32 -86q-18 -57 -44 -152l-38 -162z" />
    <glyph glyph-name="Acircumflex" unicode="&#xc2;" horiz-adv-x="875" 
d="M722 1399h-8q-22 11 -48.5 36t-41.5 36l-8 7l-18 13q-28 20 -44 20t-42 -23q-7 -6 -15 -11l-15 -10q-26 -19 -47 -37q-25 -16 -56 -16q-29 0 -53 12t-24 40q11 26 50 60q4 3 7 7q13 12 52 45q20 20 68 55q28 17 59 27q16 1 33 1q43 0 78 -16l5 -2q33 -12 62 -32h1
q25 -15 50 -34l34 -26q14 -11 25.5 -20.5t21.5 -21.5q2 -8 2 -16q0 -39 -42.5 -66.5t-85.5 -27.5zM213 -76q-50 0 -69 30q-5 11 -6 24q0 4 -1 7q-4 35 -4 73v17q2 28 2 57q2 33 11 129l7 46q5 50 13 87l4 30l3 14l-5 -1q-14 -5 -63 -19l-6 -1q-8 -2 -17 -2q-7 1 -82 49
q1 12 9 22q23 32 95 64q23 12 65 26l21 8l10 3q11 64 25 118l8 38q7 47 17 76l8 33q11 45 51 174q30 86 42 115q32 75 70 132q22 36 49 63q38 36 72 38l48 -2q36 -20 53 -58q12 -28 22 -60q10 -23 12 -35q32 -104 42 -153q12 -55 12 -67q13 -66 29 -197q1 -18 4 -35l8 -92
q11 0 19.5 -1t16.5 -1q47 -14 47 -56q0 -16 -10 -37t-33 -29q-2 -2 -4.5 -2.5t-3.5 -1.5q-11 -4 -23 -6l7 -121l2 -56q9 -159 9 -176v-35q0 -55 -27 -76q-16 -13 -33 -13q-14 0 -36.5 12.5t-33.5 73.5l-1 12q-8 55 -15 194q-6 69 -10 138q0 30 -2 40q-3 -1 -7 -1
q-21 0 -75 -8q-14 0 -63 -9q-61 -9 -118 -22q-1 -4 -1.5 -9t-5.5 -30l-18 -102q-10 -52 -16 -104q-14 -86 -18 -130q-5 -25 -7 -54l-9 -59l-5 -27q-1 -10 -5 -18q-24 -37 -80 -37zM407 642l26 5l22 3q51 9 102 15l75 8q-6 70 -14 141l-18 147l-14 113l-7 49q-6 31 -10 46
l-2 4l-41 -109q-17 -43 -32 -86q-19 -57 -44 -152q-9 -32 -16 -64q-5 -26 -11 -50.5t-11 -47.5z" />
    <glyph glyph-name="Atilde" unicode="&#xc3;" horiz-adv-x="936" 
d="M675 1482q-74 0 -133 48q-32 24 -42 36l-35 34q-14 17 -27 17t-35 -26q-3 -4 -12 -13l-10 -15l-7 -13q-7 -14 -10 -17.5t-5 -7.5q-18 -20 -59 -20q-29 0 -49 17q-6 14 -6 36l3 23q6 25 16 50q1 1 1 3q17 33 49 72q60 60 135 60q40 0 70 -14.5t53 -37.5q28 -25 39 -38
l21 -18q17 -13 23 -16l10 -5q13 -6 17 -6q5 0 11 3q22 10 51 39q14 19 19 27l4 7q30 28 73 28q33 0 57 -19q19 -15 19 -43q0 -25 -17.5 -54t-41.5 -53q-76 -84 -182 -84zM212 -76q-50 0 -68 30q-7 15 -7 31q-4 45 -4 65q-1 30 1 62l1 20q7 117 11 137t6 39l20 130l-4 -1
q-15 -5 -64 -19l-5 -1q-9 -2 -18 -2q-5 1 -81 49q3 35 65 66q40 23 125 54l10 3q7 39 16 77q18 97 30 143l11 45q14 57 31 110l21 64q30 86 42 115q28 69 70 132q19 34 48 63q39 36 73 38l29 -1q8 -1 18 -1q20 -11 35 -29q12 -13 30 -58q14 -42 23 -66q16 -49 27 -93
q13 -50 27 -125l12 -73l20 -161q5 -44 8 -87l1 -2v-3l21 -1l14 -1q47 -14 47 -57q0 -16 -10 -36.5t-33 -28.5q-2 -2 -4 -2.5t-3 -1.5q-12 -4 -23 -6q0 -14 2 -40q5 -68 5 -90l8 -174q3 -31 3 -84q0 -55 -28 -76q-16 -13 -33 -13q-13 0 -36 12.5t-33 73.5l-2 13q-4 29 -8 96
l-7 97q-10 118 -11 178l-7 -1q-20 0 -76 -8q-5 0 -7 -1q-28 -3 -56 -8q-66 -11 -117 -22q-5 -20 -8 -39q-25 -142 -34 -206q-8 -50 -10 -68l-12 -93q-3 -34 -9 -65q0 -9 -2.5 -18.5t-3.5 -21.5l-1 -4q-2 -10 -6 -18q-22 -37 -80 -37zM407 642l25 5l23 3q50 9 101 15l76 8
q-6 70 -14 141l-13 99l-19 161l-8 49q-5 31 -9 46l-2 4l-42 -109l-31 -86q-19 -57 -44 -152q-9 -32 -16 -64l-23 -98z" />
    <glyph glyph-name="Adieresis" unicode="&#xc4;" horiz-adv-x="787" 
d="M355 1386q-13 0 -34.5 6t-31.5 42v13l1 20q4 39 7 46q2 14 10 40q19 36 48 36q28 0 54 -22q22 -19 30 -45l-1 -6q-4 -18 -4 -28q-3 -12 -3 -36v-21q-12 -26 -43 -39q-17 -6 -33 -6zM573 1403q-50 0 -71 39q-2 8 -2 14q0 3 4 31l6 23q7 28 13 42q8 20 18 32h8q32 0 74 -22
q37 -20 39 -50q-4 -15 -5 -24l-4 -23q-1 -8 -2 -17t-6 -17q-28 -28 -72 -28zM190 9q-44 0 -61 27q-5 10 -6 21q0 4 -1 7q-3 31 -3 60q0 49 2 72q2 49 10 116q0 8 6 42l4 34l14 83l-5 -1q-13 -5 -57 -17q-2 0 -4 -1q-8 -2 -16 -2q-5 1 -73 44q2 21 24 37q4 8 34 23
q39 21 113 48l8 3l30 140q9 51 13.5 67t8.5 31q16 68 61 200l8 20q19 51 34 81l1 4q31 57 42 73q20 33 45 57q34 32 65 34l25 -1q7 -1 17 -1q18 -10 32 -26q19 -22 44 -102l3 -9q5 -19 11 -38q23 -66 37 -158l1 -2q13 -79 29 -208q4 -40 7 -79v-4q10 0 18 -1t14 -1
q42 -13 42 -50q0 -15 -8.5 -33.5t-29.5 -26.5q-2 -1 -4 -1.5t-3 -1.5q-10 -4 -21 -6l1 -8l2 -27q2 -37 3 -73q0 -5 1 -8l3 -80l4 -77q3 -28 3 -72q0 -52 -25 -72q-14 -11 -29 -11q-12 0 -33 11t-30 66l-2 12q-4 29 -5 60l-5 76q-1 19 -3 37q-9 106 -10 160l-7 -1
q-19 0 -67 -7q-13 0 -57 -8q-51 -8 -106 -20l-1 -9q-4 -18 -22 -117q-1 -15 -4 -28q-6 -33 -10 -66l-7 -45l-15 -120q-4 -36 -7 -42l-5 -32l-1 -4q-1 -9 -5 -16q-19 -33 -72 -33zM365 654l23 5l20 3q46 7 92 13l67 7q-5 63 -12 127l-2 20l-14 112q-6 50 -13 101l-7 45
q-4 28 -8 41l-2 4l-37 -99q-15 -38 -29 -77q-16 -51 -39 -137l-35 -145z" />
    <glyph glyph-name="Aring" unicode="&#xc5;" horiz-adv-x="874" 
d="M212 -76q-50 0 -68 30q-7 17 -7 31q-4 45 -4 67q-1 29 1 60q0 21 6 85q4 59 7 72l11 77l7 48l5 30l2 14l-4 -1q-15 -5 -64 -19l-5 -1q-9 -2 -18 -2q-5 1 -81 49q3 35 65 66q40 23 125 54l10 3q7 39 16 77q18 97 30 143l11 45q18 74 52 174q30 86 42 115q28 69 70 132l1 2
q-52 32 -85 99q-21 39 -27 88q-2 6 -2 27q0 67 27 110q10 18 37 49q7 7 12 14q11 12 24 21q1 2 3 3q30 19 54 26l10 1q4 4 8.5 7t6.5 5q25 12 52 12q60 -2 103 -22q44 -24 72 -52l9 -10q22 -22 39 -54q16 -25 27 -69l2 -7q4 -8 4 -42q-1 -22 -5 -43q-5 -35 -31 -78l-1 -2
q-4 -4 -7 -9q-21 -31 -51 -53q-21 -19 -40 -28l-3 -1l2 -5q2 -9 15 -43q4 -12 6.5 -22.5t5.5 -19.5q21 -61 42 -176l12 -73l20 -161q5 -44 8 -87l1 -2v-3l21 -1l14 -1q47 -14 47 -57q0 -16 -10 -36.5t-33 -28.5q-2 -2 -4 -2.5t-3 -1.5q-12 -4 -23 -6l2 -40q5 -68 5 -90
l8 -174q3 -32 3 -80q0 -58 -28 -80q-16 -13 -33 -13q-13 0 -36 12.5t-33 73.5l-2 13q-4 29 -8 96l-7 97q-10 118 -11 178q-20 0 -83 -9q-5 0 -7 -1q-28 -3 -56 -8q-66 -11 -117 -22l-8 -39q-14 -77 -17 -102l-6 -31q-10 -61 -18 -123l-3 -18l-12 -93q-3 -34 -9 -65
q0 -9 -3 -17q-4 -22 -4 -27q-2 -10 -6 -18q-22 -37 -80 -37zM560 1425q29 0 50 21t21 50q0 30 -21 50.5t-50 20.5q-30 0 -50.5 -20.5t-20.5 -50.5q0 -29 20.5 -50t50.5 -21zM407 642l25 5l23 3q50 9 101 15l76 8q-6 70 -14 141l-13 99l-19 161l-8 49q-5 32 -10 46l-1 4
l-42 -109l-31 -86q-19 -57 -45 -152l-38 -162z" />
    <glyph glyph-name="AE" unicode="&#xc6;" horiz-adv-x="1321" 
d="M97 125q-27 0 -51 10q-33 16 -33 55q0 6 1 13t1 14q1 21 5 51l5 40q19 120 41 211l9 40h-8q-13 23 -30 44q-37 45 -37 70q0 23 39 37l13 6q60 24 68 28l7 26l18 68l11 40l30 105q3 7 6 17t16.5 51t14.5 43.5l17 42.5q5 10 8 19q12 36 21 51q6 16 14 29q2 7 6 13t13 24
l8 14q5 10 12 20l2 5l31 48q4 9 6 15.5t7 12.5l2 4l14 19q15 14 34 22q18 3 28 3q13 0 29 -7q7 -4 18 -8l6 -5q22 -14 36 -36q17 -18 34 -48q1 -3 3 -5l16 -32q25 -60 34 -95q1 -1 1 -3q1 1 7 8.5t38 40.5q62 48 112 65l12 3q57 20 125 20q75 0 127 -21q18 -5 32 -12l15 -6
q42 -24 61 -46q16 -16 16 -28q0 -21 -29 -46t-71.5 -43.5t-73.5 -18.5h-3q-57 11 -76 11q-16 0 -68 -23q-12 -6 -25 -16l-5 -4q-22 -22 -22 -35q-1 -1 -1 -10q2 -9 9 -21q12 -19 31 -38q11 -11 15 -14l8 -6q15 -15 22 -17q14 -9 30 -15q12 -3 20 -7l3 -1l5 2
q25 10 39.5 13.5t28.5 7.5l27 5q34 -3 60 -33q42 -49 42 -101q0 -19 -8 -35q-2 -2 -5.5 -3.5t-6.5 -3.5q-19 -12 -40 -21q-18 -6 -62 -31l-14 -8q-30 -18 -43 -31l-8 -7q-31 -31 -35 -36q-29 -32 -50 -78q-14 -34 -19 -52l-1.5 -4.5t-4.5 -27.5q-2 -12 -2 -25q0 -79 64 -92
q9 -2 18 -2q54 0 145 58l37 29l31 30q8 8 17 14q31 17 65 17q89 0 89 -76q0 -20 -16 -46l-4 -7q-9 -12 -19 -22q-6 -5 -20 -19q-25 -27 -47 -42l-27 -21q-27 -21 -64 -38l-6 -3q-14 -7 -29 -13l-36 -12q-17 -6 -35 -9l-17 -3q-35 -9 -84 -9l-29 1q-37 0 -61 4q-33 5 -54 12
l-6 3q-27 11 -38 22q-31 21 -55 60q-42 67 -42 169q3 66 24 133q15 45 36 86q2 3 3 7l20 34q11 13 13 18h-1q-34 -10 -63 -15q-13 -3 -27 -8q-83 -19 -104 -26l-54 -15l-112 -33l-31 -10l-17 -70q-22 -83 -32 -127l-39 -153q-9 -27 -16 -54q-3 -15 -14 -43q-25 -52 -101 -52
zM375 841l62 19l82 23l14 3l4 1l-2 3q-9 12 -17 42l-24 79l-35 133q-5 -20 -10 -39l-5 -20q-10 -44 -23 -87z" />
    <glyph glyph-name="Ccedilla" unicode="&#xc7;" horiz-adv-x="706" 
d="M416 -188q-58 0 -109 38q-5 14 -5 27q0 54 55 61q38 -25 62 -25q10 0 18 4q20 11 20 35q0 8 -2 18q-18 47 -63 82q-29 24 -49 52q-3 0 -23 4q-145 44 -238 222q-33 64 -41 97q-27 78 -36 160l-2 31q-3 31 -3 61q0 87 19 179t55 162q62 131 190 212h1q74 46 162 49
q88 0 144 -42q26 -20 56 -60q48 -72 48 -122q0 -13 -3 -23v-1q-3 -8 -8 -15q-14 -16 -47 -16q-28 0 -56.5 15.5t-43.5 45.5q-39 65 -74 65t-100 -50q-54 -45 -91 -125q-53 -132 -53 -249q0 -93 22 -170q14 -59 51 -126q75 -126 147 -126q39 0 66.5 21t41.5 35q18 12 44 47
q5 8 11.5 16t12.5 16q2 4 6 8q20 19 41 19q4 0 19 -3.5t24 -36.5l1 -4l-1 -4q0 -20 -5 -49l-4 -15q-27 -104 -96 -165q-43 -38 -100 -56q1 -1 1.5 -1t0.5 -1q74 -63 89 -141q2 -11 2 -21q0 -64 -79 -116l-2 -1q-36 -18 -76 -18z" />
    <glyph glyph-name="Egrave" unicode="&#xc8;" horiz-adv-x="678" 
d="M470 1379q-32 0 -65 22q-17 8 -35 15q-40 16 -50 21q-15 8 -87 34l-97 37q-14 5 -27 10.5t-27 10.5q-33 14 -53 24q-17 13 -17 35q0 7 4 26.5t28.5 46t54.5 28.5q19 0 41 -6q40 -9 76 -21l12 -3q16 -5 32 -11t31 -11q23 -6 81 -29q13 -4 25.5 -9t25.5 -9q17 -5 34 -14
q30 -11 65 -30h1q16 -8 32 -18l6 -3q23 -23 23 -48q0 -50 -64 -85q-25 -13 -50 -13zM255 99q-136 0 -203 110q-52 89 -52 203v21q7 71 25 132l3 10q35 103 84 176q34 47 63 77q-53 13 -94 49.5t-61 90.5q-14 37 -13 75q0 77 45 136q30 42 85 79q92 63 198 63q43 0 84 -16
t68 -41q20 -17 39 -50l3 -5q11 -23 13 -53q-8 -36 -44 -36q-17 0 -39 9.5t-38 28.5q-13 13 -23 17q-18 12 -41 15q-9 3 -31 3l-10 -1h-12q0 -1 42 -1h-15q-43 0 -87 -35q-4 0 -34 -28q-22 -21 -37 -50q-5 -13 -5 -26q0 -19 9 -36q12 -22 30 -29q73 -33 156 -34q10 4 21 7
q50 13 72 13q44 -2 67 -34q17 -22 17 -46q0 -10 -7 -32.5t-64 -37.5q-45 -17 -68 -29q-88 -51 -138 -124q-27 -39 -45 -83l-5 -11q-19 -50 -30 -103v-1q-4 -24 -4 -58q0 -75 34 -127q20 -18 46 -18q35 0 88 34q38 23 73 60q53 53 76 123q3 11 7 21q30 46 82 46q69 0 73 -72
q-3 -51 -29 -110q-22 -54 -68.5 -105t-90.5 -84q-105 -83 -215 -83z" />
    <glyph glyph-name="Eacute" unicode="&#xc9;" horiz-adv-x="679" 
d="M214 1366q-21 0 -55.5 15t-57.5 44q-11 13 -11 25q0 17 40 46q1 3 39 30q7 4 13 9l23 14l6 5q8 4 15 9t15 9q21 14 30 19t25.5 16t30.5 18l56 34l28 16q38 24 58 24q32 0 59.5 -21t40.5 -49q7 -16 7 -28q0 -23 -24 -38l-120 -70q-24 -15 -31.5 -19t-13.5 -8
q-26 -17 -42 -26l-70 -44l-12 -7q-2 -1 -18.5 -12t-30.5 -11zM254 99q-134 0 -202 110q-52 89 -52 199q0 46 9 91q11 62 39 130q29 72 65 122q23 34 62 77q-52 13 -93 49q-75 68 -75 167q0 74 45 135q36 47 86 79q92 63 197 63q22 0 44 -5q42 -8 76.5 -28t55.5 -51
q28 -34 32 -81q-9 -36 -45 -36q-17 0 -39 9.5t-38 28.5q-13 13 -23 17q-19 13 -41 15q-9 3 -31 3l-10 -1h-12q0 -1 42 -1h-15q-43 0 -87 -35q-1 0 -1 -1q-40 -31 -56.5 -55t-18.5 -43q0 -25 9 -41q15 -23 30 -29q73 -33 156 -34q10 4 21 7l40 9q16 4 33 4q43 -2 67 -34
q16 -22 16 -45q0 -10 -6.5 -33t-63.5 -38q-63 -22 -105 -52q-32 -22 -71 -61q-29 -32 -58 -84q-15 -28 -22 -50q-22 -51 -30 -103v-1q-4 -23 -5 -47q0 -70 20 -113t60 -43q37 0 88 34q35 21 74 60q51 51 75 123q24 67 89 67q68 0 74 -72q-14 -122 -98 -214
q-85 -97 -194 -146q-57 -22 -113 -22z" />
    <glyph glyph-name="Ecircumflex" unicode="&#xca;" horiz-adv-x="678" 
d="M464 1353h-8q-13 8 -24 18l-23 20q-18 16 -42 35l-4 3q-9 9 -21 16l-1 1q-27 20 -44 20q-16 0 -42 -24q-26 -17 -31 -21q-23 -17 -47 -36q-24 -16 -56 -16q-28 0 -52 12t-24 40q8 18 32 44l25 23q13 12 27 23q28 25 70 60l23 17q30 18 59 27q12 1 29 1q47 0 82 -16l5 -2
q43 -20 62 -32q29 -16 59 -40l51 -40q12 -10 22 -22l2 -15q0 -40 -41 -67q-44 -29 -88 -29zM254 99q-135 0 -202 110q-52 89 -52 208v16q7 71 25 132l3 10q34 103 84 176q34 47 63 77q-53 13 -94 49.5t-61 90.5q-14 40 -14 75q0 74 46 136q30 42 85 79q92 63 198 63
q43 0 84 -16t68 -41q20 -17 39 -50l3 -5q11 -23 13 -53q-7 -36 -44 -36q-17 0 -39 9.5t-38 28.5q-13 13 -23 17q-18 12 -41 15q-9 3 -31 3l-10 -1h-12q0 -1 42 -1h-15q-43 0 -87 -35q-2 0 -34 -28q-22 -21 -37 -50q-5 -13 -5 -26q0 -19 9 -36q12 -22 30 -29q73 -33 156 -34
q10 4 21 7q50 13 72 13q44 -2 67 -34q17 -22 17 -46q0 -10 -7 -32.5t-64 -37.5q-45 -17 -68 -29q-88 -51 -138 -124q-27 -39 -45 -83l-5 -11q-33 -86 -34 -162q0 -34 9 -70q8 -31 25 -57q20 -18 46 -18q35 0 88 34q38 23 73 60q53 53 76 123q3 11 7 21q30 46 82 46
q69 0 73 -72q-4 -51 -29 -110q-22 -54 -68.5 -105t-90.5 -84q-105 -83 -216 -83z" />
    <glyph glyph-name="Edieresis" unicode="&#xcb;" horiz-adv-x="679" 
d="M157 1400q-14 0 -37 7t-35 47l1 28l1 9q0 10 2 19l5 30l5 23l2 7l5 16q20 40 52 40t59 -22.5t35 -51.5l-1 -6q-3 -14 -4 -29q-2 -2 -2 -26l-3 -40q-13 -30 -46 -43q-20 -8 -39 -8zM400 1419q-2 0 -28 0.5t-50 44.5q-2 7 -2 15l3 22q3 22 12 53q3 18 10 31q8 22 21 36
q6 1 15 1q35 -3 75.5 -25t43.5 -56l-5 -26q-4 -8 -4 -26q-2 -10 -3 -20t-7 -19q-31 -31 -81 -31zM254 99q-67 0 -116 27q-96 53 -126 185q-12 49 -12 97q0 80 26 157q4 20 22 64q29 72 65 122q28 40 62 77q-52 13 -92.5 49t-62.5 91q-13 37 -13 76q0 74 45 135q32 43 86 79
q91 63 198 63q22 0 43 -5q43 -8 77 -28t55 -51q28 -34 32 -81q-9 -36 -45 -36q-16 0 -38.5 9.5t-38.5 28.5q-14 14 -22 17l-7 4q-28 14 -66 14l-10 -1h-12q0 -1 43 -1h-16q-40 0 -87 -35q-1 0 -1 -1q-36 -28 -56 -53q-15 -22 -19 -45q0 -25 9 -41q15 -22 30 -29
q73 -33 156 -34l21 7l40 9q17 4 33 4q44 -2 67 -34q16 -22 16 -45q0 -10 -6.5 -33t-63.5 -38q-58 -20 -105 -52q-32 -22 -71 -61q-35 -41 -57 -84q-15 -26 -23 -50q-35 -80 -35 -165q0 -51 20 -99q20 -43 60 -43q37 0 88 34q35 21 74 60q30 30 53 70q16 28 22 53
q24 67 89 67q68 0 74 -72q-8 -112 -97 -214q-43 -47 -91 -85q-106 -83 -217 -83z" />
    <glyph glyph-name="Igrave" unicode="&#xcc;" horiz-adv-x="592" 
d="M458 1330q-32 0 -65 22q-16 8 -34 15l-51 21q-18 9 -86 34l-97 37q-18 6 -26 10l-28 11q-34 14 -53 24q-18 13 -18 35q0 7 4.5 26.5t29 46t53.5 28.5q21 0 42 -6q39 -9 76 -21l12 -3q16 -5 32 -11t31 -11q22 -6 81 -29q13 -4 25.5 -9t25.5 -9q31 -10 99 -44h1
q16 -8 32 -18l6 -3q22 -23 22 -47q0 -51 -63 -86q-25 -13 -51 -13zM103 192q-6 0 -11 1l-19 29q-24 32 -24 51q0 21 72 42l10 3q-3 24 -6 100q-3 22 -3 85q-3 78 -3 150l1 77q0 107 3 149q0 15 3 72q1 35 3 69l4 64q0 25 11 102l-16 13q-36 25 -36 39t35 33q42 19 116 19
l34 -1q15 -2 29.5 -2t27.5 -5q20 -15 20 -30q0 -16 -15 -44q-5 -4 -5.5 -5t-2 -2t-3 -3t-9.5 -10q-3 -5 -7 -9l-8 -3v-99q-2 -32 -2 -64t-2 -66q-1 -21 -1 -71q0 -59 -2 -73l-1 -125q1 -12 1 -25l1 -121q0 -44 1 -60.5t1 -33.5t1 -34l1 -67q55 -9 55 -46q0 -28 -31 -62
l-6 -8q-11 -14 -31 -17l-20 -3l-60 -1q-42 -3 -56 -3l-32 -4q-16 0 -18 -1zM265 200l7 1h34z" />
    <glyph glyph-name="Iacute" unicode="&#xcd;" horiz-adv-x="505" 
d="M123 1358q-20 0 -54.5 15t-58.5 44q-10 12 -10 24q0 15 18 29l21 18q2 1 3 3l37 27l35 23q8 4 22 14q10 8 43 27l46 29q15 7 30 17q49 31 63.5 39t27.5 15q17 8 35 8q31 0 57.5 -20.5t39.5 -49.5q7 -15 7 -28q0 -10 -6 -19.5t-34 -27.5q-5 -2 -9 -5l-94 -55
q-9 -6 -17 -10.5t-29 -16.5q-5 -4 -12.5 -8.5t-15.5 -9.5q-27 -18 -41 -25l-16 -11q-3 0 -27 -16q-6 -4 -11.5 -7t-10.5 -7q-10 -6 -19 -11t-20 -5zM147 192l-11 1l-19 29q-24 32 -24 51q0 17 44 32l34 12l4 1l-3 36l-4 80q0 39 -2 69l-1 52q0 11 -1 21l-1 77l2 152l2 74
q3 51 3 72q1 35 3 69l2 29q2 36 3 37q4 62 10 100l-15 13q-37 25 -37 39t36 33q11 5 24 8.5t27.5 5.5t28.5 4l35 1l34 -1q15 -2 29.5 -2t28.5 -5q19 -15 19 -30q0 -16 -14 -44q-1 0 -2.5 -1.5l-3 -3t-2.5 -2t-1.5 -1.5t-1.5 -2q-8 -8 -9 -10q-6 -10 -15 -12h-1q1 -14 1 -74
q-2 -24 -2 -64l-1 -24v-33q-2 -34 -2 -75q0 -45 -2 -89q0 -26 -1 -37l1 -274q3 -54 3 -102q0 -14 1 -27q0 -27 1 -40q53 -9 53 -46q0 -28 -30 -62l-6 -8q-7 -9 -10 -10q-10 -5 -22 -7l-19 -3h-43q-8 -1 -17 -1q-42 -3 -55 -3q-5 0 -9 -1l-31 -3h-7zM311 200l-1 1h41z" />
    <glyph glyph-name="Icircumflex" unicode="&#xce;" horiz-adv-x="567" 
d="M419 1349h-8q-13 8 -24 18l-69 58q-9 8 -21 16l-1 1q-30 20 -44 20q-16 0 -43 -24l-14 -10q-33 -22 -63 -47q-24 -16 -57 -16q-28 0 -51.5 12t-23.5 40q8 18 32 44l25 23q13 12 27 23l47 42q11 9 22.5 17.5t23.5 17.5q30 18 59 27q12 1 29 1q27 0 54 -7q18 -4 32 -11
q41 -18 62 -32h1q45 -27 58 -40q6 -3 25.5 -19t26.5 -21q12 -10 21 -22q2 -9 2 -17q0 -39 -40 -65q-45 -29 -88 -29zM140 192l-11 1l-19 29q-24 32 -24 51q0 17 44 32l34 12l4 1l-3 36l-4 80l-1 39l-1 30q-3 75 -3 150l1 77q0 65 3 149q3 51 3 72q1 35 3.5 67.5t3.5 67.5
l11 100l-16 13q-36 25 -36 39t35 33q47 19 116 19l34 -1q15 -2 29.5 -2t28.5 -5q19 -15 19 -30q0 -16 -15 -43v-2q-3 -2 -4.5 -3.5t-2.5 -2t-1.5 -1.5t-2 -2.5l-5.5 -5.5l-10 -13q-3 -2 -8 -3h-1l1 -14l-1 -13l1 -16l-2 -95q0 -29 -2 -57l-1 -75q0 -45 -2 -89q0 -25 -1 -35
v-104q0 -123 1 -146v-26q2 -36 2 -67q0 -36 2 -62v-40q55 -9 55 -46q0 -28 -31 -62l-6 -8q-10 -14 -30 -17t-21 -3h-43q-8 -1 -17 -1q-42 -3 -56 -3l-8 -1q-24 -3 -32 -3t-10 -1zM303 200l6 1h34z" />
    <glyph glyph-name="Idieresis" unicode="&#xcf;" horiz-adv-x="435" 
d="M72 1347q-14 0 -37.5 7t-34.5 47v28l3 28l10 53l2 7q2 8 6 16q20 40 52 40t58.5 -22.5t34.5 -51.5q0 -6 -2 -16q-4 -15 -4 -39q-2 -6 -2 -23l-1 -23q-13 -30 -47 -43q-19 -8 -38 -8zM315 1366q-1 0 -28 0.5t-51 44.5q-2 7 -2 15l1 10q3 18 4.5 25t3.5 13q6 34 16.5 58
t20.5 36q7 1 16 1q35 -4 75.5 -25.5t43.5 -55.5q-1 -7 -3 -13.5t-3 -12.5l-4 -26q-3 -28 -9 -39q-32 -31 -81 -31zM70 192q-6 0 -11 1l-20 29q-24 32 -24 50q0 22 73 43l9 3l-3 54q-3 31 -3 62q-2 35 -2 69q-3 63 -3 227l1 27q0 80 3 122q0 15 3 72q1 35 3 69l4 64
q0 11 5 56q4 37 6 46l-16 13q-36 25 -36 40q0 14 35 32q40 18 115 19q53 -3 66 -3t26 -5q20 -15 20 -30q0 -16 -15 -43q0 -3 -7 -7l-2 -2l-18 -21l-8 -3v-99q-3 -60 -3 -96l-1 -34l-1 -41q0 -60 -1 -89q-2 -14 -2 -139q0 -45 1 -66v-80l1 -26q0 -51 3 -102l1 -67
q54 -9 54 -47q0 -32 -37 -69q-7 -14 -31 -17l-19 -3h-43l-17 -1q-45 -3 -56 -3l-9 -1q-22 -3 -24 -3h-6h-7zM233 200q0 1 5 1h35z" />
    <glyph glyph-name="Eth" unicode="&#xd0;" horiz-adv-x="1021" 
d="M369 106q-38 0 -73 42q-34 49 -56 122q-48 147 -62 297q0 6 -1 8q-11 -1 -23 -1l-23 -2q-51 -3 -67 -3q-64 4 -64 68q0 80 85 97q39 9 78 13l2 1h4l-1 39l2 57l3 64q5 66 12 105q4 35 6 41.5t2 10.5l-1 -1q-26 -25 -57 -25h-16q-14 0 -20 20q-3 4 -3 20q1 1 1 2.5t1 3.5
q2 17 14 34q17 31 30 46q16 21 44 44q73 61 170 91l4 2q74 23 151 23h21l16 1q77 -4 140 -27q133 -49 216 -164q73 -102 91 -254q6 -43 6 -90q0 -55 -8 -110q-23 -140 -80 -233q-64 -100 -153 -151l-2 -1q-16 -9 -34 -17l-8 -3q-61 -24 -130 -25q-40 0 -69 7q-42 9 -66 19
q0 1 -1 1q-15 6 -29 15l-12 8l15 -47q2 -5 3 -11q14 -40 14 -58q0 -55 -44 -73q-14 -6 -28 -6zM590 384q14 0 23 3q23 4 47 16q15 5 36 19q64 40 106 128v2q10 21 17 43q28 90 28 195q0 70 -13 130q-25 112 -94 177q-65 58 -131 76q-50 16 -107 16l29 1h-43q-58 -4 -114 -23
l-15 -6l4 -1q3 -7 3 -15q0 -42 -9 -120q-5 -33 -6 -68q-7 -69 -7 -142v-50q17 0 37 2.5t35 2.5t29 1q134 0 134 -66q0 -1 -1.5 -29.5t-63.5 -83.5q-14 -5 -28 -5l-38 1l-5 1l-37 -1q-25 0 -41 -1q-5 -1 -11 -1v-6q8 -82 21 -141l3 -14l3 2q17 4 32 12h4q16 0 30 -9l8 -5
q12 -13 50 -26l11 -3q9 -4 21.5 -6t14.5 -4l25 -2h13zM570 384v0v0zM577 383z" />
    <glyph glyph-name="Ntilde" unicode="&#xd1;" horiz-adv-x="987" 
d="M487 1490q-23 0 -47 4q-60 18 -108 62q-10 7 -20 18q-2 3 -3.5 4t-30.5 30q-15 17 -28 17q-12 0 -35 -27l-5 -6q-11 -11 -16 -20v-1q-6 -9 -10.5 -18.5t-7 -12.5t-4.5 -7q-20 -20 -60 -20q-29 0 -48 17q-6 14 -6 35q0 12 2 23q3 17 17 51l1 2q5 13 12 24q22 33 37 48
q19 23 53 41q38 20 81 20q20 0 33 -2q28 -5 67 -30q20 -15 61 -56l16 -15l6 -5q23 -19 33 -21q10 -6 17 -6q10 0 33 16l15 12q13 11 27 30q3 6 6 10.5l5 7.5q30 28 71 28q35 0 59 -19q17 -15 17 -43q0 -23 -16 -53q-14 -22 -41 -55q-76 -83 -183 -83zM701 67h-18
q-48 12 -91 55q-65 68 -132 199q-43 84 -99 230q-28 77 -40 117l-18 51q-7 20 -13.5 40.5t-14.5 41.5l-52 152l-14 39l-5 -47q-5 -35 -12 -144q-5 -64 -6 -128l-1 -20q0 -115 3 -178q0 -26 2 -44l4 -100l-1 -45q-5 -50 -40 -73q-23 -14 -47 -14q-12 0 -36.5 8t-31.5 64
q-14 43 -20 101q-17 109 -17 221l-1 41q0 93 4 161q0 29 5 91q3 49 10 97l8 64q8 72 26 143q0 8 9 37q13 50 40 80q23 23 41 28q12 3 29 3l18 -1h27q27 -9 48 -28q28 -25 55 -76q8 -18 38 -93l18 -48l32 -87l26 -74q22 -63 44 -127l34 -96q12 -31 37 -103q12 -34 76 -192
q15 -39 35 -77l3 -5q4 -9 10 -18l3 -6v1q0 16 -1 31l-1 16l-3 37l-8 73q-2 22 -8 62l-16 125q-11 105 -16 190q-3 87 -3 114l1 41q0 54 6 93q2 25 3 26q7 56 15 87q15 54 26 79q29 71 80 114q34 28 70 33l30 1q51 0 89 -37q27 -27 27 -61q0 -30 -20 -51t-43 -21q-14 0 -27 8
q-19 8 -24 8q-10 0 -23 -23v-1q-26 -37 -38 -113l-1 -6l-5 -34q-9 -66 -9 -142q0 -45 3 -83l14 -168l8 -62l6 -51l26 -170q7 -48 12 -108l2 -49q0 -91 -26 -134q-34 -56 -78 -62q-18 -3 -43 -3z" />
    <glyph glyph-name="Ograve" unicode="&#xd2;" horiz-adv-x="953" 
d="M640 1438q-17 0 -34 6q-12 7 -25 13l-6 3q-47 22 -72 31q-17 9 -39 17l-61 22q-20 7 -43 17l-53 20l-54 21q-24 9 -54 24q-18 14 -18 35q0 36 35 73q26 28 57 28q24 0 114 -26l75 -25l81 -29q33 -14 50 -19q36 -12 100 -44q22 -10 38 -21q23 -23 23 -48q0 -51 -63 -84
q-25 -14 -51 -14zM465 152q-58 0 -115 17q-76 26 -127 70q-47 39 -100 111q-88 126 -114 304q-9 63 -9 127q0 58 10 126q26 174 109 287q26 35 44 51q40 42 98 71q80 32 166 32q124 0 239 -48q57 -27 108 -81q98 -107 133 -235q19 -73 23 -139l1 -4q2 -26 2 -52
q0 -113 -37 -230q-23 -71 -56 -133q-41 -84 -119 -162q-58 -53 -109 -78q-71 -34 -147 -34zM462 343q68 0 139 76q29 33 58 84q40 70 62 163q14 56 16 111q0 94 -22.5 166t-67.5 128q-85 101 -217 101q-91 0 -169 -118q-25 -46 -40 -100q-9 -36 -16 -72q-6 -50 -6 -101
q1 -98 21 -172q16 -61 47 -117q89 -149 195 -149z" />
    <glyph glyph-name="Oacute" unicode="&#xd3;" horiz-adv-x="953" 
d="M288 1442q-20 0 -54.5 15t-58.5 44q-10 12 -10 24q0 15 18 29l21 18l25 19q8 5 16 11t34 23q13 6 36 23q9 6 19 11l39 25q9 5 16 9.5t14.5 8.5t16.5 10l38 23q14 7 27 16l26 15q18 8 35 8q31 0 57.5 -20.5t39.5 -49.5q7 -16 7 -29q0 -22 -24 -36q-20 -12 -26.5 -15.5
t-13.5 -8.5q-14 -7 -26 -15l-22 -13q-10 -5 -31 -19l-33 -19q-6 -4 -13 -7q-11 -9 -41 -26l-44 -28q-3 0 -27 -16l-40 -26q-9 -4 -21 -4zM465 147q-137 0 -243.5 86.5t-172.5 252.5q-49 137 -49 290q0 57 10 125q10 78 40 156t68 131l7 9q53 71 136 113q77 32 169 32
q122 0 236 -48q79 -38 150 -131q44 -61 69 -119q21 -56 37 -134q11 -77 11 -144q-1 -36 -6 -72q-12 -83 -32 -140q-39 -135 -130 -247q-17 -23 -45 -48q-52 -50 -108 -78q-66 -34 -147 -34zM461 337q108 0 198 160q23 43 41 92l5 14l16 57q15 72 15 131l-1 37q-7 69 -21 108
q-3 13 -17 47q-23 50 -51 82q-27 37 -65 60q-71 41 -151 41q-92 0 -169 -118q-24 -42 -40 -100l-3 -8q-8 -32 -13 -64q-7 -48 -7 -114q0 -73 21 -158q16 -61 47 -117q90 -150 195 -150z" />
    <glyph glyph-name="Ocircumflex" unicode="&#xd4;" horiz-adv-x="953" 
d="M618 1335h-8q-13 7 -25 17q-9 11 -23 20q-36 33 -50 42l-17 13q-30 20 -44 20q-16 0 -43 -23l-30 -21l-47 -36q-23 -16 -60 -16q-26 0 -49 12t-23 39q5 12 12 22q32 35 45 45q34 31 74 65q28 23 46 35q27 19 59 27q14 2 29 2q55 0 117 -33l32 -18q47 -28 58 -39l39 -30
q6 -6 13 -11q12 -9 21 -21q2 -9 2 -17q0 -39 -40 -65q-45 -29 -88 -29zM465 89q-57 0 -115 17q-77 27 -127 70q-48 39 -100 111q-88 126 -114 304q-9 58 -9 119q0 67 10 134q26 174 109 287q24 32 44 51q40 42 98 71q80 32 165 32q125 0 240 -48q58 -28 108 -82
q44 -45 79 -105.5t54 -128.5q19 -73 23 -139q3 -10 3 -56q-1 -115 -37 -230q-46 -146 -131 -247q-8 -12 -44 -48q-59 -53 -109 -78q-71 -34 -147 -34zM461 280q108 0 198 160q39 70 62 163q14 56 16 111q0 94 -22 165q-6 21 -18 46q-15 39 -50 83q-84 100 -217 100
q-91 0 -168 -117q-40 -68 -56 -172q-8 -51 -8 -102q0 -92 22 -171q15 -61 47 -117q89 -149 194 -149z" />
    <glyph glyph-name="Otilde" unicode="&#xd5;" horiz-adv-x="953" 
d="M590 1304q-74 0 -133 48q-32 24 -42 36l-35 34q-14 17 -27 17t-35 -27l-12 -12l-10 -15q-4 -7 -6 -11.5t-4 -6.5q-5 -10 -7.5 -13t-4.5 -7q-18 -20 -59 -20q-29 0 -49 17q-6 14 -6 36q0 11 3 22v1q6 25 16 50l1 2q15 32 49 73q60 60 135 60q40 0 68.5 -14t54.5 -38
q29 -27 39 -38l21 -18q4 -4 9 -7q13 -11 24 -14q8 -6 16 -6q14 0 44 24l5 4q21 21 33 41l4 7q30 28 73 28q33 0 57 -19q19 -15 19 -43q0 -11 -3 -24q-15 -32 -34 -57q-79 -110 -204 -110zM465 89q-58 0 -115 17q-76 26 -127 70q-47 38 -101 111q-89 133 -113 304
q-9 63 -9 127q0 58 10 126q10 78 39 154t69 133q4 4 7 9q17 23 37 42q45 44 99 71q80 32 166 32q123 0 239 -48q78 -38 150 -131q41 -54 69 -119q25 -62 37 -135q11 -77 11 -143q-3 -105 -37 -213q-21 -68 -56 -133q-32 -61 -75 -114l-5 -6q-19 -22 -40 -42
q-58 -53 -108 -78q-71 -34 -147 -34zM461 280q69 0 140 76q29 33 58 84q29 55 41 92l5 14q31 98 31 187l-1 37q-10 100 -38 155q-20 45 -50 83q-84 100 -217 100q-92 0 -169 -117q-35 -60 -56 -172q-7 -50 -7 -114q0 -71 21 -159q16 -64 48 -118.5t67 -88.5q64 -59 127 -59z
" />
    <glyph glyph-name="Odieresis" unicode="&#xd6;" horiz-adv-x="953" 
d="M326 1375q-14 0 -37 7t-35 48l1 28l1 8q3 33 7 46q0 9 5 26l7 24q20 40 53 40q30 0 59 -24q26 -22 34 -51l-1 -6q-3 -14 -4 -28q0 -2 -1 -3q-1 -9 -1 -24l-1 -16q0 -12 -2 -24q-13 -29 -46 -43q-20 -8 -39 -8zM570 1394q-2 0 -28.5 0.5t-50.5 44.5q-2 8 -2 15q0 5 0.5 9
t7.5 40q1 5 5.5 24.5t11.5 33.5q12 25 21 35q4 1 9 1q35 0 82 -25q41 -22 44 -56q-9 -32 -9 -45q-1 -2 -1 -4.5t-1 -4.5q-1 -8 -2 -17.5t-6 -19.5q-32 -31 -81 -31zM465 89q-137 0 -242 87q-48 39 -100 111q-89 133 -114 304q-9 58 -9 119q0 150 49 289q46 118 114 183
q42 42 98 71q80 32 165 32q125 0 241 -48q58 -29 107 -82q44 -45 80 -107q30 -49 54 -127q23 -98 23 -143q2 -25 2 -52q0 -80 -18 -160q-13 -65 -44 -138q-27 -68 -66 -125q-37 -57 -84 -102q-59 -53 -109 -78q-71 -34 -147 -34zM462 280q53 0 106 44q70 58 116 167
q14 32 21 55q32 101 32 187q0 73 -22 146q-6 21 -18 46q-17 44 -50 83q-84 100 -216 100q-92 0 -169 -117q-23 -40 -40 -100q-7 -14 -16 -72q-8 -51 -8 -102q0 -92 22 -171q15 -61 47 -117q35 -59 68 -90q64 -59 127 -59z" />
    <glyph glyph-name="multiply" unicode="&#xd7;" horiz-adv-x="671" 
d="M69 317q-17 0 -31 11q-28 20 -28 52q0 12 16 66q125 143 189 212q-65 64 -121 117q-62 55 -78 75q-16 24 -16 53q0 18 10 31q22 28 53 28q18 0 66 -16q133 -116 197 -175q154 150 205 179q30 18 55 18q10 0 19 -3q43 -10 43 -63q0 -30 -21 -61q-14 -18 -126 -126
q-45 -45 -58 -57q160 -164 191 -216q17 -30 17 -54q0 -11 -3 -20q-10 -43 -63 -43q-30 0 -61 21q-17 12 -126 126l-71 72q-72 -72 -130.5 -135t-73.5 -76q-24 -16 -54 -16z" />
    <glyph glyph-name="Oslash" unicode="&#xd8;" 
 />
    <glyph glyph-name="Ugrave" unicode="&#xd9;" horiz-adv-x="783" 
d="M556 1380q-16 0 -33 5l-30 17q-17 8 -35 15q-40 16 -50 21q-27 12 -87 34l-44 16q-14 6 -27.5 11l-27 10t-26 10.5t-26.5 10.5q-34 14 -53 24q-18 13 -18 35q0 7 4.5 26.5t29 46t54.5 28.5l11 -1q54 -7 118 -30l63 -21q16 -4 52 -18l9 -3q10 -4 21.5 -8t24 -9t25.5 -9
q17 -5 34 -14q30 -11 65 -30l39 -21q23 -23 23 -48q0 -50 -64 -85q-26 -13 -52 -13zM389 141q-87 0 -154 44q-50 33 -87 82q-20 23 -36 50q-37 56 -61.5 123.5t-38.5 145.5q-12 78 -12 159q0 90 10 160q7 65 26 129q1 7 21 71q9 25 19 49q44 84 90 84t77 -50q22 -36 22 -75
l-1 -15q-6 -19 -10 -39q-12 -49 -16 -93l-2 -17q-8 -53 -8 -83q-3 -40 -3 -81q0 -60 4 -105q13 -107 38 -182q22 -63 59 -120q6 -10 26 -36q31 -31 63 -31q3 0 23.5 1.5t55.5 40.5q13 13 23 28v1q47 67 64 131l7 26q8 24 14 64q9 68 9 101l1 18q0 30 -1 40l1 22q0 34 -1 52
l-1 10q-2 30 -7 71l-6 70v11q0 12 2 24q20 42 55 42q6 0 30.5 -4t36.5 -56l9 -35q4 -13 8 -37q8 -38 8 -49l12 -75q6 -44 6 -68l-1 -19l1 -22q0 -41 -3 -70q-1 -35 -14 -93l-11 -47l-15 -47q-19 -57 -46 -102q-47 -83 -114 -139q-76 -59 -145 -59z" />
    <glyph glyph-name="Uacute" unicode="&#xda;" horiz-adv-x="784" 
d="M289 1349q-20 0 -55 15t-58 44q-10 13 -10 24q0 15 17 29q43 35 62 47q11 10 57 38q7 4 15 9.5t15.5 9.5t12.5 8l57 35q10 5 19 11q13 9 38 23l53 31q17 8 35 8q30 0 57 -21t40 -49q7 -15 7 -28q0 -22 -24 -37q-20 -13 -26 -15q-42 -24 -54 -32q-4 -3 -9 -5
q-11 -5 -63 -38q-6 -4 -13 -7l-57 -36q-13 -9 -29 -18q-3 0 -38 -24l-17 -10q-17 -12 -32 -12zM390 141q-28 0 -56 4q-107 21 -186 122q-37 44 -68 107q-45 93 -67 212q-13 85 -13 159q0 41 3 81q0 61 20 153q14 65 35 126l18 49q45 84 90 84q47 0 78 -50q21 -35 21 -73
l-1 -17q-13 -41 -26 -132l-10 -100q-2 -31 -2 -81q1 -105 13 -170q10 -60 26 -111q10 -31 44 -98q27 -47 46 -66q25 -29 61 -29q3 0 23 1.5t56 40.5q12 13 22 28q0 1 1 1q47 69 64 131q2 13 7 26q11 46 18 94l1 8q4 38 4 63q0 35 1 69l-1 11v28l-1 34l-6 56q-3 16 -3 36
l-3 29q-2 18 -2 36q0 9 2 19q20 42 56 42q5 0 31.5 -4.5t40.5 -76.5l4 -14q3 -17 8 -37q3 -24 8 -50t8 -53q8 -44 8 -72l1 -36q0 -46 -2 -92q-1 -35 -14 -93l-4 -17q-3 -15 -8 -30l-14 -47q-25 -68 -46 -102q-17 -31 -49 -71q-67 -85 -144 -114q-36 -13 -66 -13z" />
    <glyph glyph-name="Ucircumflex" unicode="&#xdb;" horiz-adv-x="784" 
d="M550 1352h-8q-22 12 -47 37l-23 20q-37 30 -44 34q0 1 -1 1q-28 20 -44 20t-42 -23q-23 -14 -53 -39q-13 -9 -25 -19q-23 -15 -60 -15q-25 0 -48.5 11.5t-23.5 39.5q7 16 32 44l25 23q13 12 27 23l38 34l32 26q36 30 82 44l34 1q38 0 76 -15q34 -11 98 -54l29 -20
q1 -2 26 -21l25 -20q12 -10 22 -22l1 -15q0 -40 -40 -66q-44 -29 -88 -29zM389 141q-115 0 -201 82q-43 40 -75 94q-44 63 -84 193q-29 122 -29 235q0 41 3 81q0 31 7 79q8 60 26 129l3 12q12 39 37 108q44 84 90 84q47 0 77 -50q22 -36 22 -75l-1 -15q-6 -19 -10 -39
q-12 -49 -16 -93l-2 -17q-3 -20 -4 -39t-4 -44q-3 -40 -3 -81q0 -63 5 -105q10 -100 37 -182q11 -29 25 -57q25 -56 61 -99l1 -2q26 -29 61 -29q3 0 23.5 1.5t56.5 40.5q12 13 22 28v1q34 50 55 102q10 27 12 39l10 41q6 22 12 69q3 13 5 48l1 23v80q0 34 -1 52q0 9 -4 43
l-7 73q-2 16 -2 35q-1 3 -1 11q0 12 2 24q20 42 55 42q6 0 30 -4q32 -5 49 -103q7 -30 12 -64l2 -10q7 -53 11 -75l5 -43v-8q1 -18 1 -81q-3 -63 -8 -94q-14 -83 -34 -139l-1 -1q-15 -45 -39 -91l-7 -11q-14 -28 -48 -71q-67 -85 -144 -114q-37 -13 -66 -13z" />
    <glyph glyph-name="Udieresis" unicode="&#xdc;" horiz-adv-x="783" 
d="M261 1363q-15 0 -38.5 6.5t-34.5 47.5v9q0 10 1 19q0 15 4 39l3 16q0 11 7 32q19 57 58 57q31 0 60 -24q25 -22 33 -51q0 -8 -2 -15q-4 -20 -4 -40q-2 -6 -2 -22l-1 -24q-13 -29 -47 -43q-19 -7 -37 -7zM503 1382q-1 0 -28 0.5t-51 43.5q-2 8 -2 16q2 24 9 48q5 33 17 58
q8 20 20 36l8 1q37 0 84 -26q40 -22 43 -56q-1 -6 -3 -12.5t-3 -13.5l-4 -26q-3 -27 -9 -38q-32 -31 -81 -31zM389 141q-28 0 -55 4q-111 22 -186 122q-20 23 -36 50q-37 56 -59 122q-53 133 -53 306q0 41 2 81l1 10q6 107 33 198l3 12q11 38 25 75q5 17 12 33q44 84 90 84
t77 -50q22 -36 22 -75l-1 -15q-6 -19 -10 -39q-12 -49 -16 -93l-2 -17q-8 -53 -8 -83q-3 -40 -3 -81q0 -60 4 -105q13 -107 38 -182q22 -63 59 -120q6 -10 26 -36q31 -31 63 -31q3 0 23.5 1.5t55.5 40.5q13 13 23 28v1q47 67 64 131q1 3 8 26.5t13 62.5l5 39q5 32 5 101
q0 76 -1 94l-6 66l-4 36q-2 15 -2 29q-2 23 -2 31q0 12 2 24q20 42 55 42q6 0 30 -4q32 -5 49 -103q7 -30 12 -64l2 -10q6 -50 11 -75l5 -43v-44l1 -22q0 -41 -3 -70q-1 -35 -14 -93l-11 -47l-15 -47q-19 -57 -46 -102q-47 -83 -114 -139q-76 -59 -144 -59z" />
    <glyph glyph-name="Yacute" unicode="&#xdd;" horiz-adv-x="675" 
d="M230 1408q-20 0 -55 15t-58 44q-10 13 -10 24q0 15 17 28q23 21 61 48q23 17 58 38l32 20q5 3 10.5 6t9.5 7l37 22l67 41q8 3 28 16q13 7 27.5 15t30.5 8q32 0 59.5 -21t40.5 -49q7 -15 7 -28q0 -10 -5 -19q-10 -14 -59 -42l-49 -28l-31 -19q-24 -15 -32 -19l-41 -25
q-7 -5 -14.5 -9t-14.5 -9q-30 -19 -31 -19l-53 -33q-17 -12 -32 -12zM350 27q-45 0 -82 19q-31 12 -53 38q-20 20 -20 27q-18 26 -27 65q-6 24 -6 51q0 39 7 61q27 56 74 56q38 0 61 -50q4 -13 4 -35l-1 -11q8 -55 31 -55q2 0 16 1t40 33q30 30 49 82l1 3q6 16 10 33l2 5
q11 49 16.5 88.5t7.5 79.5q0 67 -3 110q0 39 -3 63v13l-4 -7q-24 -49 -55 -83q-76 -91 -167 -108h-38q-74 0 -127 55q-36 40 -57 109q-26 101 -26 204q0 90 8 154q10 89 21 141q9 38 16 60q47 126 110 126q76 0 76 -117v-10q-11 -38 -21 -89l-1 -6q-17 -92 -17 -121
q-7 -61 -7 -138l3 -60q0 -14 8 -57q10 -76 32 -76q20 0 65 55q21 29 38 62l2 3q26 49 45 106l1 4q16 57 27 115l3 17q4 16 6 32l8 65q4 22 7 45l1 15q3 21 3 31l1 20q0 12 1 22q0 48 41 64q17 7 34 7q20 0 48 -12t34 -63q7 -28 17 -88q10 -69 14 -123l5 -54l8 -89l12 -191
l3 -56q3 -48 3 -95q0 -70 -3 -105l-1 -22q-5 -52 -11 -81q-2 -10 -3 -11q-8 -44 -22 -87q-6 -20 -14 -38.5t-17 -35.5v-1q-9 -17 -19 -32l-22 -30q-14 -18 -45 -46q-55 -42 -109 -52q-18 -5 -39 -5z" />
    <glyph glyph-name="Thorn" unicode="&#xde;" horiz-adv-x="635" 
d="M126 181q-35 0 -70.5 25t-36.5 82q-3 30 -3.5 61t-3.5 63l-3 67q0 31 -2 67.5t-2 71t-1.5 69.5t-1.5 70l-1 31l-1 111l2 59q1 4 1 9l1 41q3 39 4 78l5 48q20 84 98 84q63 0 97 -64l-1 -137q48 11 82 11q22 0 44 -3q102 -13 167 -70q58 -55 82 -114q33 -77 33 -162
q0 -61 -12 -110v-1q-8 -38 -25 -77l-1 -2q-19 -48 -65 -101q-6 -4 -11 -9q-30 -34 -81 -57l-8 -3q-31 -14 -67 -20h-1q-16 -4 -32 -4.5t-24 -1.5l-32 -1l-31 1q-1 -27 -9 -52q-27 -60 -90 -60zM219 472q25 2 37 2q31 3 63 12l15 10q25 19 39 41q6 6 11 20q9 18 16 46l3 18
l1 10l1 3l2 27q0 55 -8 79q-1 3 -1 7q-9 27 -17 38q-2 2 -3.5 4.5t-3.5 3.5q-5 7 -11 13q-43 33 -71 40q-24 6 -50 6q-24 0 -32 -1l-2 -1q0 -43 1 -65q0 -30 4 -163q1 -13 1 -27l3 -81q1 -14 1 -34z" />
    <glyph glyph-name="germandbls" unicode="&#xdf;" horiz-adv-x="738" 
d="M149 2q-48 0 -64 59q-4 9 -6.5 17.5t-5.5 16.5q-4 19 -10 39t-22 92q-7 36 -17 105q-7 52 -13 116l-1 8q-6 72 -6 108q0 43 -3 91q-1 11 -1 60q0 45 1 71v2q2 36 2 54q2 46 11 101q0 11 9 47q16 70 43 124q8 17 18 33l4 5q17 26 26 35q23 28 66 54q86 48 158 51l28 2
q67 0 119 -19q91 -27 129 -104q14 -33 14 -66q0 -35 -8 -60q-3 -16 -10 -30l-3 -7q-25 -50 -54 -79q-10 -13 -21 -22q-15 -15 -20 -20.5t-11 -10.5l-18 -18l-13 -15h-1l6 -5l53 -36l34 -26q24 -15 67 -58l11 -12q26 -31 30 -37q36 -54 46 -119l1 -9l1 -22q0 -37 -7 -74
l-4 -17l-10 -34q-6 -15 -11 -25l-5 -10q-17 -30 -32 -45l-11 -12q-11 -10 -22.5 -18.5t-32.5 -23.5q-9 -4 -17 -9l-3 -1q-10 -6 -20 -9v-1q-17 -8 -38 -14q-12 -6 -32 -9l-14 -3q-5 0 -10 -1.5t-30 -5.5l-27 -3q-37 7 -54 43q-11 23 -11 46q0 14 7.5 40t54.5 37q2 0 5.5 1
t9.5 1q10 3 26 6l26 8q10 5 18 10t12 11q2 1 3 3t3 4t3.5 4.5t3.5 5.5t5 6q5 8 7 17q6 15 8 23q0 3 1 7t2 7l3 14v10q-1 6 -1.5 13.5t-4 19.5t-9.5 20l-1 2q-3 5 -8 9l-1 2l-12 13l-1 2q-18 20 -33 31l-20 16l-10 7q-17 13 -35 24q-13 8 -24 18q-4 4 -9.5 8t-37.5 35
q0 1 -1 1q-47 57 -47 116q0 12 2 25q5 28 28 67q5 5 8.5 10.5t22.5 30.5q8 12 16 21t28 33l31 37q9 9 13 19q1 0 1 1l-3 1q-24 6 -45 6q-5 0 -19.5 -1t-59.5 -28l-4 -3l-12 -11q-4 -5 -6.5 -9.5t-5.5 -8.5q-6 -10 -10 -20l-2 -3q-13 -36 -18 -60q-1 -7 -3 -13
q-2 -12 -4.5 -22.5t-9.5 -84.5q-4 -50 -4 -84v-85q0 -36 2.5 -65.5t2.5 -54.5l2 -28t1 -30l2 -24q0 -19 2 -37l1 -18q6 -59 9 -79l2 -25l24 -189q3 -23 3 -46l-1 -17q-53 -47 -115 -47z" />
    <glyph glyph-name="agrave" unicode="&#xe0;" horiz-adv-x="681" 
d="M459 1089q-13 0 -27 4q-28 16 -50 24q-32 13 -40.5 17t-19.5 8q-54 20 -68 26l-12 4q-11 5 -21.5 8.5t-19.5 7.5q-15 7 -21 8q-48 19 -62 27q-12 11 -12 27q0 5 3 20.5t21 35.5t42 22q20 0 59 -12q24 -6 90 -28l63 -23q9 -3 18.5 -7t18 -6.5t15.5 -5.5t13 -5
q27 -11 50 -24q13 -6 25 -13q2 -2 5 -3q18 -17 18 -36q0 -40 -49 -66q-19 -10 -39 -10zM583 -34q-8 0 -16.5 1.5t-20.5 15.5l-5 5q-38 63 -45 105q-24 94 -31 168l-3 33l-2 -4q-37 -47 -48 -58q-38 -40 -80 -64h-1q-50 -30 -109 -30q-90 0 -148 66q-39 41 -58 104
q-16 59 -16 115q0 78 25 160q25 74 63.5 136.5t89.5 109.5l2 1q23 20 49 37q71 42 159 43q61 0 109 -30q10 -5 25 -20v-1q25 -25 26 -52q0 -13 -3 -15q-10 -32 -103 -32h-13q-51 0 -94 -14q-60 -35 -98 -98q-63 -105 -67 -216q0 -23 4 -46q13 -81 56 -81q29 0 84 51v1
q28 26 42 44l9 12l46 55q5 8 10 14.5t9 12.5q8 8 26 36l5 8q1 13 2 25l2 11q6 40 11 54q1 1 1 3l7 14q12 19 47 19q10 0 26 -2q36 -6 36 -24q0 -3 -2 -7l5 -3q5 -6 5 -13q2 -1 2 -14l-1 -12l-1 -80q0 -90 3 -156q1 -9 1 -19q6 -58 14 -120l3 -16l7 -38l2 -7q6 -32 19 -77
l3 -11q6 -16 8 -33q-1 -38 -30 -55q-22 -12 -48 -12zM432 642q-2 1 -4 1t-2 1l3 3l2 -1z" />
    <glyph glyph-name="aacute" unicode="&#xe1;" horiz-adv-x="681" 
d="M222 1080q-52 0 -85 39q-10 11 -10 23q0 18 30 41l1 2q32 22 42 29.5t21 13.5l3 3q10 5 24 15l33 20q14 10 29 18q5 3 9 5.5t25 15.5t33 19l33 19q10 3 21 3q42 -4 71 -37q15 -17 15 -35q0 -17 -13 -35q-15 -10 -20.5 -13t-11.5 -7q-13 -6 -20.5 -11t-36.5 -22l-70 -42
q-5 -4 -11 -7.5t-12 -7.5q-10 -5 -24 -15l-32 -19q-19 -15 -44 -15zM583 -34q-8 0 -15 1t-22 16l-11 15q-19 28 -36 84l-3 11q-14 50 -22 104q-10 64 -10 83l-2 14q-8 -16 -49 -62q-43 -43 -80 -64h-1q-52 -30 -110 -30q-88 0 -148 66q-74 78 -74 233q8 154 89 283
q39 64 90 109q0 1 1 1q23 20 49 37q48 29 103 39q28 4 56 4q64 0 109 -30q10 -5 25 -20q0 -1 1 -1q24 -26 24 -52q0 -13 -2 -17t-6 -9q-18 -21 -97 -21h-13q-51 0 -93 -14q-55 -31 -99 -98q-63 -105 -67 -216q0 -46 14 -84q15 -43 46 -43q28 0 84 51l27 28q5 5 25 29.5
t45 54.5q9 14 20 27l30 44q0 12 2 25l2 11q4 29 11 54q1 1 1 3l8 14q10 19 46 19q10 0 25 -2q37 -6 37 -25l-1 -6q0 -1 1 -1.5t6 -5.5q4 -7 4 -23l-1 -12v-58l-1 -22q0 -73 1 -92q0 -43 4 -83q4 -58 14 -120l2 -16l7 -38l2 -7q6 -32 19 -77l3 -11q7 -16 8 -33q0 -38 -30 -55
q-22 -12 -48 -12zM432 642q-1 1 -2.5 1h-2.5t-1 1q1 2 3 3q1 0 1.5 -0.5t0.5 -1t0.5 -1.5t0.5 -2z" />
    <glyph glyph-name="acircumflex" unicode="&#xe2;" horiz-adv-x="681" 
d="M523 1087q-25 0 -53 23q-12 12 -27 24l-45 35q-15 15 -23 15q-11 0 -45 -24l-21 -15l-22 -17q-36 -27 -83 -27q-45 0 -45 31q0 12 6 28l17 20l64 57q12 10 19 17q28 22 39 29q33 24 75 25q38 0 69 -14l4 -1l26 -13q38 -20 51 -29.5t25 -18.5l33 -26q29 -23 29 -47
q0 -13 -13.5 -34t-51.5 -33q-15 -5 -28 -5zM583 -34q-8 0 -16.5 1.5t-20.5 15.5l-5 5q-38 63 -45 105q-24 94 -31 168l-3 33l-2 -4q-37 -47 -48 -58q-38 -40 -80 -64h-1q-50 -30 -109 -30q-90 0 -148 66q-39 41 -58 104q-16 59 -16 115q0 78 25 160q25 74 65 138.5t88 107.5
l2 1q23 20 49 37q71 42 159 43q40 0 76 -13q29 -12 37 -20l21 -18q25 -25 25 -55q0 -10 -2 -12q-10 -32 -103 -32h-13q-52 0 -94 -14q-60 -35 -98 -98q-63 -105 -67 -216q0 -43 14.5 -85t45.5 -42q29 0 84 51v1q23 21 51 56l46 55l10 15q25 30 34 48l6 8q1 13 2 25l2 11
q2 29 11 54q1 1 1 3l7 14q12 19 47 19q10 0 25.5 -2.5t26 -9.5t10.5 -14q0 -4 -2 -7l8 -7q2 -4 2 -9q2 -1 2 -14l-1 -12l-1 -80v-92l4 -83q4 -58 14 -120q2 -8 3 -17l7 -37l11 -50l13 -45q6 -16 8 -33q-1 -38 -30 -55q-22 -12 -48 -12zM432 642q-2 1 -3 1h-2t-1 1q1 2 3 3
q1 0 1.5 -0.5t0.5 -1t0.5 -1.5t0.5 -2z" />
    <glyph glyph-name="atilde" unicode="&#xe3;" horiz-adv-x="680" 
d="M436 1073q-51 0 -88 26q-23 14 -53 42q-4 2 -14 14l-13 12q-11 14 -22 14q-10 0 -28 -21q-2 -3 -4.5 -5t-4.5 -5l-14 -23q0 -4 -6 -10l-1 -3q-14 -22 -50 -22q-24 0 -40 13q-5 15 -5 29l2 18q6 20 14 40v2q15 30 39 57q18 20 42 32q28 16 63 16q17 0 27 -2q24 -3 54 -23
q27 -24 48 -45l2 -1l11 -10q3 -2 5 -5q14 -10 18.5 -12.5t7.5 -4.5q7 -4 14 -4t25 13q8 5 12 9q15 15 21 24l9 14q25 22 59 22q26 0 44 -15q15 -12 15 -34q0 -19 -14 -41v-1q-12 -21 -32 -43q-60 -67 -143 -67zM582 -34q-8 0 -16.5 1.5t-19.5 15.5q-25 25 -48 99l-3 11
l-11 44l-1 8q-13 58 -18 116q-1 10 -2 18t-1 15l-3 -4q-58 -83 -127 -122h-1q-50 -30 -109 -30q-88 0 -149 66q-37 40 -57 104q-16 52 -16 115q0 115 53 231q30 67 77 126l49 50q24 20 50 37q70 42 158 43q39 0 77 -13q33 -13 36 -20q12 -7 21 -17q0 -1 1 -1q25 -24 25 -55
l-1 -10l-1 -2q-10 -32 -104 -32h-13q-51 0 -93 -14q-79 -44 -126 -150q-39 -89 -39 -173q0 -33 14.5 -75.5t44.5 -42.5q13 0 28 9q25 13 56 42q1 0 1 1q25 23 74 84l33 42q12 15 27 36q3 6 8 13t5.5 15.5t1 15t1.5 12.5q5 36 12 54q0 3 8 17q10 19 47 19q10 0 25.5 -2.5
t26 -9.5t10.5 -14q0 -4 -2 -7l1.5 -1.5t5.5 -6t5 -26.5q0 -13 -2 -25l-1 -117q0 -37 2 -59q0 -79 17 -182q2 -16 10 -54q1 -3 1 -7q10 -45 21 -85q1 -1 1 -3q7 -16 8 -33q0 -38 -29 -55q-23 -12 -49 -12zM432 642q-2 1 -3 1h-2t-1 1q1 2 3 3l1 -1l0.5 -0.5t0.5 -1.5t1 -2z
" />
    <glyph glyph-name="adieresis" unicode="&#xe4;" horiz-adv-x="681" 
d="M211 1077q-27 0 -49 22q-7 11 -8 24q0 24 4 48.5t4 27.5q7 30 17 55q14 18 32 18q26 0 76 -44l13 -11q-1 -6 -3 -11t-4 -29q-1 -9 -1 -22l-1 -15q-3 -31 -9 -40q-35 -23 -71 -23zM431 1092h-5q-45 0 -68 39q-2 7 -2 13l1 9l8 42l6 21l7 20q12 24 18 30q5 1 14 1
q20 -2 47 -12t43 -28q12 -12 12 -26q0 -7 -3 -14.5t-3 -15.5l-5 -35q-21 -42 -70 -44zM583 -34q-8 0 -15 1t-22 16l-11 15q-17 24 -36 84l-3 11q-14 50 -22 104q-10 64 -10 83l-2 14l-2 -4l-47 -58q-43 -43 -80 -64h-1q-52 -30 -110 -30q-88 0 -148 66q-74 78 -74 233
q2 75 25 146t63 136t91 110q0 1 1 1q23 20 49 37q48 29 103 39q28 4 56 4q64 0 109 -30q10 -5 25 -20l1 -2q24 -24 24 -51q0 -13 -2 -17t-6 -9q-18 -21 -97 -21h-13q-51 0 -93 -14q-55 -31 -99 -98q-63 -105 -67 -216q0 -46 14 -84q15 -43 46 -43q28 0 84 51l1 1
q25 23 74 84l22 27q9 14 20 27l30 44q0 13 2 25l2 11q4 29 11 54q1 1 1 3l8 14q10 19 46 19q10 0 26 -2q36 -6 36 -25l-1 -6q0 -1 1 -1.5t6 -5.5q4 -7 4 -23l-1 -12v-59l-1 -21q0 -73 1 -92q0 -43 4 -83q2 -30 5.5 -60t7.5 -60q4 -16 10 -54l2 -7q6 -32 19 -77l3 -11
q6 -16 8 -33q0 -38 -30 -55q-22 -12 -48 -12zM432 642q-1 1 -2.5 1h-2.5t-1 1q1 2 3 3q1 0 1.5 -0.5t0.5 -1t0.5 -1.5t0.5 -2z" />
    <glyph glyph-name="aring" unicode="&#xe5;" horiz-adv-x="680" 
d="M582 -34q-8 0 -16.5 1.5t-19.5 15.5q-25 25 -48 99l-3 11l-11 44l-1 8q-13 58 -18 116q-1 10 -2 18t-1 15l-3 -4q-58 -83 -127 -122h-1q-50 -30 -109 -30q-88 0 -149 66q-37 40 -57 104q-16 52 -16 115q0 115 53 231q30 67 77 126l49 50q42 35 91 58q-34 23 -54 62
q-8 13 -16 38.5t-8 54.5q0 59 37 100q11 10 18 21q8 8 17 15q5 5 23 13q13 8 25 8l11 9q18 8 37 8q41 0 75 -15q30 -16 52 -38q3 -4 7 -7q29 -34 40 -64.5t11 -59.5q0 -16 -4 -31q-2 -16 -8 -30l-15 -27l-18 -25q-19 -19 -27 -23q-2 -1 -3 -3q23 -10 30 -17q12 -7 21 -17
q0 -1 1 -1q24 -24 25 -55l-1 -10l-1 -2q-10 -32 -104 -32h-13q-51 0 -93 -14q-79 -44 -126 -150q-39 -89 -39 -173q0 -33 14.5 -75.5t44.5 -42.5q13 0 28 9q25 13 56 42q1 0 1 1q25 23 74 84l33 42q12 15 27 36q3 6 8 13t5.5 15.5t1 15t1.5 12.5q5 36 12 54q0 3 8 17
q10 19 47 19q32 0 53 -13q9 -6 9 -13q0 -4 -2 -7l1.5 -1.5t5.5 -6t5 -26.5l-2 -43q0 -35 -1 -45q0 -91 2 -113q0 -79 17 -182q4 -33 21 -104l11 -42q1 -1 1 -3q7 -16 8 -33q0 -38 -29 -55q-23 -12 -49 -12zM374 993q21 0 36 15t15 36t-15 36t-36 15q-22 0 -37 -15t-15 -36
t15 -36t37 -15zM431 642q-1 1 -3 1h-2v1l1 1q0 2 2 2l1 -1q1 -1 1 -4z" />
    <glyph glyph-name="ae" unicode="&#xe6;" horiz-adv-x="1200" 
d="M899 106q-80 0 -145 18l-7 2q-83 31 -135 78q-67 57 -111 153l-3 -5l-27 -34l-10 -11q-9 -11 -19 -20q-22 -22 -34 -28q-41 -30 -83 -46q-30 -8 -61 -8q-83 0 -151 61q-40 40 -63 88q-20 43 -37 106q-12 59 -13 140q0 80 20 151q14 53 40 103l1 1q28 51 57 82
q55 54 104 81q36 23 84 30l37 1q65 0 117 -52l3 -4q19 -19 31 -45v-1q15 -24 19 -45q8 -22 8 -44q2 -8 2 -16q-6 -42 -36 -56q-16 -8 -32 -8q-55 0 -76 58q-2 6 -8 14q-21 21 -33 21q-9 0 -20 -14q-5 -6 -12.5 -13t-14.5 -15l-3 -4q-17 -21 -34 -53q-14 -27 -24 -58l-3 -10
q-11 -51 -11 -93q0 -43 4 -73q7 -45 28 -87q18 -35 41 -35q15 0 33 14q31 20 58 65l13 20q15 22 17 27t13 24q16 26 22 32q11 9 21 9q0 12 4 28q13 97 79 203q41 66 94 114l16 15q16 14 33 25q40 28 44 28q67 35 126 43q30 4 60 4q58 0 113 -26q27 -12 39 -24q45 -32 67 -84
q0 -3 1 -5q9 -17 14 -36q9 -42 9 -70l-2 -18q0 -27 -15 -72q-6 -19 -17 -38l-10 -17l-11 -18q-12 -18 -25 -33l-10 -11q-8 -10 -18 -18l-10 -9q-13 -13 -68 -46q-29 -16 -52 -21q-8 -2 -15 -5q-36 -9 -77 -12l-16 -1l-48 1q-28 0 -67 9q-1 1 -3 1q-7 3 -13 7v-3
q5 -39 18 -70q24 -62 76 -97q73 -44 129 -44q50 0 114 38q33 12 59 12q36 0 60 -22q36 -30 36 -73q0 -11 -6.5 -45t-92.5 -64q-16 -12 -40 -21l-45 -15q-48 -11 -97 -11zM686 554q26 34 40 49q18 18 38 18q5 0 10.5 -1t14.5 -1q36 0 89 20q14 3 27 10q14 5 25 14q5 4 10.5 8
t10 9t9.5 9q13 13 26 33l1 2q9 12 18 45q4 11 4 23q0 7 1 13q0 20 -3 33q-15 58 -58 58q-47 0 -109 -49q-28 -20 -43 -36l-7 -8q-25 -27 -41 -51l-5 -8q-23 -42 -33 -66l-4 -8q-15 -45 -18 -76z" />
    <glyph glyph-name="ccedilla" unicode="&#xe7;" horiz-adv-x="664" 
d="M377 -70q-40 0 -73 26q-4 10 -4 19q0 37 38 40q26 -17 42 -17q7 0 12 3q14 8 14 25l-1 11q-13 33 -44 56l-17 16q-46 0 -94 20q-57 24 -105.5 73.5t-79.5 107.5q-65 122 -65 261q0 78 23 155q45 131 154 206q53 36 103 47q31 6 60 6q49 0 91 -20.5t65 -64.5
q19 -34 19 -75l-3 -38q-14 -61 -63 -99q-10 -8 -16 -14q-11 -8 -19 -8q-13 0 -29 6q-31 13 -31 36q0 7 3.5 14.5t5.5 14.5q0 2 1 3q6 21 6 31l1 15q-8 34 -41 34q-19 0 -38 -11q-34 -18 -62 -51t-42 -76q-1 0 -1 -1q-17 -51 -17 -100q0 -107 56 -202q61 -99 128 -99
q77 0 147 115l22 39q23 35 55 35q31 0 59 -26q2 -2 3 -7t1.5 -11t1.5 -9l1 -20q0 -50 -23 -101q-29 -61 -75 -103q-52 -48 -111 -68l-2 -1h-1q52 -49 52 -102q0 -44 -53 -78q-3 -2 -6.5 -3t-7.5 -4q-23 -6 -40 -6z" />
    <glyph glyph-name="egrave" unicode="&#xe8;" horiz-adv-x="669" 
d="M483 1101q-13 0 -26 4l-24 12q-13 7 -26 12q-30 12 -40 17l-42 17q-32 11 -46 17l-12 4q-11 5 -21.5 8.5t-20.5 8t-39 15.5t-43 19q-13 11 -13 28q0 5 3.5 20t21.5 35t41 22q25 0 92 -21q10 -2 57 -19q57 -19 64 -23q35 -12 51.5 -18.5t32.5 -14.5q29 -13 56 -28
q2 -2 5 -3q17 -18 17 -37q0 -40 -48 -65q-20 -10 -40 -10zM289 143q-64 0 -116 25q-124 52 -161 215q-12 53 -12 118q0 86 23 177q36 147 143 253q48 48 106 79q63 32 116 37l19 1h36q28 -1 55 -10q55 -19 92 -61q33 -39 48 -90q11 -37 11 -75q0 -70 -30 -133
q-32 -75 -108 -147q-47 -45 -103 -77q-113 -71 -212 -75l2 -3q4 -16 23 -40q35 -38 76 -38q36 0 72 21q60 33 75 48q39 32 62 44q14 7 38 7q21 0 45.5 -8.5t29.5 -54.5q-6 -25 -20 -46q-22 -34 -78 -77q-125 -90 -232 -90zM176 497l7 1q63 16 125 60q77 56 114 103
q28 34 42 69.5t16 66.5q0 23 -7 44l-2 7q-13 32 -31 36h4h-19h15q-8 3 -16 3q-12 0 -22 -2l-4 -1h27q-38 0 -84 -31q-86 -56 -129 -158q-36 -85 -36 -198z" />
    <glyph glyph-name="eacute" unicode="&#xe9;" horiz-adv-x="668" 
d="M219 1080q-52 0 -85 39q-9 11 -9 23q0 18 29 41l3 2q12 11 41 30l48 31q14 10 24 14q5 5 47 30q13 7 24 14t23 13l43 26q10 3 21 3q42 -4 72 -37q15 -17 15 -36q0 -17 -13 -35q-9 -6 -21 -12q-6 -3 -11 -7q-11 -6 -21 -12t-20 -11l-25 -16q-21 -12 -26.5 -15.5t-11 -6.5
t-11 -6.5t-11.5 -7.5t-12 -7l-36 -23l-41 -25q-16 -9 -36 -9zM288 143q-62 0 -116 25q-123 51 -160 215q-12 54 -12 110q0 97 22 185q22 81 56 140l1 1q36 61 86.5 111.5t106.5 79.5q61 32 115 37q10 0 19 1h37q27 -1 54 -10q54 -18 93 -61q59 -73 59 -165q0 -69 -31 -133
q-34 -80 -108 -147q-49 -46 -102 -77q-116 -71 -212 -75q0 -2 1.5 -4.5t2.5 -6.5q8 -17 20 -32q35 -38 77 -38q55 0 144 67l3 2q39 32 62 44l7 4q16 3 31 3q21 0 45.5 -8.5t29.5 -54.5q-15 -61 -99 -123q-49 -37 -107 -62q-64 -28 -125 -28zM175 497l8 1q65 17 124 60
q98 72 139 138q32 58 33 108q0 11 -8 44l-10 19q-9 14 -21 17h-15h14q-9 3 -15 3q-12 0 -22 -2l-5 -1h28q-36 0 -85 -31q-86 -56 -129 -158q-36 -85 -36 -198z" />
    <glyph glyph-name="ecircumflex" unicode="&#xea;" horiz-adv-x="669" 
d="M545 1083q-25 0 -53 23q-13 14 -45 38q-1 0 -1 1l-26 20q-15 15 -23 15q-12 0 -45 -25q-24 -16 -26 -18l-17 -13q-23 -17 -58 -24q-14 -3 -26 -3q-44 0 -44 31q0 12 6 28q10 12 38 39l43 38l37 31l2 1l19 14q34 24 76 24t72 -15q56 -25 96 -56l39 -30q29 -23 29 -48
q0 -12 -13.5 -33t-51.5 -33q-15 -5 -28 -5zM288 143q-63 0 -116 25q-63 27 -105 85q-67 93 -67 253q0 83 22 172q36 147 143 253q48 48 106 79q64 32 116 37l19 1h37q27 -1 54 -10q56 -19 92 -61q34 -39 48 -90q12 -37 12 -75q0 -69 -31 -133q-32 -75 -108 -147
q-47 -45 -103 -77q-112 -71 -212 -75l2 -3q4 -16 23 -40q35 -38 77 -38q55 0 144 67l3 2q36 31 62 44q11 7 37 7q21 0 45.5 -8.5t29.5 -54.5q-6 -25 -20 -46q-22 -34 -78 -77q-46 -35 -108 -62.5t-124 -27.5zM175 497l7 1q63 16 125 60q77 56 114 103q28 34 42 69.5t16 66.5
q0 23 -7 44l-2 7q-13 32 -31 36h4h-19h15q-8 3 -16 3q-12 0 -22 -2l-4 -1h27q-37 0 -84 -31q-85 -56 -129 -158q-36 -85 -36 -198z" />
    <glyph glyph-name="edieresis" unicode="&#xeb;" horiz-adv-x="669" 
d="M237 1107q-27 0 -49 23q-7 11 -8 23l1 24q0 17 3 33t4 18q2 26 17 56q14 19 31 19q29 0 77 -45l13 -11l-2 -10q-2 -4 -2 -13l-3 -17l-1 -17l-1 -5l-1 -14q0 -28 -8 -40q-34 -24 -71 -24zM457 1123h-5q-45 0 -68 39q-2 6 -2 12q0 5 1 9.5t1.5 10t2 11t2.5 11.5q6 31 15 50
q5 16 18 31l6 1q24 0 54 -12q55 -22 55 -55q0 -7 -2.5 -14.5t-2.5 -14.5q-2 -6 -2 -13q-1 -2 -2 -8.5t-1 -13.5q-21 -42 -70 -44zM288 143q-62 0 -116 25q-123 51 -160 215q-12 53 -12 118q0 90 22 177q22 81 55 139t89 114q50 50 106 79q64 32 115 37q10 0 19 1h37
q27 -1 54 -10q57 -19 93 -61q59 -74 59 -165q-1 -95 -59 -186q-33 -50 -79 -94q-53 -48 -103 -77q-117 -71 -212 -75l4 -11q8 -17 21 -32q34 -38 76 -38q36 0 71 21q21 11 40 23q31 20 36 25q39 32 62 44l7 4q16 3 31 3q21 0 45.5 -8.5t29.5 -54.5q-6 -25 -20 -46
q-24 -36 -79 -77q-120 -90 -232 -90zM175 497l8 1q60 16 125 60q54 42 81 68q33 32 57 70q33 60 33 108q0 18 -6 37l-2 7q-13 31 -31 36h1h-16h15q-9 3 -16 3q-12 0 -22 -2l-5 -1h28q-38 0 -84 -31q-90 -58 -129 -158q-37 -80 -37 -198z" />
    <glyph glyph-name="igrave" unicode="&#xec;" horiz-adv-x="461" 
d="M351 929q-12 0 -25 4q-9 6 -19 10q-2 2 -5 3q-32 15 -65 28q-10 5 -43 17q-10 5 -24 9l-75 28l-83 35q-12 11 -12 28q0 28 25 56q19 21 44 21l6 -1q18 0 50 -10q21 -5 66 -20q12 -5 24 -8t40 -15l42 -15l66 -26l31 -15l29 -17q18 -17 18 -36q0 -39 -49 -65
q-20 -11 -41 -11zM233 59q-48 0 -79 64q-15 49 -24 130q-10 93 -13 134l-3 31l-4 67q-7 93 -7 169q0 64 2 99q6 56 31.5 79.5t54.5 23.5q36 0 61 -30q19 -24 19 -61l-1 -14q0 -40 3 -91l1 -24q1 -21 3 -41l10 -142l18 -185q10 -82 10 -126q-16 -83 -82 -83z" />
    <glyph glyph-name="iacute" unicode="&#xed;" horiz-adv-x="410" 
d="M95 937q-53 0 -85 39q-10 11 -10 23q0 18 30 41q8 9 21 16l12 9q27 17 34 23q11 5 24 15l72 44q18 10 23 14l67 39q10 3 21 3q42 -4 71 -37q15 -17 15 -36q0 -16 -12 -34q-7 -4 -12 -7.5t-10 -6t-11 -6.5l-40 -23l-52 -31q-15 -10 -45 -28l-77 -48q-17 -9 -36 -9zM227 59
q-49 0 -79 64q-14 44 -23 130l-14 134q-2 15 -2 31q-8 77 -10.5 138t-1.5 120q0 38 2 77q6 56 34 81q24 22 52 22q37 0 62 -30q17 -23 17 -58v-17q2 -28 2 -52q0 -31 7 -133q3 -60 9 -113q1 -36 10 -113l7 -62l1 -10q9 -99 9 -126q-16 -83 -82 -83z" />
    <glyph glyph-name="icircumflex" unicode="&#xee;" horiz-adv-x="477" 
d="M364 961q-23 0 -42 12q-5 6 -11 11q-15 12 -27 23l-45 36q-15 14 -25 14q-9 0 -43 -24q-28 -19 -43 -32q-37 -27 -82 -27q-46 0 -46 32q0 12 6 28q19 24 38 38q10 10 22 20q32 29 58 49q0 1 1 1q34 27 70 38q10 1 25 1q35 0 69 -14l4 -1q26 -12 52 -27l44 -29
q6 -6 13.5 -11t14.5 -11l22 -17q18 -20 18 -39q0 -12 -13.5 -33.5t-51.5 -33.5q-15 -4 -28 -4zM237 59q-49 0 -80 64q-13 44 -23 130l-14 134q-2 15 -2 31q-7 77 -9.5 138t-2.5 120q0 38 2 77q6 56 32 79.5t54 23.5q37 0 62 -30q18 -23 18 -58l-1 -17q0 -28 2 -52
q0 -31 7 -133q3 -60 9 -113q2 -36 10 -113l7 -62l1 -10q9 -99 9 -126q-16 -83 -81 -83z" />
    <glyph glyph-name="idieresis" unicode="&#xef;" horiz-adv-x="378" 
d="M57 948q-27 0 -49 22q-8 14 -8 36l2 20q0 18 6 39q0 4 4 22l6 21q11 34 36 36q31 0 79 -45l13 -11q0 -5 -2 -9l-1 -6q-5 -21 -5 -47q-1 -7 -1 -15q0 -25 -9 -39q-35 -24 -71 -24zM278 963h-5q-46 0 -69 39q-2 7 -2 13q0 5 5 30.5t8 34.5q9 37 27 58h14q58 -6 91 -40
q11 -11 11 -25q0 -8 -3 -16l-3 -15q-2 -8 -2 -16q-1 -2 -3 -19q-20 -42 -69 -44zM199 59q-49 0 -78 64q-14 42 -24 130q-9 65 -13 134l-3 31q-3 32 -4 64q-1 2 -5 76q-4 59 -3 118l1 22l1 55q7 56 32.5 79.5t53.5 23.5q37 0 62 -30q18 -24 18 -61v-14l1 -52l7 -133
q2 -18 3 -37t3 -37q4 -40 6 -76q15 -142 15 -148q9 -76 9 -111v-15q-15 -83 -82 -83z" />
    <glyph glyph-name="eth" unicode="&#xf0;" 
 />
    <glyph glyph-name="ntilde" unicode="&#xf1;" horiz-adv-x="720" 
d="M454 1011q-39 0 -67 13q-36 20 -59 40q-3 3 -4.5 4t-15.5 15l-16 16q-19 19 -28 20q-10 0 -28 -22q-13 -13 -17 -21v-1q-9 -15 -12 -19.5t-5 -9.5q-15 -16 -49 -16q-22 0 -37 13q-5 10 -5 28q0 9 2 18v1q3 15 13 40l1 2q4 9 10 18q31 51 71 71q31 16 68 16q25 0 51 -11
q24 -13 42 -29.5t32.5 -31t35.5 -28.5q4 -1 6 -3q10 -4 15 -4q14 0 33 19q6 3 15.5 14.5t15.5 21.5l3 5q23 22 58 22q26 0 45 -15q15 -12 15 -35q0 -26 -29 -63q-17 -24 -37 -40q-54 -48 -123 -48zM96 79q-25 0 -54.5 18.5t-34.5 70.5q-5 43 -7 123l1 73q0 49 1 76l7 140
q1 30 5 61q10 93 29 150q10 43 36 79q40 55 102 55q18 0 36 -5q41 -15 72 -50q15 -16 48 -64l3 -6q31 -46 64 -119q23 -45 37 -84l5 -11q22 -54 26 -66l48 -116l6 90q0 31 2 53l-1 81l-1 26q0 61 3 96v43l-1 14q0 14 3 28q18 56 59 56q33 0 55 -48q10 -23 13 -61l8 -42
q14 -66 18 -131l2 -19l5 -37l7 -64q3 -30 3 -74l-1 -27q-2 -52 -5 -55q-8 -92 -45 -141q-40 -52 -103 -52q-62 0 -108 51q-56 56 -115 209l-52 132l-13 36l-11 26l-1 4q-19 53 -40 93l-3 6v-5q-2 -8 -3 -17q-8 -53 -12 -106q-3 -20 -5 -64l-5 -100q-3 -58 -4 -116
q-2 -73 -5 -95q0 -21 -2 -31l-2 -29q-14 -55 -70 -55z" />
    <glyph glyph-name="ograve" unicode="&#xf2;" horiz-adv-x="592" 
d="M418 972q-12 0 -24 4q-19 11 -51 25q-8 4 -28 12l-11 4q-10 5 -66 26l-75 28l-65 27q-31 9 -31 36q0 5 3 20t21.5 35.5t41.5 21.5q31 0 91 -20l35 -11q21 -10 35 -12l36 -13q17 -7 34 -13.5t34 -11.5l12 -6q25 -10 50 -23l31 -17q17 -18 17 -37q0 -39 -49 -64
q-20 -11 -41 -11zM293 122q-83 0 -149 50q-51 39 -82 102q-35 67 -47 128q-15 59 -15 121q0 87 24 170q6 30 22 66q78 150 221 150q89 0 163 -62q42 -35 76 -91q62 -106 66 -231q0 -99 -29 -180q-46 -127 -127 -185q-57 -38 -123 -38zM288 289q5 0 22 6.5t49 62.5
q9 17 16 35l1 2q15 39 22 82q4 8 4 48q0 62 -29 123q-17 36 -44 66q-44 39 -70 39q-27 0 -47 -50q-21 -44 -29 -105q-7 -37 -7 -75q0 -46 12 -89q13 -51 38 -94q36 -51 62 -51z" />
    <glyph glyph-name="oacute" unicode="&#xf3;" horiz-adv-x="591" 
d="M194 1005q-53 0 -85 39q-10 11 -10 23q0 18 30 41l2 2q25 20 62 43l14 10q14 9 28 16l17 11l30 19q10 4 24 14l8 5l34 20q34 22 51 22q44 0 75 -37q15 -17 15 -35q0 -17 -13 -35q-6 -4 -11.5 -7t-10 -6t-10.5 -6t-11 -7q-14 -7 -23 -13l-7 -4q-8 -4 -15 -8.5t-47 -28.5
l-35 -22q-36 -23 -38 -23l-39 -24q-16 -9 -35 -9zM292 110q-80 0 -149 50q-90 70 -129 230q-14 64 -14 128q0 84 23 164q9 35 22 66q79 150 219 150q88 0 165 -62q42 -35 76 -92q62 -103 66 -231q0 -96 -29 -180q-20 -55 -50 -103t-77 -81q-54 -39 -123 -39zM288 277
q5 0 21.5 7t48.5 63q10 16 16 34l1 2q23 60 23 86q3 22 3 44q0 60 -29 124q-20 40 -44 66q-43 38 -68 38q-28 0 -49 -50q-20 -45 -29 -104q-6 -35 -6 -71q0 -48 11 -94q14 -49 38 -94q37 -51 63 -51z" />
    <glyph glyph-name="ocircumflex" unicode="&#xf4;" horiz-adv-x="591" 
d="M423 989q-23 0 -42 13q-8 8 -18 17t-20 17q-30 23 -45 36.5t-24 13.5q-10 0 -44 -24q-9 -7 -20.5 -15t-22.5 -17q-37 -27 -82 -27q-46 0 -46 31q0 12 6 28l17 20l21 19q31 28 43 38t19 17q27 22 39 30q23 15 50 23l25 1q37 0 68 -14q2 -1 5 -1q26 -12 52 -28q2 0 44 -28
l15 -12q7 -5 12.5 -10t10.5 -9q30 -20 30 -47q0 -13 -13.5 -34t-51.5 -33q-15 -5 -28 -5zM293 129q-80 0 -150 50q-48 38 -81 102q-31 57 -48 128q-14 64 -14 128v18q5 83 24 145q6 29 22 67q79 149 222 149q55 0 107 -26q106 -55 157 -180q39 -91 39 -190q0 -25 -3 -50
q-12 -123 -75 -220q-30 -50 -77 -83q-59 -38 -123 -38zM288 296q5 0 22 7t49 62q9 17 16 35l1 2q15 37 22 82l1 4q3 22 3 44q-3 73 -30 123q-19 40 -43 66q-44 39 -69 39q-27 0 -49 -50q-18 -43 -29 -105q-6 -35 -6 -70q0 -94 49 -188q37 -51 63 -51z" />
    <glyph glyph-name="otilde" unicode="&#xf5;" horiz-adv-x="604" 
d="M396 967q-58 0 -108 39q-12 9 -23.5 19t-13.5 13q-6 5 -12 11l-12 12q-11 14 -22 14q-10 0 -27 -21q-4 -6 -10 -10l-7 -11q0 -1 -1 -1l-11 -21l-6 -9q-14 -16 -46 -16q-24 0 -40 13q-4 13 -4 24l1 22l1 1q3 15 13 40l1 2q4 10 10 19t13 19q24 34 57 51q28 16 64 16
q16 0 27 -2q23 -3 53 -23q23 -18 34 -31q9 -7 14 -14q2 0 18 -16l19 -14q4 -1 7 -3q8 -4 14 -4q9 0 26 12q7 7 12.5 11t10.5 11q13 15 15 19t4 7q24 22 58 22q26 0 44 -15q15 -12 15 -34q0 -9 -2 -19q-15 -35 -44 -66q-60 -67 -142 -67zM293 129q-80 0 -150 50
q-50 39 -82 102q-61 118 -61 256q0 82 23 163q6 29 22 67q80 149 223 149q87 0 161 -62q41 -32 76 -91q62 -106 66 -231q0 -99 -29 -180q-20 -55 -50 -103.5t-77 -81.5q-57 -38 -122 -38zM288 296q5 0 21.5 7t48.5 62q10 17 16 35l1 2q8 20 14 42q12 38 12 88q0 62 -29 123
q-17 37 -44 66q-43 39 -68 39q-28 0 -49 -50.5t-29 -104.5q-6 -35 -6 -70q0 -103 49 -188q37 -51 63 -51z" />
    <glyph glyph-name="odieresis" unicode="&#xf6;" horiz-adv-x="592" 
d="M163 987q-27 0 -49 22q-7 11 -8 24q0 27 3 48l4 23q0 3 1 5q1 16 10 38q11 34 36 36q33 0 78 -45l13 -11q0 -5 -1 -9.5t-3 -14.5q-3 -17 -3 -34q-2 -4 -2 -19q0 -25 -9 -40q-35 -23 -70 -23zM383 1002h-5q-45 0 -68 39q-2 7 -2 13q0 5 1 9.5t1 9.5q3 21 11 46q9 37 27 58
h13q58 -6 91 -40q11 -12 11 -26q0 -7 -2.5 -14.5t-2.5 -15.5q-2 -6 -2 -12q-1 -2 -1 -6q-2 -8 -2 -17q-21 -42 -70 -44zM293 129q-21 0 -42 4q-127 23 -189 148q-35 66 -47 128q-15 59 -15 121q0 87 24 170q6 29 22 67q78 149 222 149q88 0 162 -62q42 -35 76 -91
q62 -106 66 -231q0 -99 -29 -180q-45 -126 -127 -185q-57 -38 -123 -38zM288 296q5 0 22 7t49 62q9 17 16 35l1 2q15 38 22 81q4 8 4 49q-4 69 -29 123q-17 36 -44 66q-44 39 -69 39q-28 0 -48 -50q-19 -40 -30 -105q-7 -44 -7 -70q0 -48 13 -94q15 -54 38 -94
q36 -51 62 -51z" />
    <glyph glyph-name="divide" unicode="&#xf7;" horiz-adv-x="889" 
d="M435 211q-38 0 -65 26.5t-27 64.5t27 65t65 27t65 -27t27 -65t-27 -64.5t-65 -26.5zM702 485q-130 1 -296 8t-238 16q-76 10 -111.5 24.5t-50.5 40.5q-6 10 -6 22q0 37 35 58q24 14 59 14q37 0 195 -14q180 -14 356 -23q146 -5 176 -15q15 -5 25 -15q23 -23 23 -44
q0 -20 -20 -40.5t-46 -27.5q-19 -4 -101 -4zM435 757q-38 0 -65 27t-27 65t27 64.5t65 26.5t65 -26.5t27 -64.5t-27 -65t-65 -27z" />
    <glyph glyph-name="oslash" unicode="&#xf8;" 
 />
    <glyph glyph-name="ugrave" unicode="&#xf9;" horiz-adv-x="713" 
d="M447 1025q-17 0 -46 14q-33 16 -59 26l-11 4q-17 9 -54 21l-46 18q-21 7 -41 16q-11 3 -23 9q-13 4 -43 16.5t-30 37.5q0 5 3 20t21.5 35t41.5 22q13 0 33 -5q33 -7 58 -16l11 -3l95 -33l34 -13l66 -26q37 -16 56 -29l5 -2q17 -18 17 -37q0 -40 -49 -65q-19 -10 -39 -10z
M326 60q-97 0 -172 56q-70 56 -111 153q-43 96 -43 223q0 87 28 194q3 7 5 15q7 23 17 46q24 57 46 97q14 22 28.5 43t34.5 21q36 0 81.5 -33.5t45.5 -67.5q0 -17 -14 -33q-18 -40 -29 -80l-3 -16q-8 -27 -15 -76q0 -6 -1 -11q-2 -17 -3 -35l-1 -21q0 -88 20 -154l1 -2
q7 -21 15 -41l2 -5q7 -17 17 -33q36 -56 78 -56q37 0 94 52q11 12 21 25l3 4q32 43 51 105q16 51 16 119q0 19 -2 39q-1 1 -1 3q-4 40 -6 42q-4 34 -21 88q-15 47 -30 79l-18 39l-1 14q0 31 26.5 52t65.5 21q30 0 52.5 -17t25.5 -55q14 -33 17 -48l15 -51q22 -79 28 -153
l4 -53q0 -58 -9.5 -106.5t-12.5 -51.5q-25 -84 -60 -138q-22 -37 -62 -82q-71 -79 -174 -107q-24 -4 -49 -4z" />
    <glyph glyph-name="uacute" unicode="&#xfa;" horiz-adv-x="713" 
d="M244 993q-51 0 -84 39q-10 11 -10 23q0 18 29 41l61 43l31 20q8 4 14 8t10 6l24 15q12 8 23 14q36 23 47 28l43 26q8 2 16 2q45 0 77 -36q15 -17 15 -36q0 -17 -13 -35l-32 -19q-11 -6 -21 -12t-20 -11l-39 -24q-34 -20 -47 -29l-29 -17l-18 -12l-32 -19q-20 -15 -45 -15
zM327 60q-95 0 -173 56q-48 40 -82 96l-9 17q-55 94 -63 245q0 79 13 144q15 84 60 182q20 42 46 79q10 14 21 24q7 5 19 5q37 0 82.5 -33.5t45.5 -66.5q0 -17 -15 -34q-19 -43 -32 -96q-15 -62 -18 -122l-1 -34q0 -54 9 -93q7 -45 12 -50q7 -21 15 -41l2 -5q7 -17 16 -33
q35 -56 78 -56q38 0 95 52q28 30 44.5 62t29.5 72q16 52 16 105q0 55 -8 95q0 9 -7 37q-4 18 -15 54q-17 54 -29 79l-10 21q-10 18 -10 30q0 32 27 53.5t66 21.5q70 0 78 -72l17 -48l15 -51q24 -100 28 -153l3 -70q0 -65 -20 -138l-16 -49l-5 -12q-33 -86 -102 -162
q-39 -41 -78 -66q-70 -45 -145 -45z" />
    <glyph glyph-name="ucircumflex" unicode="&#xfb;" horiz-adv-x="713" 
d="M458 1040q-22 0 -41 13q-5 6 -11 11q-18 14 -43 36q-8 4 -29 23q-16 14 -25 14t-43 -24q-9 -7 -20.5 -15t-22.5 -17q-38 -27 -82 -27q-46 0 -46 32q0 12 6 28q20 25 60 58q33 30 40 35q27 22 39 30q23 15 50 23l25 1q37 0 68 -14q3 0 5 -1q33 -15 53.5 -28t42.5 -28
q6 -6 12 -10l26 -21q30 -20 30 -47q0 -13 -13.5 -34t-51.5 -33q-15 -5 -29 -5zM326 60q-98 0 -172 56q-50 40 -82 96l-9 17q-55 94 -63 245q0 136 34 227q13 43 39 99q35 73 67 103q7 5 19 5q36 0 81.5 -33t45.5 -68q0 -17 -14 -33q-19 -43 -32 -96q-11 -38 -14 -76l-2 -11
q-3 -28 -3 -69q0 -83 20 -141q0 -7 16 -43l2 -5q6 -17 16 -33q35 -56 78 -56q38 0 94 52q27 27 44.5 60.5t30 72.5t14.5 69l1 10q1 13 1 27q0 55 -8 95q0 9 -7 37q-4 18 -15 54q-18 56 -30 79l-2 5q-3 8 -7.5 16.5t-8.5 17.5l-1 12q0 32 27 53.5t66 21.5q29 0 51.5 -17
t25.5 -55q20 -47 32 -98l1 -1q21 -87 28 -153l3 -53q0 -82 -21 -155v-3q-23 -75 -60 -138q-28 -44 -63.5 -82.5t-76.5 -65.5q-70 -45 -146 -45z" />
    <glyph glyph-name="udieresis" unicode="&#xfc;" horiz-adv-x="713" 
d="M204 1048q-27 0 -49 22q-6 11 -8 24q0 24 3 48l5 26q7 36 18 57q13 18 31 18q27 0 76 -44l13 -11l-2 -10q-2 -6 -4 -29l-2 -23l-1 -15q-3 -31 -9 -40q-34 -23 -71 -23zM424 1063h-4q-46 0 -69 39q-2 7 -2 13l1 9l4 21q4 20 8 34t9 28q12 24 18 30q5 1 14 1q59 -6 91 -40
q11 -11 11 -26q0 -7 -3 -15l-3 -15l-5 -35q-21 -42 -70 -44zM326 60q-97 0 -172 56q-70 56 -111 153q-43 96 -43 223q0 95 29 194l4 15q11 36 40 99q33 69 66 103q8 5 20 5q36 0 81.5 -33t45.5 -68q0 -17 -14 -33q-18 -40 -29 -80l-3 -16q-8 -27 -15 -76q0 -6 -1 -11
q-2 -17 -2 -35l-2 -21q0 -88 20 -154l1 -2q7 -21 15 -41l2 -5q7 -17 17 -33q36 -56 78 -56q38 0 94 52q11 12 21 25l3 4q32 43 51 105q9 27 14 68l1 10q1 20 1 41q0 36 -3 42q-4 40 -6 42q-4 34 -21 88q-15 47 -30 79l-18 39l-1 14q0 31 26.5 52t65.5 21q30 0 52.5 -17
t25.5 -55q14 -33 17 -48l15 -51q21 -72 29 -153l3 -53q0 -58 -9.5 -106.5t-12.5 -51.5q-10 -38 -20 -58q-33 -85 -103 -163t-173 -106q-24 -4 -49 -4z" />
    <glyph glyph-name="yacute" unicode="&#xfd;" horiz-adv-x="709" 
d="M243 1047q-53 0 -85 38q-10 11 -10 23q0 13 12 26q9 8 16.5 15t22.5 16q14 11 23 16l36 24q6 3 11.5 7t24.5 15q4 2 9.5 6t13.5 9q34 19 38.5 22.5t8.5 5.5l23 14q5 3 13 7t18 11q15 10 34 10q42 -4 71 -37q16 -17 16 -36q0 -16 -13 -34q-35 -20 -44.5 -26t-21.5 -13
q-20 -10 -32.5 -19t-26.5 -16l-11 -6q-8 -6 -34 -22l-13 -8q-11 -8 -24 -14q0 -1 -1 -1l-30 -19q-24 -14 -45 -14zM436 -358q-33 0 -64 7q-77 17 -126 66l-5 4q-37 40 -56 94q-9 32 -9 51q0 31 10 57q29 44 72 44q3 0 28.5 -2t52.5 -54q2 -8 3 -17v-14q28 -81 85 -81
q2 0 34.5 2.5t44.5 102.5v53q0 25 -4 81l-5 55l-14 123l-3 20q-24 -37 -61 -64q-53 -36 -111 -36q-109 0 -186 81q-39 43 -65 101t-40 126q-17 68 -17 146q0 117 17 202q39 149 128 149q27 0 50 -21q27 -25 27 -71q0 -21 -6 -47q-8 -24 -17 -90q-4 -54 -4 -88q0 -80 13 -148
q10 -50 30 -95l2 -5q7 -16 16 -31q29 -46 59 -46q32 0 82 60l17 20l41 53v1q-5 54 -18 148q-9 79 -9 88q-2 24 -5 47l-5 60q-1 7 -1 15q-4 38 -4 68l-1 14q2 43 29.5 66t63.5 23q32 0 58 -19.5t28 -61.5q2 -26 8 -76q1 -8 1 -17l13 -121l9 -68q13 -116 27 -223l16 -142
l9 -82q3 -22 5 -45l5 -58q4 -42 4 -104l1 -3l-2 -48q-9 -103 -54 -165q-38 -49 -107 -71q-24 -9 -64 -13z" />
    <glyph glyph-name="thorn" unicode="&#xfe;" 
 />
    <glyph glyph-name="ydieresis" unicode="&#xff;" horiz-adv-x="708" 
d="M224 1064q-28 0 -50 22q-7 14 -7 36l1 20q0 18 6 39q0 6 4 22l6 21q12 34 36 36q32 0 79 -45l13 -11l-3 -15q-5 -20 -5 -47q-1 -7 -1 -15q0 -25 -9 -40q-34 -23 -70 -23zM444 1079h-4q-47 0 -70 39q-1 7 -1 13q0 5 5 30.5t7 34.5q10 37 27 58h14q59 -6 91 -40
q11 -11 11 -26q0 -7 -3 -15l-3 -15l-2 -16q0 -2 -3 -19q-20 -42 -69 -44zM435 -358q-67 0 -132 32q-54 29 -87 75q-39 59 -40 119q0 28 9 53q29 44 73 44q3 0 28 -2t52 -54q4 -15 4 -31q27 -81 85 -81q3 0 34.5 2.5t43.5 102.5l1 38q0 31 -5 96l-1 10q-1 37 -7 75
q-2 14 -3 29l-11 84q-19 -33 -61 -64q-53 -36 -110 -36q-46 0 -90 16q-55 21 -96 65q-28 30 -40 53q-32 56 -48 109q-22 64 -30 137q-4 40 -4 98q0 96 16 178q41 149 128 149q28 0 50 -21q27 -25 27 -71q0 -21 -6 -47q-8 -28 -14 -75l-2 -15q-3 -24 -4 -48l-1 -10v-30
q0 -80 13 -148q8 -41 30 -95l2 -5q7 -16 16 -31q30 -46 60 -46q31 0 81 60q18 20 18 22q28 32 33 42l8 9v1q-16 124 -27 218q0 19 -6 65l-6 75q-2 19 -2.5 35.5t-1.5 32.5q0 55 28.5 79t64.5 24q33 0 58 -19.5t27 -61.5l10 -93q2 -29 5.5 -59t7.5 -62l26 -216
q12 -85 18 -148l17 -151l5 -58q5 -34 7 -96q1 -26 2 -53q0 -77 -18 -137q-17 -52 -37 -79q-46 -56 -108 -71q-21 -8 -64 -13z" />
    <glyph glyph-name="dotlessi" unicode="&#x131;" 
 />
    <glyph glyph-name="OE" unicode="&#x152;" horiz-adv-x="1545" 
d="M1193 171q-100 0 -176 31q-54 23 -99 70q-73 80 -86 187q-1 -2 -2.5 -4t-2.5 -5q-40 -68 -96 -121v-1q-19 -18 -39 -35l-45 -34q-92 -65 -189 -65l-25 -1q-122 0 -207 59q-56 39 -98 95q-83 108 -111 253q-17 74 -17 147q0 152 50 298q18 51 61 127l15 23q10 17 21 33
l2 4q74 109 176 166q2 0 3 1q24 12 49 22q62 25 140 25q50 0 92 -10q47 -11 95 -37l7 -4q47 -25 94 -72q48 52 129 92q62 28 107.5 35.5t113.5 7.5q31 0 62 -4q55 -8 90 -20l1 -1q41 -14 77 -37q54 -35 80 -84q13 -25 13 -44q0 -34 -30 -50.5t-94 -16.5q-29 0 -102 5
q-57 23 -111 23q-15 0 -43 -5.5t-78 -39.5q-38 -25 -53 -67q-7 -18 -7 -43l1 -16l5 -34q17 -72 60 -89q23 -9 54 -9q26 0 58 7q34 13 51 15l18 1q109 -26 109 -99q0 -6 -5.5 -52t-105.5 -90q-26 -15 -49 -38l-6 -5q-30 -30 -44 -51q-1 -3 -3 -5q-19 -28 -27 -56
q-5 -16 -5 -40v-15q25 -110 102 -110q7 0 55.5 6.5t152.5 58.5q15 5 31 5q21 0 51 -12t51 -45q11 -18 11 -38q0 -33 -32 -72q-31 -32 -66 -56l-39 -21q-56 -23 -89 -30q-52 -13 -106 -13zM468 419q91 0 200 159l22 31l20 33q19 40 27 68q1 6 3 11q4 12 6 23.5t6 21.5
q6 24 11 34t7.5 19t2.5 11q-12 17 -22 36q-47 94 -47 196q0 43 9 85l-14 1q-7 0 -11 2q-9 0 -21 7q-73 47 -154 54h-9q-83 0 -170 -139q-13 -22 -22 -46q-31 -70 -44 -155l-1 -4q-4 -28 -4 -57l1 -37l1 -20l5 -54q1 -1 1 -1.5t9 -54.5q11 -48 32 -94q72 -130 156 -130z" />
    <glyph glyph-name="oe" unicode="&#x153;" horiz-adv-x="1233" 
d="M900 98q-16 0 -34 1.5t-36 1.5q-86 6 -161 49l-5 4q-32 20 -56 46q-44 -44 -114 -71q-57 -24 -130 -24q-31 0 -62 5q-65 8 -127 50q-114 84 -157 237q-18 62 -18 121q0 99 41 186q35 70 84 120t103 80h1q47 26 103 39q27 7 52 9q12 0 22.5 1t18.5 1q40 0 78 -12l2 -1
q80 -23 141 -89l25 -29q1 -2 2.5 -3.5t1.5 -2.5q50 41 132 76l4 1q61 24 130 24q102 0 167 -43q38 -25 63 -58q28 -39 36 -73q6 -19 6 -46q0 -35 -10 -60q-11 -43 -26 -68l-7 -12l-13 -20l-23 -28q-6 -7 -13 -13l-24 -22q-9 -8 -20 -15q-21 -12 -34 -21q-9 -5 -18.5 -10.5
t-18.5 -9.5l-18 -8q-30 -14 -63 -20q-14 -5 -27 -6q-8 -1 -15 -3q-21 -4 -41.5 -4.5t-41.5 -1.5q-19 0 -39 3h-1q1 0 2 -2t2 -5q14 -23 35 -36q100 -44 220 -48q25 3 52 3q6 0 26 -1t37 -17q7 -7 7 -18q0 -42 -72 -97q-31 -25 -75.5 -42.5t-93.5 -17.5zM372 328q58 0 102 59
q54 73 54 184q0 74 -32 134q-35 67 -101 67q-58 -5 -99 -64q-52 -73 -52 -176q0 -77 32 -137.5t92 -66.5h4zM749 490v1q45 12 75 17t66 16q18 3 31 10q16 4 30 12q18 6 26 14q5 5 11 8.5t11 8.5q7 3 12 10q3 3 8.5 7t9.5 11l4 5q5 6 7 14q4 6 4 11l-1 4l1 7q0 4 -2 9.5
t-4 13.5q-16 36 -54 36l-14 -1q-99 -14 -147 -62t-64 -93q-10 -25 -10 -53l-1 -6h1z" />
    <glyph glyph-name="Ydieresis" unicode="&#x178;" horiz-adv-x="675" 
d="M198 1432q-14 0 -37 7t-35 47q0 36 4 56l9 53l3 6q2 9 5 17q21 40 53 40q31 0 58 -22.5t35 -52.5q-2 -6 -2 -15q-5 -22 -5 -45l-3 -40q-13 -30 -46 -43q-20 -8 -39 -8zM441 1451q-1 0 -27.5 0.5t-50.5 44.5q-2 7 -2 15q2 23 8 48q2 13 6 27q2 4 3 9q10 36 29 58l7 1
q36 0 84 -25q40 -22 43 -56q-2 -13 -5.5 -25.5t-3.5 -26.5q-2 -10 -3 -20t-7 -19q-31 -31 -81 -31zM350 27q-27 0 -53 8q-33 9 -57 27q-27 17 -44 47l-2 2q-18 27 -26 65q-6 24 -6 51q0 39 7 61q27 56 74 56q38 0 61 -50q3 -11 3 -23q0 -78 32 -78q1 0 15 1t40 33
q32 32 48 81q6 12 12 37l2 5q5 20 14.5 73t9.5 121q0 48 -3 84q0 56 -4 76q0 -2 -1 -3.5t-2 -3.5q-24 -49 -55 -83q-76 -91 -167 -108h-38q-74 0 -127 55q-36 40 -57 109q-15 58 -15 70q-11 67 -11 134q0 88 8 154q10 89 21 141q46 186 127 186q75 0 75 -117v-10
q-11 -38 -21 -89l-1 -6q-13 -71 -16 -116q-1 -2 -1 -5q-6 -52 -6 -138q0 -63 10 -117q10 -76 32 -76q20 0 65 55q21 29 38 62l2 3q26 49 45 106l1 4q16 57 27 115l3 17q4 16 6 32l8 65q4 22 7 45l1 15q3 21 3 31l1 20q0 12 1 22q0 48 41 64q17 7 34 7q20 0 48 -12t34 -63
q7 -28 17 -88q10 -69 14 -123l5 -54l8 -89q2 -39 5 -74l12 -207q0 -31 1 -61q0 -97 -5 -127q-3 -60 -24 -136.5t-42 -116.5v-1q-18 -34 -40 -60q0 -1 -1 -1v-1l-22 -25l-3 -2q-35 -35 -76 -54q-25 -12 -53 -17q-18 -5 -39 -5z" />
    <glyph glyph-name="circumflex" unicode="&#x2c6;" horiz-adv-x="568" 
d="M440 1202h-6q-26 0 -47 16q-7 6 -14.5 13t-31.5 27q-19 15 -32 27q-33 31 -50 31t-73 -43l-29 -22l-24 -19l-19 -13q-9 -1 -20 -1q-12 0 -33.5 2t-41 13t-19.5 29q0 10 13 27q16 20 37 39l8 7q12 12 51 45q21 20 68 55q29 17 59 27q14 1 29 1q47 0 82 -16l5 -2
q41 -18 62 -32h1q26 -15 50 -34l17 -12l29 -24q21 -15 35 -32q2 -8 2 -16q0 -31 -31 -60t-77 -33z" />
    <glyph glyph-name="caron" unicode="&#x2c7;" 
 />
    <glyph glyph-name="uni02C9" unicode="&#x2c9;" 
 />
    <glyph glyph-name="breve" unicode="&#x2d8;" 
 />
    <glyph glyph-name="dotaccent" unicode="&#x2d9;" 
 />
    <glyph glyph-name="ring" unicode="&#x2da;" 
 />
    <glyph glyph-name="ogonek" unicode="&#x2db;" 
 />
    <glyph glyph-name="tilde" unicode="&#x2dc;" horiz-adv-x="691" 
d="M430 1482q-74 0 -133 48q-32 24 -42 36l-35 34q-14 17 -27 17t-35 -26q-3 -4 -12 -13l-10 -15l-7 -13q-7 -14 -10 -17.5t-5 -7.5q-18 -20 -59 -20q-29 0 -49 17q-6 14 -6 36l3 23q6 25 16 50q1 1 1 3q17 33 49 72q60 60 135 60q40 0 70 -14.5t53 -37.5q28 -25 39 -38
l21 -18q17 -13 23 -16l10 -5q13 -6 17 -6q5 0 11 3q22 10 51 39q14 19 19 27l4 7q30 28 73 28q33 0 57 -19q19 -15 19 -43q0 -25 -17.5 -54t-41.5 -53q-76 -84 -182 -84z" />
    <glyph glyph-name="hungarumlaut" unicode="&#x2dd;" 
 />
    <glyph glyph-name="uni0E18" unicode="&#xe18;" 
 />
    <glyph glyph-name="endash" unicode="&#x2013;" 
 />
    <glyph glyph-name="emdash" unicode="&#x2014;" 
 />
    <glyph glyph-name="quoteleft" unicode="&#x2018;" horiz-adv-x="214" 
d="M194 1168q-5 92 -10.5 141.5t-15.5 84t-28 81.5q-4 9 -8 20q-13 13 -30 22.5t-28 9.5q-24 0 -46.5 -27.5t-27.5 -62.5q3 -75 30.5 -163.5t68.5 -146.5q25 -14 53.5 -2t41.5 43z" />
    <glyph glyph-name="quoteright" unicode="&#x2019;" horiz-adv-x="214" 
d="M0 1168q4 92 9.5 141.5t16 84t28.5 81.5q3 9 7 20q14 13 30.5 22.5t27.5 9.5q24 0 46.5 -27.5t28.5 -62.5q-4 -75 -31 -163.5t-68 -146.5q-25 -14 -53.5 -2t-41.5 43z" />
    <glyph glyph-name="quotesinglbase" unicode="&#x201a;" horiz-adv-x="214" 
d="M0 602q4 92 9.5 141.5t16 84t28.5 81.5q3 9 7 20q14 13 30.5 22.5t27.5 9.5q24 0 46.5 -27.5t28.5 -62.5q-4 -75 -31 -163.5t-68 -146.5q-25 -14 -53.5 -2t-41.5 43z" />
    <glyph glyph-name="quotedblleft" unicode="&#x201c;" horiz-adv-x="429" 
d="M409 1168q-5 92 -10.5 141.5t-15.5 84t-28 81.5q-4 9 -8 20q-13 13 -30 22.5t-28 9.5q-24 0 -46.5 -27.5t-27.5 -62.5q3 -75 30.5 -163.5t68.5 -146.5q25 -14 53.5 -2t41.5 43zM194 1168q-5 92 -10.5 141.5t-15.5 84t-28 81.5q-4 9 -8 20q-13 13 -30 22.5t-28 9.5
q-24 0 -46.5 -27.5t-27.5 -62.5q3 -75 30.5 -163.5t68.5 -146.5q25 -14 53.5 -2t41.5 43z" />
    <glyph glyph-name="quotedblright" unicode="&#x201d;" horiz-adv-x="429" 
d="M0 1168q4 92 9.5 141.5t16 84t28.5 81.5q3 9 7 20q14 13 30.5 22.5t27.5 9.5q24 0 46.5 -27.5t28.5 -62.5q-4 -75 -31 -163.5t-68 -146.5q-25 -14 -53.5 -2t-41.5 43zM215 1168q4 92 9.5 141.5t15.5 84t29 81.5q3 9 7 20q14 13 30.5 22.5t27.5 9.5q24 0 46.5 -27.5
t28.5 -62.5q-4 -75 -31 -163.5t-68 -146.5q-25 -14 -53.5 -2t-41.5 43z" />
    <glyph glyph-name="quotedblbase" unicode="&#x201e;" horiz-adv-x="429" 
d="M0 591q4 93 9.5 142.5t16 84t28.5 80.5q3 10 7 20q14 14 30.5 23t27.5 9q24 0 46.5 -27.5t28.5 -62.5q-4 -74 -31 -163t-68 -146q-25 -15 -53.5 -2.5t-41.5 42.5zM215 591q4 93 9.5 142.5t15.5 84t29 80.5q3 10 7 20q14 14 30.5 23t27.5 9q24 0 46.5 -27.5t28.5 -62.5
q-4 -74 -31 -163t-68 -146q-25 -15 -53.5 -2.5t-41.5 42.5z" />
    <glyph glyph-name="dagger" unicode="&#x2020;" 
 />
    <glyph glyph-name="daggerdbl" unicode="&#x2021;" 
 />
    <glyph glyph-name="bullet" unicode="&#x2022;" 
 />
    <glyph glyph-name="ellipsis" unicode="&#x2026;" 
 />
    <glyph glyph-name="guilsinglleft" unicode="&#x2039;" horiz-adv-x="491" 
d="M404 315q38 0 67 60q-4 26 -17 49q-13 27 -70 104q-68 84 -115 138q-5 7 -11 13q-34 40 -67 71l-16 16l6 4q11 7 22 16q26 20 36 30q47 36 82 76l13 16q27 30 49 64q13 21 25 40.5t22 38.5l11 20q20 41 20 49q0 24 -29 50.5t-69 34.5q-9 2 -16 2q-28 0 -43 -26
q-9 -12 -16 -22.5t-12 -17.5t-9 -14q-12 -16 -23 -33q-32 -45 -52 -66q-8 -10 -54 -60q0 -1 -1 -1l-16 -17l-49 -49q-7 -5 -18 -19l-5 -5q-6 -9 -14 -17q-35 -43 -35 -88q2 -37 29 -67q9 -8 17 -17q2 -1 11 -10q20 -18 43 -44q38 -40 71 -81l54 -69q38 -50 62 -83
q43 -59 95 -81q12 -5 22 -5z" />
    <glyph glyph-name="guilsinglright" unicode="&#x203a;" horiz-adv-x="491" 
d="M67 315q-38 0 -67 60q7 45 48 100q68 93 124 157q15 17 41 47t83 87l-12 8q-14 8 -69 56l-7 6q-33 28 -58 56l-13 16q-27 30 -49 64l-26 41q-17 29 -32 58l-7 13q-13 25 -13 36q0 24 28.5 50.5t69.5 34.5q9 2 16 2q28 0 43 -26l17 -24q5 -9 11 -17q10 -12 32 -46
q32 -45 52 -66q13 -17 27 -32q23 -22 44 -46q11 -13 26 -27q4 -3 7 -7q30 -26 38 -39l10 -12q12 -12 21 -29q19 -30 19 -64q-1 -22 -11 -42q-8 -14 -35 -41l-11 -11q-20 -18 -43 -44q-38 -40 -71 -81l-80 -102q-19 -25 -36 -50q-43 -59 -95 -81q-12 -5 -22 -5z" />
    <glyph glyph-name="fraction" unicode="&#x2044;" 
 />
    <glyph glyph-name="fraction" unicode="&#x2215;" 
 />
    <glyph glyph-name="franc" unicode="&#x20a3;" 
 />
    <glyph glyph-name="lira" unicode="&#x20a4;" 
 />
    <glyph glyph-name="peseta" unicode="&#x20a7;" 
 />
    <glyph glyph-name="Euro" unicode="&#x20ac;" horiz-adv-x="677" 
d="M442 288q-51 0 -97 15q-100 32 -159 119q-31 43 -46 100q-1 4 -2 6.5t-1 5.5l-18 -1q-2 1 -31 1q-49 16 -49 44q0 4 5 24t54 38q11 6 23 11v19q0 43 4 72q-21 0 -35 1q-25 0 -41 4q-49 25 -49 63q0 2 2 23t61 28q13 4 26 6q8 1 15 3q30 6 47 6q2 1 6 1q5 15 23 52
q3 5 5 11q11 20 25 38q0 2 28 36q33 35 67 53q47 23 121 23q32 0 60 -10l28 -10q8 -5 24.5 -14t29.5 -23l27 -26l15 -26q9 -8 9 -25q0 -20 -21 -35t-57 -15q-32 0 -53 20h-1q-5 5 -12 7q-4 4 -8 5.5t-6 3.5q-19 6 -32 6q-17 0 -40 -13l-3 -2q-7 -4 -12 -10q-8 -4 -19 -23v-1
h10q15 0 31 -2l22 -5q11 -3 18 -17q40 -53 40 -90q0 -48 -68 -48h-6q-24 3 -73 3l-30 1v-6q-3 -9 -3 -46q23 3 46 3q31 0 55 -10q45 -59 45 -96q0 -46 -69 -46h-5q-12 0 -22 -1t-20 -1l2 -4q8 -12 17 -23l1 -2q9 -10 20 -18q18 -12 31 -15q26 -9 32 -9l-10 -1h12q2 0 3 -1
l16 -1l20 2q0 1 -18 1q11 1 22 4l13 4q17 8 40 8q29 0 69 -17.5t57 -54.5q4 -9 4 -18q0 -42 -73 -75l-4 -2l-40 -15q-46 -13 -98 -13zM432 466l-3 1h23q-3 -1 -20 -1z" />
    <glyph glyph-name="uni2116" unicode="&#x2116;" 
 />
    <glyph glyph-name="trademark" unicode="&#x2122;" 
 />
    <glyph glyph-name="partialdiff" unicode="&#x2202;" 
 />
    <glyph glyph-name="Delta" unicode="&#x2206;" 
 />
    <glyph glyph-name="product" unicode="&#x220f;" 
 />
    <glyph glyph-name="summation" unicode="&#x2211;" 
 />
    <glyph glyph-name="minus" unicode="&#x2212;" horiz-adv-x="673" 
d="M30 633q9 -5 18 -7.5t26.5 -2.5t51.5 2.5t94 7.5q58 4 133 9t133 8q61 3 90.5 5t41 6t18.5 12q7 7 12 16.5t5 16.5q0 14 -15 29.5t-34 21.5q-21 3 -118.5 1.5t-203.5 -6.5t-152 -11q-57 -7 -84 -18t-38 -30q-8 -14 -1.5 -32t23.5 -28z" />
    <glyph glyph-name="radical" unicode="&#x221a;" 
 />
    <glyph glyph-name="infinity" unicode="&#x221e;" 
 />
    <glyph glyph-name="integral" unicode="&#x222b;" 
 />
    <glyph glyph-name="approxequal" unicode="&#x2248;" 
 />
    <glyph glyph-name="lessequal" unicode="&#x2264;" 
 />
    <glyph glyph-name="greaterequal" unicode="&#x2265;" 
 />
    <glyph glyph-name="A.salt" unicode="&#xe000;" 
 />
    <glyph glyph-name="B.salt" unicode="&#xe001;" 
 />
    <glyph glyph-name="C.salt" unicode="&#xe002;" 
 />
    <glyph glyph-name="D.salt" unicode="&#xe003;" 
 />
    <glyph glyph-name="E.salt" unicode="&#xe004;" 
 />
    <glyph glyph-name="F.salt" unicode="&#xe005;" 
 />
    <glyph glyph-name="G.salt" unicode="&#xe006;" 
 />
    <glyph glyph-name="H.salt" unicode="&#xe007;" 
 />
    <glyph glyph-name="I.salt" unicode="&#xe008;" 
 />
    <glyph glyph-name="J.salt" unicode="&#xe009;" 
 />
    <glyph glyph-name="K.salt" unicode="&#xe010;" 
 />
    <glyph glyph-name="L.salt" unicode="&#xe011;" 
 />
    <glyph glyph-name="M.salt" unicode="&#xe012;" 
 />
    <glyph glyph-name="N.salt" unicode="&#xe013;" 
 />
    <glyph glyph-name="O.salt" unicode="&#xe014;" 
 />
    <glyph glyph-name="P.salt" unicode="&#xe015;" 
 />
    <glyph glyph-name="Q.salt" unicode="&#xe016;" 
 />
    <glyph glyph-name="R.salt" unicode="&#xe017;" 
 />
    <glyph glyph-name="S.salt" unicode="&#xe018;" 
 />
    <glyph glyph-name="T.salt" unicode="&#xe019;" 
 />
    <glyph glyph-name="U.salt" unicode="&#xe020;" 
 />
    <glyph glyph-name="V.salt" unicode="&#xe021;" 
 />
    <glyph glyph-name="W.salt" unicode="&#xe022;" 
 />
    <glyph glyph-name="X.salt" unicode="&#xe023;" 
 />
    <glyph glyph-name="Y.salt" unicode="&#xe024;" 
 />
    <glyph glyph-name="Z.salt" unicode="&#xe025;" 
 />
    <glyph glyph-name="a.salt" unicode="&#xe026;" 
 />
    <glyph glyph-name="b.salt" unicode="&#xe027;" 
 />
    <glyph glyph-name="c.salt" unicode="&#xe028;" 
 />
    <glyph glyph-name="d.salt" unicode="&#xe029;" 
 />
    <glyph glyph-name="e.salt" unicode="&#xe030;" 
 />
    <glyph glyph-name="f.salt" unicode="&#xe031;" 
 />
    <glyph glyph-name="g.salt" unicode="&#xe032;" 
 />
    <glyph glyph-name="h.salt" unicode="&#xe033;" 
 />
    <glyph glyph-name="i.salt" unicode="&#xe034;" 
 />
    <glyph glyph-name="j.salt" unicode="&#xe035;" 
 />
    <glyph glyph-name="k.salt" unicode="&#xe036;" 
 />
    <glyph glyph-name="l.salt" unicode="&#xe037;" 
 />
    <glyph glyph-name="m.salt" unicode="&#xe038;" 
 />
    <glyph glyph-name="n.salt" unicode="&#xe039;" 
 />
    <glyph glyph-name="o.salt" unicode="&#xe040;" 
 />
    <glyph glyph-name="p.salt" unicode="&#xe041;" 
 />
    <glyph glyph-name="q.salt" unicode="&#xe042;" 
 />
    <glyph glyph-name="r.salt" unicode="&#xe043;" 
 />
    <glyph glyph-name="s.salt" unicode="&#xe044;" 
 />
    <glyph glyph-name="t.salt" unicode="&#xe045;" 
 />
    <glyph glyph-name="u.salt" unicode="&#xe046;" 
 />
    <glyph glyph-name="v.salt" unicode="&#xe047;" 
 />
    <glyph glyph-name="w.salt" unicode="&#xe048;" 
 />
    <glyph glyph-name="x.salt" unicode="&#xe049;" 
 />
    <glyph glyph-name="y.salt" unicode="&#xe050;" 
 />
    <glyph glyph-name="z.salt" unicode="&#xe051;" 
 />
    <glyph glyph-name="A.swsh" unicode="&#xe052;" 
 />
    <glyph glyph-name="B.swsh" unicode="&#xe053;" 
 />
    <glyph glyph-name="C.swsh" unicode="&#xe054;" 
 />
    <glyph glyph-name="D.swsh" unicode="&#xe055;" 
 />
    <glyph glyph-name="E.swsh" unicode="&#xe056;" 
 />
    <glyph glyph-name="F.swsh" unicode="&#xe057;" 
 />
    <glyph glyph-name="G.swsh" unicode="&#xe058;" 
 />
    <glyph glyph-name="H.swsh" unicode="&#xe059;" 
 />
    <glyph glyph-name="I.swsh" unicode="&#xe060;" 
 />
    <glyph glyph-name="J.swsh" unicode="&#xe061;" 
 />
    <glyph glyph-name="K.swsh" unicode="&#xe062;" 
 />
    <glyph glyph-name="L.swsh" unicode="&#xe063;" 
 />
    <glyph glyph-name="M.swsh" unicode="&#xe064;" 
 />
    <glyph glyph-name="N.swsh" unicode="&#xe065;" 
 />
    <glyph glyph-name="O.swsh" unicode="&#xe066;" 
 />
    <glyph glyph-name="P.swsh" unicode="&#xe067;" 
 />
    <glyph glyph-name="Q.swsh" unicode="&#xe068;" 
 />
    <glyph glyph-name="R.swsh" unicode="&#xe069;" 
 />
    <glyph glyph-name="S.swsh" unicode="&#xe070;" 
 />
    <glyph glyph-name="T.swsh" unicode="&#xe071;" 
 />
    <glyph glyph-name="U.swsh" unicode="&#xe072;" 
 />
    <glyph glyph-name="V.swsh" unicode="&#xe073;" 
 />
    <glyph glyph-name="W.swsh" unicode="&#xe074;" 
 />
    <glyph glyph-name="X.swsh" unicode="&#xe075;" 
 />
    <glyph glyph-name="Y.swsh" unicode="&#xe076;" 
 />
    <glyph glyph-name="Z.swsh" unicode="&#xe077;" 
 />
    <glyph glyph-name="t.swsh" unicode="&#xe097;" 
 />
    <glyph glyph-name="t.titl" unicode="&#xe123;" 
 />
    <glyph glyph-name="a.ss01" unicode="&#xe130;" 
 />
    <glyph glyph-name="b.ss01" unicode="&#xe131;" 
 />
    <glyph glyph-name="c.ss01" unicode="&#xe132;" 
 />
    <glyph glyph-name="d.ss01" unicode="&#xe133;" 
 />
    <glyph glyph-name="e.ss01" unicode="&#xe134;" 
 />
    <glyph glyph-name="f.ss01" unicode="&#xe135;" 
 />
    <glyph glyph-name="g.ss01" unicode="&#xe136;" 
 />
    <glyph glyph-name="h.ss01" unicode="&#xe137;" 
 />
    <glyph glyph-name="i.ss01" unicode="&#xe138;" 
 />
    <glyph glyph-name="j.ss01" unicode="&#xe139;" 
 />
    <glyph glyph-name="k.ss01" unicode="&#xe140;" 
 />
    <glyph glyph-name="l.ss01" unicode="&#xe141;" 
 />
    <glyph glyph-name="m.ss01" unicode="&#xe142;" 
 />
    <glyph glyph-name="n.ss01" unicode="&#xe143;" 
 />
    <glyph glyph-name="o.ss01" unicode="&#xe144;" 
 />
    <glyph glyph-name="p.ss01" unicode="&#xe145;" 
 />
    <glyph glyph-name="q.ss01" unicode="&#xe146;" 
 />
    <glyph glyph-name="r.ss01" unicode="&#xe147;" 
 />
    <glyph glyph-name="s.ss01" unicode="&#xe148;" 
 />
    <glyph glyph-name="t.ss01" unicode="&#xe149;" 
 />
    <glyph glyph-name="u.ss01" unicode="&#xe150;" 
 />
    <glyph glyph-name="v.ss01" unicode="&#xe151;" 
 />
    <glyph glyph-name="w.ss01" unicode="&#xe152;" 
 />
    <glyph glyph-name="x.ss01" unicode="&#xe153;" 
 />
    <glyph glyph-name="y.ss01" unicode="&#xe154;" 
 />
    <glyph glyph-name="z.ss01" unicode="&#xe155;" 
 />
    <glyph glyph-name="a.ss02" unicode="&#xe156;" 
 />
    <glyph glyph-name="b.ss02" unicode="&#xe157;" 
 />
    <glyph glyph-name="c.ss02" unicode="&#xe158;" 
 />
    <glyph glyph-name="d.ss02" unicode="&#xe159;" 
 />
    <glyph glyph-name="e.ss02" unicode="&#xe160;" 
 />
    <glyph glyph-name="f.ss02" unicode="&#xe161;" 
 />
    <glyph glyph-name="g.ss02" unicode="&#xe162;" 
 />
    <glyph glyph-name="h.ss02" unicode="&#xe163;" 
 />
    <glyph glyph-name="i.ss02" unicode="&#xe164;" 
 />
    <glyph glyph-name="j.ss02" unicode="&#xe165;" 
 />
    <glyph glyph-name="k.ss02" unicode="&#xe166;" 
 />
    <glyph glyph-name="l.ss02" unicode="&#xe167;" 
 />
    <glyph glyph-name="m.ss02" unicode="&#xe168;" 
 />
    <glyph glyph-name="n.ss02" unicode="&#xe169;" 
 />
    <glyph glyph-name="o.ss02" unicode="&#xe170;" 
 />
    <glyph glyph-name="p.ss02" unicode="&#xe171;" 
 />
    <glyph glyph-name="q.ss02" unicode="&#xe172;" 
 />
    <glyph glyph-name="r.ss02" unicode="&#xe173;" 
 />
    <glyph glyph-name="s.ss02" unicode="&#xe174;" 
 />
    <glyph glyph-name="t.ss02" unicode="&#xe175;" 
 />
    <glyph glyph-name="u.ss02" unicode="&#xe176;" 
 />
    <glyph glyph-name="v.ss02" unicode="&#xe177;" 
 />
    <glyph glyph-name="w.ss02" unicode="&#xe178;" 
 />
    <glyph glyph-name="x.ss02" unicode="&#xe179;" 
 />
    <glyph glyph-name="y.ss02" unicode="&#xe180;" 
 />
    <glyph glyph-name="z.ss02" unicode="&#xe181;" 
 />
    <glyph glyph-name="a.ss03" unicode="&#xe182;" 
 />
    <glyph glyph-name="b.ss03" unicode="&#xe183;" 
 />
    <glyph glyph-name="c.ss03" unicode="&#xe184;" 
 />
    <glyph glyph-name="d.ss03" unicode="&#xe185;" 
 />
    <glyph glyph-name="f.ss03" unicode="&#xe187;" 
 />
    <glyph glyph-name="g.ss03" unicode="&#xe188;" 
 />
    <glyph glyph-name="h.ss03" unicode="&#xe189;" 
 />
    <glyph glyph-name="i.ss03" unicode="&#xe190;" 
 />
    <glyph glyph-name="j.ss03" unicode="&#xe191;" 
 />
    <glyph glyph-name="k.ss03" unicode="&#xe192;" 
 />
    <glyph glyph-name="l.ss03" unicode="&#xe193;" 
 />
    <glyph glyph-name="m.ss03" unicode="&#xe194;" 
 />
    <glyph glyph-name="n.ss03" unicode="&#xe195;" 
 />
    <glyph glyph-name="o.ss03" unicode="&#xe196;" 
 />
    <glyph glyph-name="p.ss03" unicode="&#xe197;" 
 />
    <glyph glyph-name="q.ss03" unicode="&#xe198;" 
 />
    <glyph glyph-name="r.ss03" unicode="&#xe199;" 
 />
    <glyph glyph-name="s.ss03" unicode="&#xe200;" 
 />
    <glyph glyph-name="t.ss03" unicode="&#xe201;" 
 />
    <glyph glyph-name="u.ss03" unicode="&#xe202;" 
 />
    <glyph glyph-name="v.ss03" unicode="&#xe203;" 
 />
    <glyph glyph-name="w.ss03" unicode="&#xe204;" 
 />
    <glyph glyph-name="x.ss03" unicode="&#xe205;" 
 />
    <glyph glyph-name="y.ss03" unicode="&#xe206;" 
 />
    <glyph glyph-name="z.ss03" unicode="&#xe207;" 
 />
    <glyph glyph-name="_1" unicode="&#xe216;" 
 />
    <glyph glyph-name="_2" unicode="&#xe217;" 
 />
    <glyph glyph-name="_3" unicode="&#xe218;" 
 />
    <glyph glyph-name="_4" unicode="&#xe219;" 
 />
    <glyph glyph-name="_5" unicode="&#xe220;" 
 />
    <glyph glyph-name="_6" unicode="&#xe221;" 
 />
    <glyph glyph-name="_7" unicode="&#xe222;" 
 />
    <glyph glyph-name="_8" unicode="&#xe223;" 
 />
    <glyph glyph-name="_9" unicode="&#xe224;" 
 />
    <glyph glyph-name="_10" unicode="&#xe225;" 
 />
    <glyph glyph-name="_11" unicode="&#xe226;" 
 />
    <glyph glyph-name="_12" unicode="&#xe227;" 
 />
    <glyph glyph-name="_13" unicode="&#xe228;" 
 />
    <glyph glyph-name="_14" unicode="&#xe229;" 
 />
    <glyph glyph-name="_15" unicode="&#xe230;" 
 />
    <glyph glyph-name="_16" unicode="&#xe231;" 
 />
    <glyph glyph-name="_17" unicode="&#xe232;" 
 />
    <glyph glyph-name="_18" unicode="&#xe233;" 
 />
    <glyph glyph-name="_19" unicode="&#xe234;" 
 />
    <glyph glyph-name="_20" unicode="&#xe235;" 
 />
    <glyph glyph-name="_21" unicode="&#xe236;" 
 />
    <glyph glyph-name="_22" unicode="&#xe237;" 
 />
    <glyph glyph-name="_23" unicode="&#xe238;" 
 />
    <glyph glyph-name="_24" unicode="&#xe239;" 
 />
    <glyph glyph-name="_25" unicode="&#xe240;" 
 />
    <glyph glyph-name="_26" unicode="&#xe241;" 
 />
    <glyph glyph-name="_27" unicode="&#xe242;" 
 />
    <glyph glyph-name="_28" unicode="&#xe243;" 
 />
    <glyph glyph-name="_29" unicode="&#xe244;" 
 />
    <glyph glyph-name="_30" unicode="&#xe245;" 
 />
    <glyph glyph-name="_31" unicode="&#xe246;" 
 />
    <glyph glyph-name="_32" unicode="&#xe247;" 
 />
    <glyph glyph-name="_33" unicode="&#xe248;" 
 />
    <glyph glyph-name="_34" unicode="&#xe249;" 
 />
    <glyph glyph-name="_35" unicode="&#xe250;" 
 />
    <glyph glyph-name="_36" unicode="&#xe251;" 
 />
    <glyph glyph-name="_37" unicode="&#xe260;" 
 />
    <glyph glyph-name="_38" unicode="&#xe261;" 
 />
    <glyph glyph-name="_39" unicode="&#xe262;" 
 />
    <glyph glyph-name="_40" unicode="&#xe263;" 
 />
    <glyph glyph-name="_41" unicode="&#xe264;" 
 />
    <glyph glyph-name="_42" unicode="&#xe265;" 
 />
    <glyph glyph-name="_43" unicode="&#xe266;" 
 />
    <glyph glyph-name="_44" unicode="&#xe267;" 
 />
    <glyph glyph-name="_45" unicode="&#xe268;" 
 />
    <glyph glyph-name="_46" unicode="&#xe269;" 
 />
    <glyph glyph-name="_47" unicode="&#xe270;" 
 />
  </font>
</defs>
</svg>
